# ProBuilder 6.1.2
# https://unity3d.com/unity/features/worldbuilding/probuilder
# 22.09.2026 2:14:52

mtllib ./Chain.mtl
o Chain

g obstacle_5_002 (1)
v 0.03859925 0.04525751 -7.629999E-06
v 0.07660627 0.08326453 -0.04934792
v 3.6E-07 0.1149957 -0.04934793
v 3.6E-07 0.06124476 -7.64E-06
v -0.07660603 0.08326453 -0.04934794
v -0.038599 0.04525751 -7.65E-06
v 3.6E-07 0.1606294 -7.64E-06
v -0.108873 0.1155315 -7.65E-06
v 0.1088733 0.1155315 -7.64E-06
v 3.6E-07 0.1149957 0.04933266
v -0.07660603 0.08326453 0.04933264
v 0.07660627 0.08326453 0.04933267
v 0.1535846 0.0109123 -7.619999E-06
v 0.1062882 0.00749063 0.04958356
v 0.1062877 -0.1322415 0.04958356
v 0.1535841 -0.1356637 -7.6E-06
v 0.1088728 -0.2402824 -7.61E-06
v 0.07660582 -0.2080159 0.04933267
v 0.1062882 0.00749063 -0.04959879
v 0.1062877 -0.1322415 -0.04959879
v 0.07660582 -0.2080159 -0.0493479
v 0.03859879 -0.1700088 -7.6E-06
v 0.05513567 -0.1263458 -7.619999E-06
v 0.05513613 0.00159445 -7.629999E-06
v -9.999999E-08 -0.1859961 -7.619999E-06
v -9.999999E-08 -0.239747 -0.04934791
v -9.999999E-08 -0.2853798 -7.619999E-06
v -0.038599 -0.1700088 -7.629999E-06
v -0.07660603 -0.2080159 -0.04934792
v -0.1088735 -0.2402824 -7.619999E-06
v -9.999999E-08 -0.239747 0.04933267
v -0.07660603 -0.2080159 0.04933267
v -0.1062879 -0.1322415 -0.04959881
v -0.1535843 -0.1356637 -7.64E-06
v -0.1535843 0.0109123 -7.65E-06
v -0.1062875 0.00749063 -0.04959881
v -0.1062879 -0.1322415 0.04958355
v -0.1062879 0.00749063 0.04958354
v -0.05513587 -0.1263458 -7.629999E-06
v -0.05513587 0.00159445 -7.64E-06
v 1.780164E-07 -0.1919162 0.03860725
v 0.04934035 -0.1539087 0.07661446
v 0.04934035 -0.1221774 7.595367E-06
v 1.780164E-07 -0.1759284 7.595367E-06
v 0.04934035 -0.1539087 -0.07659927
v 1.780164E-07 -0.1919162 -0.03859206
v 1.780164E-07 -0.07654423 7.595367E-06
v 1.780164E-07 -0.1216418 -0.1088644
v 1.780164E-07 -0.1216418 0.1088796
v -0.04934046 -0.1221774 7.595367E-06
v -0.04934046 -0.1539087 -0.07659927
v -0.04934046 -0.1539087 0.07661446
v 1.780164E-07 -0.2262608 0.1535935
v -0.04959116 -0.229683 0.1062972
v -0.04959116 -0.3694147 0.1062972
v 1.780164E-07 -0.3728374 0.1535935
v 1.780164E-07 -0.4774562 0.1088796
v -0.04934046 -0.4451892 0.07661446
v 0.04959105 -0.229683 0.1062972
v 0.04959105 -0.3694147 0.1062972
v 0.04934035 -0.4451892 0.07661446
v 1.780164E-07 -0.407182 0.03860725
v 1.780164E-07 -0.363519 0.05514236
v 1.780164E-07 -0.2355789 0.05514236
v 1.780164E-07 -0.4231693 7.595367E-06
v 0.04934035 -0.4769202 7.595367E-06
v 1.780164E-07 -0.5225531 7.595367E-06
v 1.780164E-07 -0.407182 -0.03859206
v 0.04934035 -0.4451892 -0.07659927
v 1.780164E-07 -0.4774562 -0.1088644
v -0.04934046 -0.4769202 7.595367E-06
v -0.04934046 -0.4451892 -0.07659927
v 0.04959105 -0.3694147 -0.106282
v 1.780164E-07 -0.3728374 -0.1535783
v 1.780164E-07 -0.2262608 -0.1535783
v 0.04959105 -0.229683 -0.1062782
v -0.04959116 -0.3694147 -0.106282
v -0.04959116 -0.229683 -0.106282
v 1.780164E-07 -0.363519 -0.05512717
v 1.780164E-07 -0.2355789 -0.05512717
v 0.03859925 -0.4297426 -7.595367E-06
v 0.07660627 -0.3917354 -0.0493471
v 3.634502E-07 -0.3600043 -0.0493471
v 3.634502E-07 -0.4137553 -7.595367E-06
v -0.07660603 -0.3917354 -0.0493471
v -0.038599 -0.4297426 -7.595367E-06
v 3.634502E-07 -0.3143706 -7.595367E-06
v -0.108873 -0.3594686 -7.595367E-06
v 0.1088733 -0.3594686 -7.595367E-06
v 3.634502E-07 -0.3600043 0.04933191
v -0.07660603 -0.3917354 0.04933191
v 0.07660627 -0.3917354 0.04933191
v 0.1535846 -0.4640876 -7.595367E-06
v 0.1062882 -0.4675093 0.04958255
v 0.1062877 -0.6072416 0.04958255
v 0.1535841 -0.6106637 -7.595367E-06
v 0.1088728 -0.7152823 -7.595367E-06
v 0.07660583 -0.6830158 0.04933191
v 0.1062882 -0.4675093 -0.04959774
v 0.1062877 -0.6072416 -0.04959774
v 0.07660583 -0.6830158 -0.0493471
v 0.03859879 -0.6450087 -7.595367E-06
v 0.05513567 -0.6013456 -7.595367E-06
v 0.05513613 -0.4734055 -7.595367E-06
v -9.642555E-08 -0.6609964 -7.595367E-06
v -9.642555E-08 -0.7147469 -0.0493471
v -9.642555E-08 -0.7603799 -7.595367E-06
v -0.038599 -0.6450087 -7.595367E-06
v -0.07660603 -0.6830158 -0.0493471
v -0.1088735 -0.7152823 -7.595367E-06
v -9.642555E-08 -0.7147469 0.04933191
v -0.07660603 -0.6830158 0.04933191
v -0.1062879 -0.6072416 -0.04959774
v -0.1535843 -0.6106637 -7.595367E-06
v -0.1535843 -0.4640876 -7.595367E-06
v -0.1062875 -0.4675093 -0.04959774
v -0.1062879 -0.6072416 0.04958255
v -0.1062879 -0.4675093 0.04958255
v -0.05513587 -0.6013456 -7.595367E-06
v -0.05513587 -0.4734055 -7.595367E-06
v 1.780164E-07 -0.666916 0.03860725
v 0.04934035 -0.6289087 0.07661446
v 0.04934035 -0.5971774 7.595367E-06
v 1.780164E-07 -0.6509287 7.595367E-06
v 0.04934035 -0.6289087 -0.07659927
v 1.780164E-07 -0.666916 -0.03859206
v 1.780164E-07 -0.5515442 7.595367E-06
v 1.780164E-07 -0.5966417 -0.1088644
v 1.780164E-07 -0.5966417 0.1088796
v -0.04934046 -0.5971774 7.595367E-06
v -0.04934046 -0.6289087 -0.07659927
v -0.04934046 -0.6289087 0.07661446
v 1.780164E-07 -0.7012607 0.1535935
v -0.04959116 -0.704683 0.1062972
v -0.04959116 -0.8444147 0.1062972
v 1.780164E-07 -0.8478372 0.1535935
v 1.780164E-07 -0.9524562 0.1088796
v -0.04934046 -0.9201892 0.07661446
v 0.04959105 -0.704683 0.1062972
v 0.04959105 -0.8444147 0.1062972
v 0.04934035 -0.9201892 0.07661446
v 1.780164E-07 -0.8821819 0.03860725
v 1.780164E-07 -0.838519 0.05514236
v 1.780164E-07 -0.7105786 0.05514236
v 1.780164E-07 -0.8981692 7.595367E-06
v 0.04934035 -0.9519202 7.595367E-06
v 1.780164E-07 -0.9975532 7.595367E-06
v 1.780164E-07 -0.8821819 -0.03859206
v 0.04934035 -0.9201892 -0.07659927
v 1.780164E-07 -0.9524562 -0.1088644
v -0.04934046 -0.9519202 7.595367E-06
v -0.04934046 -0.9201892 -0.07659927
v 0.04959105 -0.8444147 -0.106282
v 1.780164E-07 -0.8478372 -0.1535783
v 1.780164E-07 -0.7012607 -0.1535783
v 0.04959105 -0.704683 -0.1062782
v -0.04959116 -0.8444147 -0.106282
v -0.04959116 -0.704683 -0.106282
v 1.780164E-07 -0.838519 -0.05512717
v 1.780164E-07 -0.7105786 -0.05512717
v 0.03859925 -0.9337426 -7.595367E-06
v 0.07660627 -0.8957354 -0.0493471
v 3.634502E-07 -0.8640043 -0.0493471
v 3.634502E-07 -0.9177553 -7.595367E-06
v -0.07660603 -0.8957354 -0.0493471
v -0.038599 -0.9337426 -7.595367E-06
v 3.634502E-07 -0.8183704 -7.595367E-06
v -0.108873 -0.8634686 -7.595367E-06
v 0.1088733 -0.8634686 -7.595367E-06
v 3.634502E-07 -0.8640043 0.04933191
v -0.07660603 -0.8957354 0.04933191
v 0.07660627 -0.8957354 0.04933191
v 0.1535846 -0.968088 -7.595367E-06
v 0.1062882 -0.9715096 0.04958255
v 0.1062877 -1.111242 0.04958255
v 0.1535841 -1.114664 -7.595367E-06
v 0.1088728 -1.219282 -7.595367E-06
v 0.07660583 -1.187016 0.04933191
v 0.1062882 -0.9715096 -0.04959774
v 0.1062877 -1.111242 -0.04959774
v 0.07660583 -1.187016 -0.0493471
v 0.03859879 -1.149009 -7.595367E-06
v 0.05513567 -1.105346 -7.595367E-06
v 0.05513613 -0.9774055 -7.595367E-06
v -9.642555E-08 -1.164996 -7.595367E-06
v -9.642555E-08 -1.218747 -0.0493471
v -9.642555E-08 -1.26438 -7.595367E-06
v -0.038599 -1.149009 -7.595367E-06
v -0.07660603 -1.187016 -0.0493471
v -0.1088735 -1.219282 -7.595367E-06
v -9.642555E-08 -1.218747 0.04933191
v -0.07660603 -1.187016 0.04933191
v -0.1062879 -1.111242 -0.04959774
v -0.1535843 -1.114664 -7.595367E-06
v -0.1535843 -0.968088 -7.595367E-06
v -0.1062875 -0.9715096 -0.04959774
v -0.1062879 -1.111242 0.04958255
v -0.1062879 -0.9715096 0.04958255
v -0.05513587 -1.105346 -7.595367E-06
v -0.05513587 -0.9774055 -7.595367E-06
v 1.780164E-07 -1.170916 0.03860725
v 0.04934035 -1.132909 0.07661446
v 0.04934035 -1.101177 7.595367E-06
v 1.780164E-07 -1.154928 7.595367E-06
v 0.04934035 -1.132909 -0.07659927
v 1.780164E-07 -1.170916 -0.03859206
v 1.780164E-07 -1.055544 7.595367E-06
v 1.780164E-07 -1.100642 -0.1088644
v 1.780164E-07 -1.100642 0.1088796
v -0.04934046 -1.101177 7.595367E-06
v -0.04934046 -1.132909 -0.07659927
v -0.04934046 -1.132909 0.07661446
v 1.780164E-07 -1.205261 0.1535935
v -0.04959116 -1.208683 0.1062972
v -0.04959116 -1.348414 0.1062972
v 1.780164E-07 -1.351837 0.1535935
v 1.780164E-07 -1.456456 0.1088796
v -0.04934046 -1.424189 0.07661446
v 0.04959105 -1.208683 0.1062972
v 0.04959105 -1.348414 0.1062972
v 0.04934035 -1.424189 0.07661446
v 1.780164E-07 -1.386182 0.03860725
v 1.780164E-07 -1.342519 0.05514236
v 1.780164E-07 -1.214579 0.05514236
v 1.780164E-07 -1.402169 7.595367E-06
v 0.04934035 -1.45592 7.595367E-06
v 1.780164E-07 -1.501553 7.595367E-06
v 1.780164E-07 -1.386182 -0.03859206
v 0.04934035 -1.424189 -0.07659927
v 1.780164E-07 -1.456456 -0.1088644
v -0.04934046 -1.45592 7.595367E-06
v -0.04934046 -1.424189 -0.07659927
v 0.04959105 -1.348414 -0.106282
v 1.780164E-07 -1.351837 -0.1535783
v 1.780164E-07 -1.205261 -0.1535783
v 0.04959105 -1.208683 -0.1062782
v -0.04959116 -1.348414 -0.106282
v -0.04959116 -1.208683 -0.106282
v 1.780164E-07 -1.342519 -0.05512717
v 1.780164E-07 -1.214579 -0.05512717
v 0.03859925 -1.408743 -7.595367E-06
v 0.07660627 -1.370735 -0.0493471
v 3.634502E-07 -1.339004 -0.0493471
v 3.634502E-07 -1.392755 -7.595367E-06
v -0.07660603 -1.370735 -0.0493471
v -0.038599 -1.408743 -7.595367E-06
v 3.634502E-07 -1.29337 -7.595367E-06
v -0.108873 -1.338469 -7.595367E-06
v 0.1088733 -1.338469 -7.595367E-06
v 3.634502E-07 -1.339004 0.04933191
v -0.07660603 -1.370735 0.04933191
v 0.07660627 -1.370735 0.04933191
v 0.1535846 -1.443088 -7.595367E-06
v 0.1062882 -1.446509 0.04958255
v 0.1062877 -1.586242 0.04958255
v 0.1535841 -1.589664 -7.595367E-06
v 0.1088728 -1.694282 -7.595367E-06
v 0.07660583 -1.662016 0.04933191
v 0.1062882 -1.446509 -0.04959774
v 0.1062877 -1.586242 -0.04959774
v 0.07660583 -1.662016 -0.0493471
v 0.03859879 -1.624009 -7.595367E-06
v 0.05513567 -1.580346 -7.595367E-06
v 0.05513613 -1.452405 -7.595367E-06
v -9.642555E-08 -1.639996 -7.595367E-06
v -9.642555E-08 -1.693747 -0.0493471
v -9.642555E-08 -1.73938 -7.595367E-06
v -0.038599 -1.624009 -7.595367E-06
v -0.07660603 -1.662016 -0.0493471
v -0.1088735 -1.694282 -7.595367E-06
v -9.642555E-08 -1.693747 0.04933191
v -0.07660603 -1.662016 0.04933191
v -0.1062879 -1.586242 -0.04959774
v -0.1535843 -1.589664 -7.595367E-06
v -0.1535843 -1.443088 -7.595367E-06
v -0.1062875 -1.446509 -0.04959774
v -0.1062879 -1.586242 0.04958255
v -0.1062879 -1.446509 0.04958255
v -0.05513587 -1.580346 -7.595367E-06
v -0.05513587 -1.452405 -7.595367E-06
v 1.780164E-07 -1.645916 0.03860725
v 0.04934035 -1.607909 0.07661446
v 0.04934035 -1.576178 7.595367E-06
v 1.780164E-07 -1.629929 7.595367E-06
v 0.04934035 -1.607909 -0.07659927
v 1.780164E-07 -1.645916 -0.03859206
v 1.780164E-07 -1.530544 7.595367E-06
v 1.780164E-07 -1.575642 -0.1088644
v 1.780164E-07 -1.575642 0.1088796
v -0.04934046 -1.576178 7.595367E-06
v -0.04934046 -1.607909 -0.07659927
v -0.04934046 -1.607909 0.07661446
v 1.780164E-07 -1.680261 0.1535935
v -0.04959116 -1.683683 0.1062972
v -0.04959116 -1.823415 0.1062972
v 1.780164E-07 -1.826838 0.1535935
v 1.780164E-07 -1.931456 0.1088796
v -0.04934046 -1.899189 0.07661446
v 0.04959105 -1.683683 0.1062972
v 0.04959105 -1.823415 0.1062972
v 0.04934035 -1.899189 0.07661446
v 1.780164E-07 -1.861182 0.03860725
v 1.780164E-07 -1.817519 0.05514236
v 1.780164E-07 -1.689579 0.05514236
v 1.780164E-07 -1.877169 7.595367E-06
v 0.04934035 -1.93092 7.595367E-06
v 1.780164E-07 -1.976553 7.595367E-06
v 1.780164E-07 -1.861182 -0.03859206
v 0.04934035 -1.899189 -0.07659927
v 1.780164E-07 -1.931456 -0.1088644
v -0.04934046 -1.93092 7.595367E-06
v -0.04934046 -1.899189 -0.07659927
v 0.04959105 -1.823415 -0.106282
v 1.780164E-07 -1.826838 -0.1535783
v 1.780164E-07 -1.680261 -0.1535783
v 0.04959105 -1.683683 -0.1062782
v -0.04959116 -1.823415 -0.106282
v -0.04959116 -1.683683 -0.106282
v 1.780164E-07 -1.817519 -0.05512717
v 1.780164E-07 -1.689579 -0.05512717
v 0.03859925 -1.878742 -7.595367E-06
v 0.07660627 -1.840736 -0.0493471
v 3.634502E-07 -1.809005 -0.0493471
v 3.634502E-07 -1.862756 -7.595367E-06
v -0.07660603 -1.840736 -0.0493471
v -0.038599 -1.878742 -7.595367E-06
v 3.634502E-07 -1.763371 -7.595367E-06
v -0.108873 -1.808469 -7.595367E-06
v 0.1088733 -1.808469 -7.595367E-06
v 3.634502E-07 -1.809005 0.04933191
v -0.07660603 -1.840736 0.04933191
v 0.07660627 -1.840736 0.04933191
v 0.1535846 -1.913088 -7.595367E-06
v 0.1062882 -1.91651 0.04958255
v 0.1062877 -2.056242 0.04958255
v 0.1535841 -2.059664 -7.595367E-06
v 0.1088728 -2.164283 -7.595367E-06
v 0.07660583 -2.132016 0.04933191
v 0.1062882 -1.91651 -0.04959774
v 0.1062877 -2.056242 -0.04959774
v 0.07660583 -2.132016 -0.0493471
v 0.03859879 -2.094009 -7.595367E-06
v 0.05513567 -2.050346 -7.595367E-06
v 0.05513613 -1.922406 -7.595367E-06
v -9.642555E-08 -2.109996 -7.595367E-06
v -9.642555E-08 -2.163747 -0.0493471
v -9.642555E-08 -2.20938 -7.595367E-06
v -0.038599 -2.094009 -7.595367E-06
v -0.07660603 -2.132016 -0.0493471
v -0.1088735 -2.164283 -7.595367E-06
v -9.642555E-08 -2.163747 0.04933191
v -0.07660603 -2.132016 0.04933191
v -0.1062879 -2.056242 -0.04959774
v -0.1535843 -2.059664 -7.595367E-06
v -0.1535843 -1.913088 -7.595367E-06
v -0.1062875 -1.91651 -0.04959774
v -0.1062879 -2.056242 0.04958255
v -0.1062879 -1.91651 0.04958255
v -0.05513587 -2.050346 -7.595367E-06
v -0.05513587 -1.922406 -7.595367E-06
v 0.002792083 -3.466459 2.27861E-05
v -0.2486465 -3.416444 2.27861E-05
v -0.2149602 -3.416444 0.1257413
v -0.1229272 -3.416444 0.2177744
v 0.002792083 -3.416444 0.2514598
v 0.1285114 -3.416444 0.2177744
v 0.2205444 -3.416444 0.1257413
v 0.2542306 -3.416444 2.27861E-05
v 0.2205444 -3.416444 -0.1256957
v 0.1285114 -3.416444 -0.2177288
v 0.002792083 -3.416444 -0.2514142
v 0.2350912 -3.274015 -0.4023304
v 0.002792083 -3.274015 -0.4645744
v -0.1229272 -3.416444 -0.2177288
v -0.2295066 -3.274015 -0.4023304
v -0.2149602 -3.416444 -0.1256957
v -0.3995615 -3.274015 -0.2322777
v -0.4618057 -3.274015 2.27861E-05
v -0.2149602 -2.202391 0.1257413
v -0.2486465 -2.202391 2.27861E-05
v 0.002792083 -2.152377 2.27861E-05
v -0.1229272 -2.202391 0.2177744
v 0.002792083 -2.34482 0.46462
v -0.229507 -2.34482 0.4023759
v 0.002792083 -2.202391 0.2514598
v 0.2350912 -2.34482 0.4023759
v 0.1285114 -2.202391 0.2177744
v 0.4051457 -2.34482 0.2323233
v 0.2205444 -2.202391 0.1257413
v 0.4673903 -2.34482 2.27861E-05
v 0.2542306 -2.202391 2.27861E-05
v 0.2205444 -2.202391 -0.1256957
v 0.1285114 -2.202391 -0.2177288
v 0.002792083 -2.202391 -0.2514142
v -0.1229272 -2.202391 -0.2177288
v -0.2149602 -2.202391 -0.1256957
v -0.1984578 -2.809417 0.5324808
v -0.1395132 -2.667112 0.5324808
v 0.002792083 -2.809417 0.8233112
v -0.1395132 -2.951722 0.5324808
v 0.2040424 -2.809417 0.5324808
v 0.1450973 -2.951722 0.5324808
v 0.1450973 -2.667112 0.5324808
v 0.3927606 -2.667112 0.3894904
v 0.463913 -2.608167 0.2662518
v 0.7157795 -2.809417 0.4116651
v 0.3632881 -2.809417 0.4405389
v 0.5350659 -2.951722 0.1430094
v 0.463913 -3.010668 0.2662518
v 0.5645384 -2.809417 0.0919647
v 0.5645384 -2.809417 -0.09191912
v 0.5350659 -2.667112 -0.1429638
v 0.7157795 -2.809417 -0.4116195
v 0.5350659 -2.951722 -0.1429638
v 0.463913 -3.010668 -0.2662062
v 0.3927602 -2.951722 -0.3894448
v 0.3632881 -2.809417 -0.4404933
v 0.3927602 -2.667112 -0.3894448
v 0.002792083 -2.608167 -0.5324352
v -0.1395132 -2.667112 -0.5324352
v 0.002792083 -2.809417 -0.8232618
v 0.1450973 -2.951722 -0.5324352
v 0.2040424 -2.809417 -0.5324352
v -0.1984582 -2.809417 -0.5324352
v -0.1395132 -2.951722 -0.5324352
v -0.357704 -2.809417 -0.4404933
v -0.3871764 -2.667112 -0.3894448
v -0.7101954 -2.809417 -0.4116195
v -0.3871764 -2.951722 -0.3894448
v -0.4583289 -3.010668 -0.2662062
v -0.5294817 -2.667112 -0.1429638
v -0.5589538 -2.809417 -0.09191533
v -0.4583285 -2.608167 0.2662518
v -0.387176 -2.667112 0.3894904
v -0.7101948 -2.809417 0.4116689
v -0.5294813 -2.667112 0.1430132
v -0.5589538 -2.809417 0.0919647
v -0.5294813 -2.951722 0.1430132
v -0.4583285 -3.010668 0.2662518
v -0.3577035 -2.809417 0.4405389
v 0.1241346 -2.282123 0.2101942
v 0.2682145 -2.323803 0.1751378
v 0.2981113 -2.21878 0.511529
v 0.02173452 -2.323803 0.3174407
v 0.0209994 -2.424428 0.43406
v 0.1223594 -2.525053 0.4917316
v 0.2664398 -2.566733 0.4566752
v 0.369575 -2.424428 0.2328094
v 0.2454761 -2.282123 2.27861E-05
v 0.2871565 -2.323803 -0.142284
v 0.5934296 -2.21878 2.27861E-05
v 0.2871565 -2.323803 0.1423296
v 0.3877819 -2.424428 0.2012734
v 0.4884068 -2.525053 0.1423296
v 0.5300872 -2.566733 2.27861E-05
v 0.3877819 -2.424428 -0.2012278
v 0.268214 -2.323803 -0.1750922
v 0.1241341 -2.282123 -0.2101486
v 0.2981108 -2.21878 -0.5114834
v 0.3695745 -2.424428 -0.2327638
v 0.3688394 -2.525053 -0.3493793
v 0.2664394 -2.566733 -0.4566296
v -0.01541525 -2.424428 -0.4340144
v -0.01615037 -2.323803 -0.3173952
v -0.2925271 -2.21878 -0.5114834
v -0.1167753 -2.525053 -0.4916861
v -0.2608557 -2.566733 -0.4566296
v -0.2626304 -2.323803 -0.1750922
v -0.3639909 -2.424428 -0.2327638
v -0.3821977 -2.424428 -0.2012278
v -0.2815723 -2.323803 -0.142284
v -0.5878455 -2.21878 2.27861E-05
v -0.4828222 -2.525053 0.1423296
v -0.5245026 -2.566733 2.27861E-05
v -0.3821973 -2.424428 0.2012734
v -0.2815719 -2.323803 0.1423296
v 0.3695755 -3.194407 0.2328094
v 0.268215 -3.295032 0.1751378
v 0.2981118 -3.400054 0.511529
v 0.1223599 -3.093781 0.4917316
v 0.2664403 -3.052101 0.4566752
v 0.02099985 -3.194407 0.43406
v 0.02173498 -3.295032 0.3174407
v -0.1185495 -3.336712 0.2101942
v -0.2626299 -3.295032 0.1751378
v -0.2925263 -3.400055 0.511529
v -0.3632548 -3.093781 0.3494248
v -0.2608548 -3.052101 0.4566714
v -0.36399 -3.194407 0.2328094
v -0.2398911 -3.336712 2.27861E-05
v -0.2815714 -3.295032 -0.142284
v -0.5878446 -3.400055 2.27861E-05
v -0.3821964 -3.194407 -0.2012278
v -0.118549 -3.336712 -0.2101486
v -0.01614899 -3.295032 -0.317399
v -0.2925258 -3.400054 -0.5114834
v -0.2626295 -3.295032 -0.1750922
v -0.3639895 -3.194407 -0.2327638
v -0.1167744 -3.093781 -0.4916861
v -0.2608543 -3.052101 -0.4566296
v -0.01541387 -3.194407 -0.4340144
v 0.02173544 -3.295032 -0.3173952
v 0.124135 -3.336712 -0.2101486
v 0.2981122 -3.400054 -0.5114834
v 0.02100031 -3.194407 -0.4340144
v 0.3688404 -3.093781 -0.3493793
v 0.2664408 -3.052101 -0.4566296
v 0.369576 -3.194407 -0.2327638
v 0.2871574 -3.295032 -0.142284
v 0.2454771 -3.336712 2.27861E-05
v 0.5934306 -3.400055 2.27861E-05
v 0.3877828 -3.194407 -0.2012278
v 0.4884072 -3.093781 0.1423296
v 0.5300876 -3.052101 2.27861E-05
v 0.3877823 -3.194407 0.2012734
v 0.3063056 -3.060856 -0.5256791
v 0.002792083 -3.060856 -0.6070027
v 0.3313127 -2.809417 -0.5689917
v -0.300721 -3.060856 -0.5256791
v 0.002792083 -2.809417 -0.6570182
v 0.3063056 -2.557979 -0.5256791
v -0.3257281 -2.809417 -0.5689917
v 0.002792083 -2.557979 -0.6070027
v -0.300721 -2.557979 -0.5256791
v 0.002792083 -2.34482 -0.4645744
v -0.2295066 -2.34482 -0.4023304
v 0.2350912 -2.34482 -0.4023304
v 0.4051457 -2.34482 -0.2322777
v 0.5284925 -2.557979 -0.3034919
v 0.6098186 -2.557979 2.27861E-05
v 0.5718061 -2.809417 -0.3284958
v 0.659833 -2.809417 2.27861E-05
v 0.4051457 -3.274015 -0.2322777
v 0.5284925 -3.060856 -0.3034919
v 0.6098186 -3.060856 2.27861E-05
v 0.4673903 -3.274015 2.27861E-05
v 0.5284925 -3.060856 0.3035374
v 0.4051457 -3.274015 0.2323233
v 0.3063056 -3.060856 0.5257247
v 0.2350912 -3.274015 0.4023759
v 0.5284925 -2.557979 0.3035374
v 0.3063056 -2.557979 0.5257247
v 0.5718061 -2.809417 0.3285452
v 0.3313127 -2.809417 0.5690373
v 0.002792083 -3.060856 0.6070483
v 0.002792083 -2.809417 0.6570638
v 0.002792083 -2.557979 0.6070483
v -0.300721 -2.557979 0.5257247
v -0.3257281 -2.809417 0.5690373
v 0.002792083 -3.274015 0.46462
v -0.229507 -3.274015 0.4023759
v -0.300721 -3.060856 0.5257247
v -0.3995615 -2.34482 0.2323233
v -0.5229084 -2.557979 0.3035374
v -0.566222 -2.809417 0.3285452
v -0.5229084 -3.060856 0.3035374
v -0.6042345 -2.557979 2.27861E-05
v -0.6542488 -2.809417 2.27861E-05
v -0.3995615 -3.274015 0.2323233
v -0.6042345 -3.060856 2.27861E-05
v -0.4618057 -2.34482 2.27861E-05
v -0.3995615 -2.34482 -0.2322777
v -0.5229084 -2.557979 -0.3034919
v -0.5229084 -3.060856 -0.3034919
v -0.566222 -2.809417 -0.3284958
v 0.002792083 -2.608167 0.5324808
v 0.002792083 -3.010668 0.5324808
v 0.5350659 -2.667112 0.1430094
v 0.3927606 -2.951722 0.3894904
v 0.463913 -2.608167 -0.2662062
v 0.1450973 -2.667112 -0.5324352
v 0.002792083 -3.010668 -0.5324352
v -0.4583289 -2.608167 -0.2662062
v -0.5294817 -2.951722 -0.1429638
v -0.3871756 -2.951722 0.3894904
v -0.11855 -2.282123 0.2101942
v -0.01614991 -2.323803 0.3174407
v -0.2925263 -2.21878 0.511529
v -0.01541479 -2.424428 0.43406
v -0.2626299 -2.323803 0.1751378
v -0.36399 -2.424428 0.2328094
v -0.3632548 -2.525053 0.3494248
v -0.2608553 -2.566733 0.4566752
v -0.1167748 -2.525053 0.4917316
v 0.3688399 -2.525053 0.3494248
v 0.4884068 -2.525053 -0.142284
v 0.02173406 -2.323803 -0.3173952
v 0.02099894 -2.424428 -0.4340144
v 0.122359 -2.525053 -0.4916861
v -0.1185504 -2.282123 -0.2101486
v -0.3632557 -2.525053 -0.3493793
v -0.239892 -2.282123 2.27861E-05
v -0.4828227 -2.525053 -0.1422802
v 0.124135 -3.336712 0.2101942
v 0.3688404 -3.093781 0.3494248
v -0.01614991 -3.295032 0.3174407
v -0.01541479 -3.194407 0.43406
v -0.1167748 -3.093781 0.4917278
v -0.2815714 -3.295032 0.1423258
v -0.3821964 -3.194407 0.2012734
v -0.4828217 -3.093781 0.1423258
v -0.5245017 -3.052101 2.27861E-05
v -0.4828217 -3.093781 -0.142284
v -0.3632543 -3.093781 -0.3493793
v 0.2682154 -3.295032 -0.1750922
v 0.1223604 -3.093781 -0.4916861
v 0.2871574 -3.295032 0.1423296
v 0.4884077 -3.093781 -0.1422802
v 1.686705E-05 -2.125851 -0.02828894
v -0.05554868 -2.082242 -0.07187115
v -0.05553766 -2.052419 1.519073E-05
v 1.686705E-05 -2.114117 1.519073E-05
v -0.05554868 -2.082242 0.07189774
v 1.642201E-05 -2.125851 0.02831553
v 1.686705E-05 -2.046551 0.107558
v 1.686705E-05 -2.002013 1.519073E-05
v 1.686705E-05 -2.046551 -0.1075314
v 0.05557095 -2.052419 1.519073E-05
v 0.05558196 -2.082242 0.07189774
v 0.05558196 -2.082242 -0.07187115
v 1.686705E-05 -2.148266 -0.151558
v 0.05592635 -2.153052 -0.09886509
v 0.05597272 -2.229329 -0.09816252
v 1.686705E-05 -2.229188 -0.1517402
v -0.05589305 -2.153052 -0.09886509
v -0.05593942 -2.229329 -0.09816252
v 1.686705E-05 -2.161048 -0.04074155
v 1.686705E-05 -2.229472 -0.0404985
v 1.686705E-05 -2.161048 0.04077193
v 0.05592635 -2.153052 0.09889168
v 0.05597272 -2.229329 0.0981929
v 1.686705E-05 -2.229472 0.04052508
v 1.642201E-05 -2.148266 0.1515845
v 1.686705E-05 -2.229188 0.1517706
v -0.05589305 -2.153052 0.09889168
v -0.05593942 -2.229329 0.0981929

vt 0.716075 0.188723
vt 0.716075 0.188331
vt 0.715879 0.188331
vt 0.715879 0.188723
vt 0.717444 0.188723
vt 0.717444 0.188331
vt 0.717444 0.18794
vt 0.716075 0.18794
vt 0.715879 0.18794
vt 0.716075 0.187157
vt 0.715879 0.187157
vt 0.717053 0.187157
vt 0.735039 0.191453
vt 0.735002 0.191563
vt 0.735517 0.191563
vt 0.735627 0.191453
vt 0.735076 0.192225
vt 0.735517 0.192225
vt 0.714754 0.220252
vt 0.715015 0.220883
vt 0.706879 0.334219
vt 0.715015 0.219622
vt 0.716537 0.220252
vt 0.716276 0.219622
vt 0.716276 0.220883
vt 0.715646 0.221144
vt 0.715646 0.219361

vn -0.7178112 -0.6962368 0.001168677
vn 0.025748 0.02869608 -0.9992566
vn 4.382808E-08 0.03765818 -0.9992907
vn -1.990856E-06 -1 2.28834E-07
vn -0.0195684 0.02920797 -0.9993818
vn 0.7178105 -0.6962375 -0.001167758
vn 8.910313E-07 1 -1.272902E-07
vn -0.7047107 0.7094898 0.002665163
vn 0.7047112 0.7094893 -0.002665439
vn -3.944527E-07 0.03765794 0.9992907
vn -0.02574802 0.02869613 0.9992566
vn 0.01956921 0.02920791 0.9993818
vn 0.9797725 0.2000956 -0.002771818
vn 0.01971768 0.006602819 0.9997838
vn 0.02362345 -0.01097316 0.9996607
vn 0.9797717 -0.2000989 0.002772418
vn 0.7047093 -0.7094912 0.002666134
vn 0.02574871 -0.02869792 0.9992564
vn 0.02362399 0.01097274 -0.9996607
vn 0.01971699 -0.006602231 -0.9997838
vn 0.01956923 -0.02920916 -0.9993817
vn -0.7178115 0.6962366 -0.001168401
vn -0.9832349 0.182341 -0.001001081
vn -0.9832354 -0.1823378 0.001001104
vn -5.588107E-07 -0.037662 -0.9992905
vn 0.7178115 0.6962365 0.001168516
vn -0.02574729 -0.02869743 -0.9992565
vn -0.7047095 -0.7094909 -0.002665801
vn 8.984795E-07 -0.03766187 0.9992905
vn -0.0195688 -0.02920805 0.9993818
vn -0.02362241 -0.01097289 -0.9996607
vn -0.9797724 -0.2000959 -0.002771964
vn -0.9797722 0.2000969 0.002770371
vn -0.01971433 0.006601769 -0.9997838
vn -0.01971712 -0.006602137 0.9997838
vn -0.02362408 0.01097298 0.9996607
vn 0.9832352 0.1823388 0.001001556
vn 0.9832351 -0.1823393 -0.0009992213
vn -0.001173327 -0.6962283 -0.7178195
vn 0.999256 0.02870577 0.0257547
vn 0.9992905 0.03766209 -1.380586E-06
vn 0.9993817 0.02921539 -0.01956229
vn 0.001172358 -0.6962226 0.717825
vn -0.002664021 0.7094951 -0.7047054
vn 0.002669103 0.7094951 0.7047054
vn -0.9992905 0.03766213 1.39155E-06
vn -0.999256 0.02870579 -0.0257547
vn -0.9993815 0.02921341 0.01957181
vn 0.002775934 0.2001064 0.9797703
vn -0.9997836 0.006608215 0.01972691
vn -0.9996603 -0.01097704 0.02363812
vn -0.002771321 -0.2001063 0.9797702
vn -0.002664406 -0.7094968 0.7047036
vn -0.9992561 -0.02870546 0.02575395
vn 0.9996603 0.01097702 0.02363861
vn 0.9997836 -0.006608063 0.01972615
vn 0.9993816 -0.02921237 0.01957194
vn 0.00117737 0.6962312 -0.7178166
vn 0.00100897 0.1823285 -0.9832371
vn -0.001004 -0.1823294 -0.983237
vn 0.9992905 -0.03766269 -4.382818E-08
vn -0.001172202 0.6962312 0.7178166
vn 0.9992561 -0.0287055 -0.0257539
vn 0.002669488 -0.7094968 -0.7047036
vn -0.9992905 -0.03766265 2.19142E-08
vn -0.9993816 -0.02921234 -0.01957193
vn 0.9996604 -0.01098025 -0.02363255
vn 0.002776143 -0.2001063 -0.9797702
vn -0.002760167 0.2001044 -0.9797707
vn 0.9997842 0.006600229 -0.01969822
vn -0.9997836 -0.006608052 -0.01972618
vn -0.9996603 0.01097703 -0.02363864
vn -0.001009009 0.1823242 0.9832379
vn 0.0009903664 -0.1823292 0.983237
vn -0.3818027 -0.9242438 2.751626E-07
vn -0.3829643 -0.8969121 0.221104
vn -0.1908996 -0.924244 0.3306515
vn -6.51887E-07 -0.8969117 0.4422096
vn 0.1909005 -0.924244 0.330651
vn 0.3829639 -0.896912 0.221105
vn 0.3818024 -0.9242439 -1.261162E-07
vn 0.382964 -0.8969122 -0.2211041
vn 0.1908996 -0.924244 -0.3306515
vn 6.569798E-07 -0.8969117 -0.4422096
vn 0.3530841 -0.7080408 -0.6115634
vn -6.030318E-07 -0.7080398 -0.7061725
vn -0.1909006 -0.9242439 -0.3306511
vn -0.3530832 -0.7080406 -0.6115642
vn -0.3829639 -0.896912 -0.2211052
vn -0.6115624 -0.7080405 -0.3530867
vn -0.7061731 -0.7080392 6.184941E-08
vn -0.3829632 0.8969124 0.2211046
vn -0.3818015 0.9242443 -2.828061E-07
vn 6.517586E-09 0.9995965 0.02840476
vn -0.1908998 0.9242445 0.3306499
vn -4.754673E-07 0.7080398 0.7061726
vn -0.3530834 0.7080406 0.6115641
vn 4.987321E-07 0.9242443 0.3818016
vn 0.3530841 0.7080408 0.6115634
vn 0.1908989 0.9242445 0.3306503
vn 0.6115628 0.7080396 0.3530873
vn 0.3829634 0.8969126 0.2211037
vn 0.7061732 0.7080391 1.352956E-07
vn 0.3818011 0.9242445 1.184728E-07
vn 0.3829632 0.8969125 -0.2211046
vn 0.1908998 0.9242445 -0.3306499
vn -7.028158E-07 0.8969121 -0.4422089
vn -0.1908989 0.9242445 -0.3306505
vn -0.3829635 0.8969125 -0.2211036
vn -0.8223169 -7.713505E-07 0.5690298
vn -0.5814664 0.5814645 0.5690307
vn -4.979581E-07 -5.117903E-07 1
vn -0.5814671 -0.5814647 0.5690297
vn 0.8223163 -7.556092E-07 0.5690306
vn 0.5814663 -0.5814655 0.5690297
vn 0.5814656 0.5814653 0.5690306
vn 0.2020632 0.5814645 0.7880796
vn 0.4927952 0.8223152 0.2845185
vn 0.8660256 -4.564609E-07 0.4999996
vn 0.08163997 -7.713518E-07 0.9966619
vn 0.7835291 -0.5814625 -0.2190513
vn 0.4927948 -0.8223154 0.2845182
vn 0.903952 -7.398652E-07 -0.4276339
vn 0.903952 -7.398652E-07 0.4276339
vn 0.7835295 0.5814623 0.2190502
vn 0.8660255 -4.564609E-07 -0.4999999
vn 0.7835291 -0.5814625 0.2190513
vn 0.4927945 -0.8223155 -0.2845186
vn 0.2020617 -0.5814646 -0.78808
vn 0.08163996 -7.713518E-07 -0.9966619
vn 0.2020629 0.5814644 -0.7880798
vn 1.574185E-08 0.8223125 -0.5690361
vn -0.5814631 0.5814629 -0.5690356
vn 4.841214E-08 -4.702894E-07 -1
vn 0.5814639 -0.5814631 -0.5690346
vn 0.8223129 -7.713506E-07 -0.5690356
vn -0.8223128 -7.556088E-07 -0.5690356
vn -0.5814639 -0.5814631 -0.5690346
vn -0.08163997 -7.556099E-07 -0.9966619
vn -0.2020632 0.5814645 -0.7880796
vn -0.8660249 -4.910409E-07 -0.500001
vn -0.202062 -0.5814646 -0.7880798
vn -0.4927949 -0.8223154 -0.2845182
vn -0.7835281 0.5814651 0.2190479
vn -0.9039536 -7.713508E-07 0.4276307
vn -0.492793 0.8223167 0.2845176
vn -0.2020554 0.5814675 0.7880794
vn -0.8660231 -4.702955E-07 0.5000042
vn -0.7835279 0.5814658 -0.2190471
vn -0.9039541 -7.713513E-07 -0.4276295
vn -0.7835274 -0.581466 -0.2190482
vn -0.4927923 -0.8223171 0.2845178
vn -0.08162937 -8.815456E-07 0.9966628
vn -0.08954983 0.9838308 -0.1551059
vn 0.4991667 0.8135236 -0.2983488
vn 0.3535545 0.7071102 0.6123679
vn -0.5079579 0.8135265 0.2831137
vn -0.5109618 0.402373 0.7596143
vn -0.0967993 -0.008786042 0.9952652
vn 0.4919184 -0.1790942 0.8520221
vn 0.9133294 0.4023657 -0.06269988
vn -0.1790998 0.9838309 0
vn -0.008790141 0.8135244 -0.5814644
vn 0.7071068 0.7071068 -4.149637E-08
vn -0.008790181 0.8135245 0.5814643
vn 0.4023666 0.4023663 0.8223153
vn 0.8135241 -0.008790297 0.5814648
vn 0.9838309 -0.1790996 0
vn 0.4023666 0.4023663 -0.8223153
vn 0.4991666 0.8135237 0.2983488
vn -0.08954985 0.9838308 0.1551059
vn 0.3535544 0.7071102 -0.612368
vn 0.9133294 0.4023658 0.06269982
vn 0.9103264 -0.008790223 -0.4137979
vn 0.4919184 -0.1790941 -0.8520221
vn 0.5109618 0.402373 -0.7596143
vn 0.5079579 0.8135265 -0.2831137
vn -0.3535544 0.7071102 -0.6123679
vn 0.09679917 -0.008786035 -0.9952652
vn -0.4919184 -0.1790942 -0.8520221
vn -0.4991667 0.8135236 0.2983487
vn -0.9133294 0.4023656 0.06269972
vn -0.4023735 0.4023593 -0.8223154
vn 0.008790165 0.8135245 -0.5814643
vn -0.7071097 0.7071038 1.383215E-08
vn -0.8135238 -0.008791211 0.5814651
vn -0.9838307 -0.1791009 -2.676115E-06
vn -0.4023663 0.402366 0.8223156
vn 0.008790292 0.8135246 0.5814641
vn 0.9133294 -0.4023657 -0.0627003
vn 0.4991685 -0.8135223 -0.2983491
vn 0.3535546 -0.7071098 0.6123682
vn -0.09679951 0.008785909 0.9952651
vn 0.4919184 0.1790941 0.8520221
vn -0.5109621 -0.402373 0.7596142
vn -0.5079591 -0.8135253 0.2831151
vn 0.0895506 -0.9838307 -0.1551054
vn -0.499169 -0.8135219 -0.2983495
vn -0.3535553 -0.7071039 0.6123747
vn -0.9103235 0.008794293 0.413804
vn -0.4919105 0.1791029 0.8520248
vn -0.9133299 -0.4023645 -0.06269992
vn 0.1790997 -0.9838309 4.077145E-06
vn 0.00879042 -0.8135228 -0.5814666
vn -0.7071071 -0.7071065 1.134238E-06
vn -0.4023653 -0.402366 -0.8223161
vn 0.08954931 -0.983831 0.1551047
vn 0.5079578 -0.8135238 -0.2831217
vn -0.3535557 -0.7071068 -0.6123711
vn -0.4991689 -0.8135227 0.2983475
vn -0.9133302 -0.402364 0.06269877
vn 0.09679881 0.00878638 -0.9952652
vn -0.4919188 0.179094 -0.8520219
vn 0.5109592 -0.4023672 -0.7596192
vn -0.5079593 -0.813525 -0.2831156
vn -0.08954981 -0.983831 0.1551042
vn 0.3535548 -0.7071093 -0.6123687
vn -0.5109621 -0.402373 -0.7596142
vn 0.9103265 0.00879127 -0.4137975
vn 0.4919194 0.179094 -0.8520215
vn 0.9133299 -0.4023647 0.06269918
vn -0.008790506 -0.8135229 -0.5814665
vn -0.1790998 -0.9838309 -1.574185E-08
vn 0.7071101 -0.7071035 1.936503E-07
vn 0.4023729 -0.4023589 -0.8223158
vn 0.8135236 0.008791123 0.5814654
vn 0.9838308 0.1791006 -2.581664E-06
vn 0.4023659 -0.4023654 0.8223161
vn 0.4617633 -0.3835259 -0.7998016
vn 1.485508E-07 -0.3835272 -0.9235296
vn 0.5000007 -1.692643E-06 -0.866025
vn -0.4617619 -0.3835275 -0.7998016
vn 0.4617622 0.3835276 -0.7998014
vn -0.5000003 1.676934E-06 -0.8660252
vn -4.37834E-07 0.3835272 -0.9235296
vn -0.461763 0.3835259 -0.7998018
vn 3.208438E-07 0.7080399 -0.7061725
vn -0.3530839 0.7080407 -0.6115637
vn 0.3530833 0.7080408 -0.611564
vn 0.6115624 0.7080404 -0.3530867
vn 0.799802 0.3835237 -0.4617644
vn 0.9235303 0.3835254 -3.12739E-07
vn 1 4.280698E-07 -1.115338E-06
vn 0.6115628 -0.7080397 -0.3530874
vn 0.7998011 -0.383524 -0.4617656
vn 0.9235302 -0.3835258 -5.472931E-08
vn 0.7061732 -0.708039 -1.275645E-07
vn 0.7998007 -0.3835258 0.4617648
vn 0.6115624 -0.7080404 0.3530867
vn 0.4617621 -0.3835275 0.7998014
vn 0.3530833 -0.7080408 0.611564
vn 0.7998003 0.3835269 0.4617646
vn 0.4617621 0.383527 0.7998017
vn 0.8660253 -5.066149E-07 0.5000003
vn 0.499998 5.380325E-07 0.8660265
vn -4.691078E-07 -0.3835273 0.9235296
vn 2.228262E-07 0.3835272 0.9235296
vn -0.461762 0.3835273 0.7998016
vn -0.4999977 -5.223234E-07 0.8660268
vn 4.40677E-07 -0.7080399 0.7061725
vn -0.353084 -0.7080408 0.6115636
vn -0.4617619 -0.3835267 0.799802
vn -0.6115626 0.7080404 0.3530865
vn -0.7998005 0.3835261 0.4617649
vn -0.7998002 -0.383527 0.4617648
vn -0.9235299 0.3835263 7.818473E-08
vn -1 -4.241425E-07 -1.091774E-06
vn -0.6115629 -0.7080399 0.3530869
vn -0.9235301 -0.3835259 -4.300161E-07
vn -0.7061732 0.7080392 -5.025265E-08
vn -0.6115627 0.7080399 -0.3530872
vn -0.7998009 0.3835242 -0.4617659
vn -0.7998018 -0.383524 -0.4617645
vn -0.8660259 2.749068E-07 -0.4999991
vn 1.574185E-08 0.822316 0.5690312
vn 1.574187E-08 -0.8223162 0.5690308
vn 0.7835295 0.5814623 -0.2190502
vn 0.202062 -0.5814647 0.7880798
vn 0.492795 0.8223151 -0.2845188
vn 0.5814632 0.5814629 -0.5690356
vn 1.574186E-08 -0.8223128 -0.5690357
vn -0.4927953 0.822315 -0.2845183
vn -0.7835277 -0.5814654 0.219049
vn -0.2020538 -0.5814676 0.7880797
vn 0.08954997 0.9838307 -0.1551059
vn 0.5079584 0.8135263 0.2831134
vn -0.3535549 0.70711 0.6123679
vn 0.5109624 0.4023727 0.7596142
vn -0.4991676 0.8135233 -0.2983481
vn -0.9133298 0.4023649 -0.06269912
vn -0.9103268 -0.008789802 0.4137969
vn -0.4919194 -0.1790936 0.8520216
vn 0.09679943 -0.008786097 0.9952651
vn 0.9103264 -0.008790285 0.4137978
vn 0.813524 -0.008790265 -0.5814648
vn -0.5079579 0.8135265 -0.2831137
vn -0.5109619 0.4023729 -0.7596143
vn -0.09679918 -0.008786042 -0.9952652
vn 0.08954988 0.9838308 0.1551058
vn -0.9103263 -0.008790349 -0.4137979
vn 0.1790997 0.9838309 -2.833529E-07
vn -0.8135256 -0.008799 -0.5814626
vn -0.08954921 -0.983831 -0.1551047
vn 0.9103265 0.008790145 0.4137976
vn 0.5079607 -0.8135244 0.2831146
vn 0.510959 -0.4023641 0.759621
vn 0.09679471 0.008801214 0.9952654
vn 0.00879845 -0.8135235 0.5814654
vn -0.4023653 -0.402366 0.8223161
vn -0.8135248 0.00879849 0.5814635
vn -0.9838308 0.1791006 4.061396E-06
vn -0.8135241 0.00879046 -0.5814648
vn -0.9103264 0.008790301 -0.4137977
vn 0.4991681 -0.8135225 0.2983491
vn -0.09679938 0.008785916 -0.9952651
vn -0.008790412 -0.8135228 0.5814666
vn 0.8135253 0.008798867 -0.5814629
vn 0.002375837 -0.6886414 0.7250982
vn -0.998857 0.03653863 -0.03081698
vn -0.9989229 0.04640134 -0.0001414099
vn -0.9990608 0.03665388 0.02311095
vn -0.002367369 -0.6886494 -0.7250906
vn 0.00306568 0.710151 0.7040429
vn -0.003061488 0.7101557 -0.704038
vn 0.9989228 0.04640279 0.0001393934
vn 0.9988573 0.03652815 0.03081858
vn 0.9990608 0.03665083 -0.02311508
vn -0.002360967 0.2005923 -0.979672
vn 0.9996893 0.008807827 -0.02331807
vn 0.999786 0.00321358 -0.02043761
vn 0.001964084 -0.0004626764 -0.9999979
vn -0.9994831 0.01610071 -0.02782547
vn -0.9998132 -0.001121185 -0.01929744
vn 0.002525454 -0.1698041 0.9854746
vn 0.00102885 0.005125079 0.9999864
vn -0.002502936 -0.1698277 -0.9854706
vn 0.9994836 0.01609875 0.02781182
vn 0.9998132 -0.001094183 0.0192984
vn -0.001007788 0.005154185 -0.9999862
vn 0.002362233 0.2006157 0.9796672
vn -0.0019605 -0.0004163196 0.999998
vn -0.9996894 0.008806984 0.02331537
vn -0.9997857 0.003212333 0.02045244

usemtl Color
f 381/17/94 382/17/95 385/17/98
f 381/17/94 385/17/98 387/17/100
f 399/21/112 398/20/111 397/19/110
f 399/21/112 397/19/110 400/22/113
f 399/21/112 402/24/115 401/23/114
f 399/21/112 401/23/114 403/25/116
f 406/21/119 405/26/118 404/20/117
f 406/21/119 404/20/117 407/19/120
f 406/21/119 409/27/122 408/24/121
f 406/21/119 408/24/121 410/23/123
f 413/21/126 412/20/125 411/19/124
f 413/21/126 411/19/124 414/22/127
f 413/21/126 414/22/127 415/27/128
f 413/21/126 415/27/128 416/24/129
f 413/21/126 416/24/129 417/23/130
f 413/21/126 417/23/130 418/25/131
f 421/21/134 420/25/133 419/26/132
f 421/21/134 423/19/136 422/22/135
f 421/21/134 425/24/138 424/23/137
f 421/21/134 424/23/137 420/25/133
f 428/21/141 427/20/140 426/19/139
f 428/21/141 426/19/139 429/22/142
f 428/21/141 429/22/142 430/27/143
f 428/21/141 432/23/145 431/25/144
f 435/21/148 434/25/147 433/26/146
f 435/21/148 433/26/146 436/20/149
f 435/21/148 436/20/149 437/19/150
f 435/21/148 437/19/150 438/22/151
f 435/21/148 438/22/151 439/27/152
f 435/21/148 440/23/153 434/25/147
f 443/21/156 442/25/155 441/26/154
f 443/21/156 441/26/154 444/20/157
f 443/21/156 444/20/157 445/19/158
f 443/21/156 445/19/158 446/22/159
f 443/21/156 446/22/159 447/27/160
f 443/21/156 448/23/161 442/25/155
f 451/21/164 450/25/163 449/26/162
f 451/21/164 449/26/162 452/20/165
f 451/21/164 452/20/165 453/19/166
f 451/21/164 453/19/166 454/22/167
f 451/21/164 454/22/167 455/27/168
f 451/21/164 456/23/169 450/25/163
f 459/21/172 458/26/171 457/20/170
f 459/21/172 457/20/170 460/19/173
f 459/21/172 460/19/173 461/22/174
f 459/21/172 461/22/174 462/27/175
f 465/21/178 464/20/177 463/19/176
f 465/21/178 463/19/176 466/22/179
f 465/21/178 466/22/179 467/27/180
f 465/21/178 469/23/182 468/25/181
f 472/21/185 471/20/184 470/19/183
f 472/21/185 474/27/187 473/24/186
f 472/21/185 473/24/186 475/23/188
f 472/21/185 475/23/188 476/25/189
f 479/21/192 478/20/191 477/19/190
f 479/21/192 481/27/194 480/24/193
f 479/21/192 480/24/193 482/23/195
f 479/21/192 482/23/195 483/25/196
f 486/21/199 485/25/198 484/26/197
f 486/21/199 488/27/201 487/24/200
f 486/21/199 487/24/200 489/23/202
f 486/21/199 489/23/202 485/25/198
f 492/21/205 491/25/204 490/26/203
f 492/21/205 493/23/206 491/25/204
f 496/21/209 495/25/208 494/26/207
f 496/21/209 494/26/207 497/20/210
f 496/21/209 497/20/210 498/19/211
f 496/21/209 500/27/213 499/24/212
f 496/21/209 499/24/212 501/23/214
f 496/21/209 501/23/214 495/25/208
f 504/21/217 503/26/216 502/20/215
f 504/21/217 502/20/215 505/19/218
f 504/21/217 507/27/220 506/24/219
f 504/21/217 506/24/219 508/23/221
f 511/21/224 510/26/223 509/20/222
f 511/21/224 509/20/222 512/19/225
f 511/21/224 514/27/227 513/24/226
f 511/21/224 513/24/226 515/23/228
f 399/21/112 403/25/116 566/26/275
f 399/21/112 566/26/275 398/20/111
f 399/21/112 400/22/113 567/27/276
f 399/21/112 567/27/276 402/24/115
f 406/21/119 568/25/277 405/26/118
f 406/21/119 410/23/123 568/25/277
f 406/21/119 407/19/120 569/22/278
f 406/21/119 569/22/278 409/27/122
f 413/21/126 418/25/131 570/26/279
f 413/21/126 570/26/279 412/20/125
f 421/21/134 419/26/132 571/20/280
f 421/21/134 571/20/280 423/19/136
f 421/21/134 422/22/135 572/27/281
f 421/21/134 572/27/281 425/24/138
f 428/21/141 431/25/144 573/26/282
f 428/21/141 573/26/282 427/20/140
f 428/21/141 430/27/143 574/24/283
f 428/21/141 574/24/283 432/23/145
f 435/21/148 439/27/152 575/24/284
f 435/21/148 575/24/284 440/23/153
f 578/21/287 577/25/286 576/26/285
f 578/21/287 579/23/288 577/25/286
f 578/21/287 576/26/285 580/20/289
f 578/21/287 580/20/289 581/19/290
f 578/21/287 581/19/290 582/22/291
f 578/21/287 582/22/291 583/27/292
f 578/21/287 583/27/292 584/24/293
f 578/21/287 584/24/293 579/23/288
f 443/21/156 447/27/160 585/24/294
f 443/21/156 585/24/294 448/23/161
f 451/21/164 455/27/168 586/24/295
f 451/21/164 586/24/295 456/23/169
f 459/21/172 587/25/296 458/26/171
f 459/21/172 588/23/297 587/25/296
f 459/21/172 462/27/175 589/24/298
f 459/21/172 589/24/298 588/23/297
f 465/21/178 468/25/181 590/26/299
f 465/21/178 590/26/299 464/20/177
f 465/21/178 467/27/180 591/24/300
f 465/21/178 591/24/300 469/23/182
f 472/21/185 476/25/189 592/26/301
f 472/21/185 592/26/301 471/20/184
f 472/21/185 470/19/183 593/22/302
f 472/21/185 593/22/302 474/27/187
f 479/21/192 483/25/196 594/26/303
f 479/21/192 594/26/303 478/20/191
f 479/21/192 477/19/190 595/22/304
f 479/21/192 595/22/304 481/27/194
f 486/21/199 484/26/197 596/20/305
f 486/21/199 596/20/305 597/19/306
f 486/21/199 597/19/306 598/22/307
f 486/21/199 598/22/307 488/27/201
f 492/21/205 490/26/203 599/20/308
f 492/21/205 599/20/308 600/19/309
f 492/21/205 600/19/309 601/22/310
f 492/21/205 601/22/310 602/27/311
f 492/21/205 602/27/311 603/24/312
f 492/21/205 603/24/312 493/23/206
f 496/21/209 498/19/211 604/22/313
f 496/21/209 604/22/313 500/27/213
f 504/21/217 605/25/314 503/26/216
f 504/21/217 508/23/221 605/25/314
f 504/21/217 505/19/218 606/22/315
f 504/21/217 606/22/315 507/27/220
f 511/21/224 607/25/316 510/26/223
f 511/21/224 515/23/228 607/25/316
f 511/21/224 512/19/225 608/22/317
f 511/21/224 608/22/317 514/27/227
f 3/3/3 2/2/2 1/1/1
f 1/1/1 4/4/4 3/3/3
f 5/6/5 3/6/3 4/5/4
f 4/5/4 6/5/6 5/6/5
f 8/7/8 7/7/7 3/6/3
f 3/6/3 5/6/5 8/7/8
f 7/9/7 9/8/9 2/2/2
f 2/2/2 3/3/3 7/9/7
f 11/7/11 10/7/10 7/7/7
f 7/7/7 8/7/8 11/7/11
f 10/9/10 12/8/12 9/8/9
f 9/8/9 7/9/7 10/9/10
f 13/8/13 9/8/9 12/8/12
f 12/8/12 14/8/14 13/8/13
f 13/8/13 14/8/14 15/7/15
f 15/7/15 16/7/16 13/8/13
f 17/7/17 16/7/16 15/7/15
f 15/7/15 18/7/18 17/7/17
f 19/2/19 2/2/2 9/8/9
f 9/8/9 13/8/13 19/2/19
f 19/2/19 13/8/13 16/7/16
f 16/7/16 20/6/20 19/2/19
f 21/6/21 20/6/20 16/7/16
f 16/7/16 17/7/17 21/6/21
f 20/6/20 21/6/21 22/5/22
f 22/5/22 23/5/23 20/6/20
f 20/6/20 23/5/23 24/1/24
f 24/1/24 19/2/19 20/6/20
f 2/2/2 19/2/19 24/1/24
f 24/1/24 1/1/1 2/2/2
f 21/6/21 26/6/25 25/5/7
f 25/5/7 22/5/22 21/6/21
f 17/7/17 27/7/4 26/6/25
f 26/6/25 21/6/21 17/7/17
f 26/3/25 29/2/27 28/1/26
f 28/1/26 25/4/7 26/3/25
f 27/9/4 30/8/28 29/2/27
f 29/2/27 26/3/25 27/9/4
f 18/7/18 31/7/29 27/7/4
f 27/7/4 17/7/17 18/7/18
f 31/9/29 32/8/30 30/8/28
f 30/8/28 27/9/4 31/9/29
f 33/2/31 29/2/27 30/8/28
f 30/8/28 34/8/32 33/2/31
f 33/2/31 34/8/32 35/7/33
f 35/7/33 36/6/34 33/2/31
f 5/6/5 36/6/34 35/7/33
f 35/7/33 8/7/8 5/6/5
f 34/8/32 30/8/28 32/8/30
f 32/8/30 37/8/35 34/8/32
f 34/8/32 37/8/35 38/7/36
f 38/7/36 35/7/33 34/8/32
f 8/7/8 35/7/33 38/7/36
f 38/7/36 11/7/11 8/7/8
f 25/11/7 28/10/26 32/8/30
f 32/8/30 31/9/29 25/11/7
f 37/8/35 32/8/30 28/10/26
f 28/10/26 39/10/37 37/8/35
f 37/8/35 39/10/37 40/12/38
f 40/12/38 38/7/36 37/8/35
f 11/7/11 38/7/36 40/12/38
f 40/12/38 6/12/6 11/7/11
f 36/6/34 5/6/5 6/5/6
f 6/5/6 40/5/38 36/6/34
f 36/6/34 40/5/38 39/1/37
f 39/1/37 33/2/31 36/6/34
f 29/2/27 33/2/31 39/1/37
f 39/1/37 28/1/26 29/2/27
f 6/12/6 4/12/4 10/7/10
f 10/7/10 11/7/11 6/12/6
f 22/12/22 25/12/7 31/7/29
f 31/7/29 18/7/18 22/12/22
f 23/12/23 22/12/22 18/7/18
f 18/7/18 15/7/15 23/12/23
f 23/12/23 15/7/15 14/8/14
f 14/8/14 24/10/24 23/12/23
f 1/10/1 24/10/24 14/8/14
f 14/8/14 12/8/12 1/10/1
f 4/11/4 1/10/1 12/8/12
f 12/8/12 10/9/10 4/11/4
f 43/3/41 42/2/40 41/1/39
f 41/1/39 44/4/4 43/3/41
f 45/6/42 43/6/41 44/5/4
f 44/5/4 46/5/43 45/6/42
f 48/7/44 47/7/7 43/6/41
f 43/6/41 45/6/42 48/7/44
f 47/9/7 49/8/45 42/2/40
f 42/2/40 43/3/41 47/9/7
f 51/7/47 50/7/46 47/7/7
f 47/7/7 48/7/44 51/7/47
f 50/9/46 52/8/48 49/8/45
f 49/8/45 47/9/7 50/9/46
f 53/8/49 49/8/45 52/8/48
f 52/8/48 54/8/50 53/8/49
f 53/8/49 54/8/50 55/7/51
f 55/7/51 56/7/52 53/8/49
f 57/7/53 56/7/52 55/7/51
f 55/7/51 58/7/54 57/7/53
f 59/2/55 42/2/40 49/8/45
f 49/8/45 53/8/49 59/2/55
f 59/2/55 53/8/49 56/7/52
f 56/7/52 60/6/56 59/2/55
f 61/6/57 60/6/56 56/7/52
f 56/7/52 57/7/53 61/6/57
f 60/6/56 61/6/57 62/5/58
f 62/5/58 63/5/59 60/6/56
f 60/6/56 63/5/59 64/1/60
f 64/1/60 59/2/55 60/6/56
f 42/2/40 59/2/55 64/1/60
f 64/1/60 41/1/39 42/2/40
f 61/6/57 66/6/61 65/5/7
f 65/5/7 62/5/58 61/6/57
f 57/7/53 67/7/4 66/6/61
f 66/6/61 61/6/57 57/7/53
f 66/3/61 69/2/63 68/1/62
f 68/1/62 65/4/7 66/3/61
f 67/9/4 70/8/64 69/2/63
f 69/2/63 66/3/61 67/9/4
f 58/7/54 71/7/65 67/7/4
f 67/7/4 57/7/53 58/7/54
f 71/9/65 72/8/66 70/8/64
f 70/8/64 67/9/4 71/9/65
f 73/2/67 69/2/63 70/8/64
f 70/8/64 74/8/68 73/2/67
f 73/2/67 74/8/68 75/7/69
f 75/7/69 76/6/70 73/2/67
f 45/6/42 76/6/70 75/7/69
f 75/7/69 48/7/44 45/6/42
f 74/8/68 70/8/64 72/8/66
f 72/8/66 77/8/71 74/8/68
f 74/8/68 77/8/71 78/7/72
f 78/7/72 75/7/69 74/8/68
f 48/7/44 75/7/69 78/7/72
f 78/7/72 51/7/47 48/7/44
f 65/11/7 68/10/62 72/8/66
f 72/8/66 71/9/65 65/11/7
f 77/8/71 72/8/66 68/10/62
f 68/10/62 79/10/73 77/8/71
f 77/8/71 79/10/73 80/12/74
f 80/12/74 78/7/72 77/8/71
f 51/7/47 78/7/72 80/12/74
f 80/12/74 46/12/43 51/7/47
f 76/6/70 45/6/42 46/5/43
f 46/5/43 80/5/74 76/6/70
f 76/6/70 80/5/74 79/1/73
f 79/1/73 73/2/67 76/6/70
f 69/2/63 73/2/67 79/1/73
f 79/1/73 68/1/62 69/2/63
f 46/12/43 44/12/4 50/7/46
f 50/7/46 51/7/47 46/12/43
f 62/12/58 65/12/7 71/7/65
f 71/7/65 58/7/54 62/12/58
f 63/12/59 62/12/58 58/7/54
f 58/7/54 55/7/51 63/12/59
f 63/12/59 55/7/51 54/8/50
f 54/8/50 64/10/60 63/12/59
f 41/10/39 64/10/60 54/8/50
f 54/8/50 52/8/48 41/10/39
f 44/11/4 41/10/39 52/8/48
f 52/8/48 50/9/46 44/11/4
f 83/3/3 82/2/2 81/1/1
f 81/1/1 84/4/4 83/3/3
f 85/6/5 83/6/3 84/5/4
f 84/5/4 86/5/6 85/6/5
f 88/7/8 87/7/7 83/6/3
f 83/6/3 85/6/5 88/7/8
f 87/9/7 89/8/9 82/2/2
f 82/2/2 83/3/3 87/9/7
f 91/7/11 90/7/10 87/7/7
f 87/7/7 88/7/8 91/7/11
f 90/9/10 92/8/12 89/8/9
f 89/8/9 87/9/7 90/9/10
f 93/8/13 89/8/9 92/8/12
f 92/8/12 94/8/14 93/8/13
f 93/8/13 94/8/14 95/7/15
f 95/7/15 96/7/16 93/8/13
f 97/7/17 96/7/16 95/7/15
f 95/7/15 98/7/18 97/7/17
f 99/2/19 82/2/2 89/8/9
f 89/8/9 93/8/13 99/2/19
f 99/2/19 93/8/13 96/7/16
f 96/7/16 100/6/20 99/2/19
f 101/6/21 100/6/20 96/7/16
f 96/7/16 97/7/17 101/6/21
f 100/6/20 101/6/21 102/5/22
f 102/5/22 103/5/23 100/6/20
f 100/6/20 103/5/23 104/1/24
f 104/1/24 99/2/19 100/6/20
f 82/2/2 99/2/19 104/1/24
f 104/1/24 81/1/1 82/2/2
f 101/6/21 106/6/25 105/5/7
f 105/5/7 102/5/22 101/6/21
f 97/7/17 107/7/4 106/6/25
f 106/6/25 101/6/21 97/7/17
f 106/3/25 109/2/27 108/1/26
f 108/1/26 105/4/7 106/3/25
f 107/9/4 110/8/28 109/2/27
f 109/2/27 106/3/25 107/9/4
f 98/7/18 111/7/29 107/7/4
f 107/7/4 97/7/17 98/7/18
f 111/9/29 112/8/30 110/8/28
f 110/8/28 107/9/4 111/9/29
f 113/2/31 109/2/27 110/8/28
f 110/8/28 114/8/32 113/2/31
f 113/2/31 114/8/32 115/7/33
f 115/7/33 116/6/34 113/2/31
f 85/6/5 116/6/34 115/7/33
f 115/7/33 88/7/8 85/6/5
f 114/8/32 110/8/28 112/8/30
f 112/8/30 117/8/35 114/8/32
f 114/8/32 117/8/35 118/7/36
f 118/7/36 115/7/33 114/8/32
f 88/7/8 115/7/33 118/7/36
f 118/7/36 91/7/11 88/7/8
f 105/11/7 108/10/26 112/8/30
f 112/8/30 111/9/29 105/11/7
f 117/8/35 112/8/30 108/10/26
f 108/10/26 119/10/37 117/8/35
f 117/8/35 119/10/37 120/12/38
f 120/12/38 118/7/36 117/8/35
f 91/7/11 118/7/36 120/12/38
f 120/12/38 86/12/6 91/7/11
f 116/6/34 85/6/5 86/5/6
f 86/5/6 120/5/38 116/6/34
f 116/6/34 120/5/38 119/1/37
f 119/1/37 113/2/31 116/6/34
f 109/2/27 113/2/31 119/1/37
f 119/1/37 108/1/26 109/2/27
f 86/12/6 84/12/4 90/7/10
f 90/7/10 91/7/11 86/12/6
f 102/12/22 105/12/7 111/7/29
f 111/7/29 98/7/18 102/12/22
f 103/12/23 102/12/22 98/7/18
f 98/7/18 95/7/15 103/12/23
f 103/12/23 95/7/15 94/8/14
f 94/8/14 104/10/24 103/12/23
f 81/10/1 104/10/24 94/8/14
f 94/8/14 92/8/12 81/10/1
f 84/11/4 81/10/1 92/8/12
f 92/8/12 90/9/10 84/11/4
f 123/3/41 122/2/40 121/1/39
f 121/1/39 124/4/4 123/3/41
f 125/6/42 123/6/41 124/5/4
f 124/5/4 126/5/43 125/6/42
f 128/7/44 127/7/7 123/6/41
f 123/6/41 125/6/42 128/7/44
f 127/9/7 129/8/45 122/2/40
f 122/2/40 123/3/41 127/9/7
f 131/7/47 130/7/46 127/7/7
f 127/7/7 128/7/44 131/7/47
f 130/9/46 132/8/48 129/8/45
f 129/8/45 127/9/7 130/9/46
f 133/8/49 129/8/45 132/8/48
f 132/8/48 134/8/50 133/8/49
f 133/8/49 134/8/50 135/7/51
f 135/7/51 136/7/52 133/8/49
f 137/7/53 136/7/52 135/7/51
f 135/7/51 138/7/54 137/7/53
f 139/2/55 122/2/40 129/8/45
f 129/8/45 133/8/49 139/2/55
f 139/2/55 133/8/49 136/7/52
f 136/7/52 140/6/56 139/2/55
f 141/6/57 140/6/56 136/7/52
f 136/7/52 137/7/53 141/6/57
f 140/6/56 141/6/57 142/5/58
f 142/5/58 143/5/59 140/6/56
f 140/6/56 143/5/59 144/1/60
f 144/1/60 139/2/55 140/6/56
f 122/2/40 139/2/55 144/1/60
f 144/1/60 121/1/39 122/2/40
f 141/6/57 146/6/61 145/5/7
f 145/5/7 142/5/58 141/6/57
f 137/7/53 147/7/4 146/6/61
f 146/6/61 141/6/57 137/7/53
f 146/3/61 149/2/63 148/1/62
f 148/1/62 145/4/7 146/3/61
f 147/9/4 150/8/64 149/2/63
f 149/2/63 146/3/61 147/9/4
f 138/7/54 151/7/65 147/7/4
f 147/7/4 137/7/53 138/7/54
f 151/9/65 152/8/66 150/8/64
f 150/8/64 147/9/4 151/9/65
f 153/2/67 149/2/63 150/8/64
f 150/8/64 154/8/68 153/2/67
f 153/2/67 154/8/68 155/7/69
f 155/7/69 156/6/70 153/2/67
f 125/6/42 156/6/70 155/7/69
f 155/7/69 128/7/44 125/6/42
f 154/8/68 150/8/64 152/8/66
f 152/8/66 157/8/71 154/8/68
f 154/8/68 157/8/71 158/7/72
f 158/7/72 155/7/69 154/8/68
f 128/7/44 155/7/69 158/7/72
f 158/7/72 131/7/47 128/7/44
f 145/11/7 148/10/62 152/8/66
f 152/8/66 151/9/65 145/11/7
f 157/8/71 152/8/66 148/10/62
f 148/10/62 159/10/73 157/8/71
f 157/8/71 159/10/73 160/12/74
f 160/12/74 158/7/72 157/8/71
f 131/7/47 158/7/72 160/12/74
f 160/12/74 126/12/43 131/7/47
f 156/6/70 125/6/42 126/5/43
f 126/5/43 160/5/74 156/6/70
f 156/6/70 160/5/74 159/1/73
f 159/1/73 153/2/67 156/6/70
f 149/2/63 153/2/67 159/1/73
f 159/1/73 148/1/62 149/2/63
f 126/12/43 124/12/4 130/7/46
f 130/7/46 131/7/47 126/12/43
f 142/12/58 145/12/7 151/7/65
f 151/7/65 138/7/54 142/12/58
f 143/12/59 142/12/58 138/7/54
f 138/7/54 135/7/51 143/12/59
f 143/12/59 135/7/51 134/8/50
f 134/8/50 144/10/60 143/12/59
f 121/10/39 144/10/60 134/8/50
f 134/8/50 132/8/48 121/10/39
f 124/11/4 121/10/39 132/8/48
f 132/8/48 130/9/46 124/11/4
f 163/3/3 162/2/2 161/1/1
f 161/1/1 164/4/4 163/3/3
f 165/6/5 163/6/3 164/5/4
f 164/5/4 166/5/6 165/6/5
f 168/7/8 167/7/7 163/6/3
f 163/6/3 165/6/5 168/7/8
f 167/9/7 169/8/9 162/2/2
f 162/2/2 163/3/3 167/9/7
f 171/7/11 170/7/10 167/7/7
f 167/7/7 168/7/8 171/7/11
f 170/9/10 172/8/12 169/8/9
f 169/8/9 167/9/7 170/9/10
f 173/8/13 169/8/9 172/8/12
f 172/8/12 174/8/14 173/8/13
f 173/8/13 174/8/14 175/7/15
f 175/7/15 176/7/16 173/8/13
f 177/7/17 176/7/16 175/7/15
f 175/7/15 178/7/18 177/7/17
f 179/2/19 162/2/2 169/8/9
f 169/8/9 173/8/13 179/2/19
f 179/2/19 173/8/13 176/7/16
f 176/7/16 180/6/20 179/2/19
f 181/6/21 180/6/20 176/7/16
f 176/7/16 177/7/17 181/6/21
f 180/6/20 181/6/21 182/5/22
f 182/5/22 183/5/23 180/6/20
f 180/6/20 183/5/23 184/1/24
f 184/1/24 179/2/19 180/6/20
f 162/2/2 179/2/19 184/1/24
f 184/1/24 161/1/1 162/2/2
f 181/6/21 186/6/25 185/5/7
f 185/5/7 182/5/22 181/6/21
f 177/7/17 187/7/4 186/6/25
f 186/6/25 181/6/21 177/7/17
f 186/3/25 189/2/27 188/1/26
f 188/1/26 185/4/7 186/3/25
f 187/9/4 190/8/28 189/2/27
f 189/2/27 186/3/25 187/9/4
f 178/7/18 191/7/29 187/7/4
f 187/7/4 177/7/17 178/7/18
f 191/9/29 192/8/30 190/8/28
f 190/8/28 187/9/4 191/9/29
f 193/2/31 189/2/27 190/8/28
f 190/8/28 194/8/32 193/2/31
f 193/2/31 194/8/32 195/7/33
f 195/7/33 196/6/34 193/2/31
f 165/6/5 196/6/34 195/7/33
f 195/7/33 168/7/8 165/6/5
f 194/8/32 190/8/28 192/8/30
f 192/8/30 197/8/35 194/8/32
f 194/8/32 197/8/35 198/7/36
f 198/7/36 195/7/33 194/8/32
f 168/7/8 195/7/33 198/7/36
f 198/7/36 171/7/11 168/7/8
f 185/11/7 188/10/26 192/8/30
f 192/8/30 191/9/29 185/11/7
f 197/8/35 192/8/30 188/10/26
f 188/10/26 199/10/37 197/8/35
f 197/8/35 199/10/37 200/12/38
f 200/12/38 198/7/36 197/8/35
f 171/7/11 198/7/36 200/12/38
f 200/12/38 166/12/6 171/7/11
f 196/6/34 165/6/5 166/5/6
f 166/5/6 200/5/38 196/6/34
f 196/6/34 200/5/38 199/1/37
f 199/1/37 193/2/31 196/6/34
f 189/2/27 193/2/31 199/1/37
f 199/1/37 188/1/26 189/2/27
f 166/12/6 164/12/4 170/7/10
f 170/7/10 171/7/11 166/12/6
f 182/12/22 185/12/7 191/7/29
f 191/7/29 178/7/18 182/12/22
f 183/12/23 182/12/22 178/7/18
f 178/7/18 175/7/15 183/12/23
f 183/12/23 175/7/15 174/8/14
f 174/8/14 184/10/24 183/12/23
f 161/10/1 184/10/24 174/8/14
f 174/8/14 172/8/12 161/10/1
f 164/11/4 161/10/1 172/8/12
f 172/8/12 170/9/10 164/11/4
f 203/3/41 202/2/40 201/1/39
f 201/1/39 204/4/4 203/3/41
f 205/6/42 203/6/41 204/5/4
f 204/5/4 206/5/43 205/6/42
f 208/7/44 207/7/7 203/6/41
f 203/6/41 205/6/42 208/7/44
f 207/9/7 209/8/45 202/2/40
f 202/2/40 203/3/41 207/9/7
f 211/7/47 210/7/46 207/7/7
f 207/7/7 208/7/44 211/7/47
f 210/9/46 212/8/48 209/8/45
f 209/8/45 207/9/7 210/9/46
f 213/8/49 209/8/45 212/8/48
f 212/8/48 214/8/50 213/8/49
f 213/8/49 214/8/50 215/7/51
f 215/7/51 216/7/52 213/8/49
f 217/7/53 216/7/52 215/7/51
f 215/7/51 218/7/54 217/7/53
f 219/2/55 202/2/40 209/8/45
f 209/8/45 213/8/49 219/2/55
f 219/2/55 213/8/49 216/7/52
f 216/7/52 220/6/56 219/2/55
f 221/6/57 220/6/56 216/7/52
f 216/7/52 217/7/53 221/6/57
f 220/6/56 221/6/57 222/5/58
f 222/5/58 223/5/59 220/6/56
f 220/6/56 223/5/59 224/1/60
f 224/1/60 219/2/55 220/6/56
f 202/2/40 219/2/55 224/1/60
f 224/1/60 201/1/39 202/2/40
f 221/6/57 226/6/61 225/5/7
f 225/5/7 222/5/58 221/6/57
f 217/7/53 227/7/4 226/6/61
f 226/6/61 221/6/57 217/7/53
f 226/3/61 229/2/63 228/1/62
f 228/1/62 225/4/7 226/3/61
f 227/9/4 230/8/64 229/2/63
f 229/2/63 226/3/61 227/9/4
f 218/7/54 231/7/65 227/7/4
f 227/7/4 217/7/53 218/7/54
f 231/9/65 232/8/66 230/8/64
f 230/8/64 227/9/4 231/9/65
f 233/2/67 229/2/63 230/8/64
f 230/8/64 234/8/68 233/2/67
f 233/2/67 234/8/68 235/7/69
f 235/7/69 236/6/70 233/2/67
f 205/6/42 236/6/70 235/7/69
f 235/7/69 208/7/44 205/6/42
f 234/8/68 230/8/64 232/8/66
f 232/8/66 237/8/71 234/8/68
f 234/8/68 237/8/71 238/7/72
f 238/7/72 235/7/69 234/8/68
f 208/7/44 235/7/69 238/7/72
f 238/7/72 211/7/47 208/7/44
f 225/11/7 228/10/62 232/8/66
f 232/8/66 231/9/65 225/11/7
f 237/8/71 232/8/66 228/10/62
f 228/10/62 239/10/73 237/8/71
f 237/8/71 239/10/73 240/12/74
f 240/12/74 238/7/72 237/8/71
f 211/7/47 238/7/72 240/12/74
f 240/12/74 206/12/43 211/7/47
f 236/6/70 205/6/42 206/5/43
f 206/5/43 240/5/74 236/6/70
f 236/6/70 240/5/74 239/1/73
f 239/1/73 233/2/67 236/6/70
f 229/2/63 233/2/67 239/1/73
f 239/1/73 228/1/62 229/2/63
f 206/12/43 204/12/4 210/7/46
f 210/7/46 211/7/47 206/12/43
f 222/12/58 225/12/7 231/7/65
f 231/7/65 218/7/54 222/12/58
f 223/12/59 222/12/58 218/7/54
f 218/7/54 215/7/51 223/12/59
f 223/12/59 215/7/51 214/8/50
f 214/8/50 224/10/60 223/12/59
f 201/10/39 224/10/60 214/8/50
f 214/8/50 212/8/48 201/10/39
f 204/11/4 201/10/39 212/8/48
f 212/8/48 210/9/46 204/11/4
f 243/3/3 242/2/2 241/1/1
f 241/1/1 244/4/4 243/3/3
f 245/6/5 243/6/3 244/5/4
f 244/5/4 246/5/6 245/6/5
f 248/7/8 247/7/7 243/6/3
f 243/6/3 245/6/5 248/7/8
f 247/9/7 249/8/9 242/2/2
f 242/2/2 243/3/3 247/9/7
f 251/7/11 250/7/10 247/7/7
f 247/7/7 248/7/8 251/7/11
f 250/9/10 252/8/12 249/8/9
f 249/8/9 247/9/7 250/9/10
f 253/8/13 249/8/9 252/8/12
f 252/8/12 254/8/14 253/8/13
f 253/8/13 254/8/14 255/7/15
f 255/7/15 256/7/16 253/8/13
f 257/7/17 256/7/16 255/7/15
f 255/7/15 258/7/18 257/7/17
f 259/2/19 242/2/2 249/8/9
f 249/8/9 253/8/13 259/2/19
f 259/2/19 253/8/13 256/7/16
f 256/7/16 260/6/20 259/2/19
f 261/6/21 260/6/20 256/7/16
f 256/7/16 257/7/17 261/6/21
f 260/6/20 261/6/21 262/5/22
f 262/5/22 263/5/23 260/6/20
f 260/6/20 263/5/23 264/1/24
f 264/1/24 259/2/19 260/6/20
f 242/2/2 259/2/19 264/1/24
f 264/1/24 241/1/1 242/2/2
f 261/6/21 266/6/25 265/5/7
f 265/5/7 262/5/22 261/6/21
f 257/7/17 267/7/4 266/6/25
f 266/6/25 261/6/21 257/7/17
f 266/3/25 269/2/27 268/1/26
f 268/1/26 265/4/7 266/3/25
f 267/9/4 270/8/28 269/2/27
f 269/2/27 266/3/25 267/9/4
f 258/7/18 271/7/29 267/7/4
f 267/7/4 257/7/17 258/7/18
f 271/9/29 272/8/30 270/8/28
f 270/8/28 267/9/4 271/9/29
f 273/2/31 269/2/27 270/8/28
f 270/8/28 274/8/32 273/2/31
f 273/2/31 274/8/32 275/7/33
f 275/7/33 276/6/34 273/2/31
f 245/6/5 276/6/34 275/7/33
f 275/7/33 248/7/8 245/6/5
f 274/8/32 270/8/28 272/8/30
f 272/8/30 277/8/35 274/8/32
f 274/8/32 277/8/35 278/7/36
f 278/7/36 275/7/33 274/8/32
f 248/7/8 275/7/33 278/7/36
f 278/7/36 251/7/11 248/7/8
f 265/11/7 268/10/26 272/8/30
f 272/8/30 271/9/29 265/11/7
f 277/8/35 272/8/30 268/10/26
f 268/10/26 279/10/37 277/8/35
f 277/8/35 279/10/37 280/12/38
f 280/12/38 278/7/36 277/8/35
f 251/7/11 278/7/36 280/12/38
f 280/12/38 246/12/6 251/7/11
f 276/6/34 245/6/5 246/5/6
f 246/5/6 280/5/38 276/6/34
f 276/6/34 280/5/38 279/1/37
f 279/1/37 273/2/31 276/6/34
f 269/2/27 273/2/31 279/1/37
f 279/1/37 268/1/26 269/2/27
f 246/12/6 244/12/4 250/7/10
f 250/7/10 251/7/11 246/12/6
f 262/12/22 265/12/7 271/7/29
f 271/7/29 258/7/18 262/12/22
f 263/12/23 262/12/22 258/7/18
f 258/7/18 255/7/15 263/12/23
f 263/12/23 255/7/15 254/8/14
f 254/8/14 264/10/24 263/12/23
f 241/10/1 264/10/24 254/8/14
f 254/8/14 252/8/12 241/10/1
f 244/11/4 241/10/1 252/8/12
f 252/8/12 250/9/10 244/11/4
f 283/3/41 282/2/40 281/1/39
f 281/1/39 284/4/4 283/3/41
f 285/6/42 283/6/41 284/5/4
f 284/5/4 286/5/43 285/6/42
f 288/7/44 287/7/7 283/6/41
f 283/6/41 285/6/42 288/7/44
f 287/9/7 289/8/45 282/2/40
f 282/2/40 283/3/41 287/9/7
f 291/7/47 290/7/46 287/7/7
f 287/7/7 288/7/44 291/7/47
f 290/9/46 292/8/48 289/8/45
f 289/8/45 287/9/7 290/9/46
f 293/8/49 289/8/45 292/8/48
f 292/8/48 294/8/50 293/8/49
f 293/8/49 294/8/50 295/7/51
f 295/7/51 296/7/52 293/8/49
f 297/7/53 296/7/52 295/7/51
f 295/7/51 298/7/54 297/7/53
f 299/2/55 282/2/40 289/8/45
f 289/8/45 293/8/49 299/2/55
f 299/2/55 293/8/49 296/7/52
f 296/7/52 300/6/56 299/2/55
f 301/6/57 300/6/56 296/7/52
f 296/7/52 297/7/53 301/6/57
f 300/6/56 301/6/57 302/5/58
f 302/5/58 303/5/59 300/6/56
f 300/6/56 303/5/59 304/1/60
f 304/1/60 299/2/55 300/6/56
f 282/2/40 299/2/55 304/1/60
f 304/1/60 281/1/39 282/2/40
f 301/6/57 306/6/61 305/5/7
f 305/5/7 302/5/58 301/6/57
f 297/7/53 307/7/4 306/6/61
f 306/6/61 301/6/57 297/7/53
f 306/3/61 309/2/63 308/1/62
f 308/1/62 305/4/7 306/3/61
f 307/9/4 310/8/64 309/2/63
f 309/2/63 306/3/61 307/9/4
f 298/7/54 311/7/65 307/7/4
f 307/7/4 297/7/53 298/7/54
f 311/9/65 312/8/66 310/8/64
f 310/8/64 307/9/4 311/9/65
f 313/2/67 309/2/63 310/8/64
f 310/8/64 314/8/68 313/2/67
f 313/2/67 314/8/68 315/7/69
f 315/7/69 316/6/70 313/2/67
f 285/6/42 316/6/70 315/7/69
f 315/7/69 288/7/44 285/6/42
f 314/8/68 310/8/64 312/8/66
f 312/8/66 317/8/71 314/8/68
f 314/8/68 317/8/71 318/7/72
f 318/7/72 315/7/69 314/8/68
f 288/7/44 315/7/69 318/7/72
f 318/7/72 291/7/47 288/7/44
f 305/11/7 308/10/62 312/8/66
f 312/8/66 311/9/65 305/11/7
f 317/8/71 312/8/66 308/10/62
f 308/10/62 319/10/73 317/8/71
f 317/8/71 319/10/73 320/12/74
f 320/12/74 318/7/72 317/8/71
f 291/7/47 318/7/72 320/12/74
f 320/12/74 286/12/43 291/7/47
f 316/6/70 285/6/42 286/5/43
f 286/5/43 320/5/74 316/6/70
f 316/6/70 320/5/74 319/1/73
f 319/1/73 313/2/67 316/6/70
f 309/2/63 313/2/67 319/1/73
f 319/1/73 308/1/62 309/2/63
f 286/12/43 284/12/4 290/7/46
f 290/7/46 291/7/47 286/12/43
f 302/12/58 305/12/7 311/7/65
f 311/7/65 298/7/54 302/12/58
f 303/12/59 302/12/58 298/7/54
f 298/7/54 295/7/51 303/12/59
f 303/12/59 295/7/51 294/8/50
f 294/8/50 304/10/60 303/12/59
f 281/10/39 304/10/60 294/8/50
f 294/8/50 292/8/48 281/10/39
f 284/11/4 281/10/39 292/8/48
f 292/8/48 290/9/46 284/11/4
f 323/3/3 322/2/2 321/1/1
f 321/1/1 324/4/4 323/3/3
f 325/6/5 323/6/3 324/5/4
f 324/5/4 326/5/6 325/6/5
f 328/7/8 327/7/7 323/6/3
f 323/6/3 325/6/5 328/7/8
f 327/9/7 329/8/9 322/2/2
f 322/2/2 323/3/3 327/9/7
f 331/7/11 330/7/10 327/7/7
f 327/7/7 328/7/8 331/7/11
f 330/9/10 332/8/12 329/8/9
f 329/8/9 327/9/7 330/9/10
f 333/8/13 329/8/9 332/8/12
f 332/8/12 334/8/14 333/8/13
f 333/8/13 334/8/14 335/7/15
f 335/7/15 336/7/16 333/8/13
f 337/7/17 336/7/16 335/7/15
f 335/7/15 338/7/18 337/7/17
f 339/2/19 322/2/2 329/8/9
f 329/8/9 333/8/13 339/2/19
f 339/2/19 333/8/13 336/7/16
f 336/7/16 340/6/20 339/2/19
f 341/6/21 340/6/20 336/7/16
f 336/7/16 337/7/17 341/6/21
f 340/6/20 341/6/21 342/5/22
f 342/5/22 343/5/23 340/6/20
f 340/6/20 343/5/23 344/1/24
f 344/1/24 339/2/19 340/6/20
f 322/2/2 339/2/19 344/1/24
f 344/1/24 321/1/1 322/2/2
f 341/6/21 346/6/25 345/5/7
f 345/5/7 342/5/22 341/6/21
f 337/7/17 347/7/4 346/6/25
f 346/6/25 341/6/21 337/7/17
f 346/3/25 349/2/27 348/1/26
f 348/1/26 345/4/7 346/3/25
f 347/9/4 350/8/28 349/2/27
f 349/2/27 346/3/25 347/9/4
f 338/7/18 351/7/29 347/7/4
f 347/7/4 337/7/17 338/7/18
f 351/9/29 352/8/30 350/8/28
f 350/8/28 347/9/4 351/9/29
f 353/2/31 349/2/27 350/8/28
f 350/8/28 354/8/32 353/2/31
f 353/2/31 354/8/32 355/7/33
f 355/7/33 356/6/34 353/2/31
f 325/6/5 356/6/34 355/7/33
f 355/7/33 328/7/8 325/6/5
f 354/8/32 350/8/28 352/8/30
f 352/8/30 357/8/35 354/8/32
f 354/8/32 357/8/35 358/7/36
f 358/7/36 355/7/33 354/8/32
f 328/7/8 355/7/33 358/7/36
f 358/7/36 331/7/11 328/7/8
f 345/11/7 348/10/26 352/8/30
f 352/8/30 351/9/29 345/11/7
f 357/8/35 352/8/30 348/10/26
f 348/10/26 359/10/37 357/8/35
f 357/8/35 359/10/37 360/12/38
f 360/12/38 358/7/36 357/8/35
f 331/7/11 358/7/36 360/12/38
f 360/12/38 326/12/6 331/7/11
f 356/6/34 325/6/5 326/5/6
f 326/5/6 360/5/38 356/6/34
f 356/6/34 360/5/38 359/1/37
f 359/1/37 353/2/31 356/6/34
f 349/2/27 353/2/31 359/1/37
f 359/1/37 348/1/26 349/2/27
f 326/12/6 324/12/4 330/7/10
f 330/7/10 331/7/11 326/12/6
f 342/12/22 345/12/7 351/7/29
f 351/7/29 338/7/18 342/12/22
f 343/12/23 342/12/22 338/7/18
f 338/7/18 335/7/15 343/12/23
f 343/12/23 335/7/15 334/8/14
f 334/8/14 344/10/24 343/12/23
f 321/10/1 344/10/24 334/8/14
f 334/8/14 332/8/12 321/10/1
f 324/11/4 321/10/1 332/8/12
f 332/8/12 330/9/10 324/11/4
f 363/14/76 362/14/75 361/13/4
f 361/13/4 364/14/77 363/14/76
f 365/14/78 364/14/77 361/13/4
f 361/13/4 366/14/79 365/14/78
f 367/14/80 366/14/79 361/13/4
f 361/13/4 368/14/81 367/14/80
f 369/15/82 368/14/81 361/13/4
f 361/13/4 370/15/83 369/15/82
f 371/15/84 370/15/83 361/16/4
f 361/16/4 374/15/87 371/15/84
f 372/15/85 370/15/83 371/15/84
f 371/15/84 373/15/86 372/15/85
f 373/15/86 371/15/84 374/15/87
f 374/15/87 375/15/88 373/15/86
f 375/15/88 374/15/87 376/15/89
f 376/15/89 377/15/90 375/15/88
f 376/15/89 374/15/87 361/16/4
f 361/16/4 362/15/75 376/15/89
f 377/15/90 376/15/89 362/15/75
f 362/15/75 378/15/91 377/15/90
f 381/17/94 380/17/93 379/17/92
f 379/17/92 382/17/95 381/17/94
f 382/17/95 384/17/97 383/17/96
f 383/17/96 385/17/98 382/17/95
f 385/17/98 383/17/96 386/17/99
f 386/17/99 387/17/100 385/17/98
f 387/17/100 386/17/99 388/17/101
f 388/17/101 389/17/102 387/17/100
f 381/17/94 387/17/100 389/17/102
f 389/17/102 391/17/104 381/17/94
f 389/17/102 388/17/101 390/17/103
f 390/17/103 391/17/104 389/17/102
f 381/17/94 391/17/104 392/18/105
f 392/18/105 393/18/106 381/17/94
f 381/18/94 393/18/106 394/18/107
f 394/18/107 395/18/108 381/18/94
f 381/18/94 395/18/108 396/18/109
f 396/18/109 380/18/93 381/18/94
f 516/15/229 372/15/85 373/15/86
f 373/15/86 517/15/230 516/15/229
f 517/15/230 373/15/86 375/15/88
f 375/15/88 519/15/232 517/15/230
f 518/15/231 516/15/229 517/15/230
f 517/15/230 520/15/134 518/15/231
f 520/15/134 517/15/230 519/15/232
f 519/15/232 522/15/234 520/15/134
f 521/18/233 518/15/231 520/15/134
f 520/15/134 523/18/235 521/18/233
f 523/18/235 520/15/134 522/15/234
f 522/15/234 524/18/236 523/18/235
f 525/18/237 523/18/235 524/18/236
f 524/18/236 526/18/238 525/18/237
f 525/18/237 394/18/107 393/18/106
f 393/18/106 527/18/239 525/18/237
f 523/18/235 525/18/237 527/18/239
f 527/18/239 521/18/233 523/18/235
f 527/18/239 393/18/106 392/18/105
f 392/18/105 528/18/240 527/18/239
f 521/18/233 527/18/239 528/18/240
f 528/18/240 529/18/241 521/18/233
f 528/18/240 392/18/105 391/17/104
f 391/17/104 390/17/103 528/18/240
f 529/18/241 528/18/240 390/17/103
f 390/17/103 530/17/242 529/18/241
f 531/15/126 529/18/241 530/17/242
f 530/17/242 532/14/243 531/15/126
f 534/15/245 533/15/244 372/15/85
f 372/15/85 516/15/229 534/15/245
f 531/15/126 534/15/245 516/15/229
f 516/15/229 518/15/231 531/15/126
f 534/15/245 531/15/126 532/14/243
f 532/14/243 535/14/246 534/15/245
f 529/18/241 531/15/126 518/15/231
f 518/15/231 521/18/233 529/18/241
f 370/15/83 372/15/85 533/15/244
f 533/15/244 369/15/82 370/15/83
f 369/15/82 533/15/244 536/14/247
f 536/14/247 368/14/81 369/15/82
f 535/14/246 536/14/247 533/15/244
f 533/15/244 534/15/245 535/14/246
f 536/14/247 535/14/246 537/14/248
f 537/14/248 538/14/249 536/14/247
f 368/14/81 536/14/247 538/14/249
f 538/14/249 367/14/80 368/14/81
f 538/14/249 537/14/248 539/14/250
f 539/14/250 540/14/251 538/14/249
f 367/14/80 538/14/249 540/14/251
f 540/14/251 366/14/79 367/14/80
f 530/17/242 390/17/103 388/17/101
f 388/17/101 541/17/252 530/17/242
f 541/17/252 388/17/101 386/17/99
f 386/17/99 542/17/253 541/17/252
f 532/14/243 530/17/242 541/17/252
f 541/17/252 543/14/254 532/14/243
f 543/14/254 541/17/252 542/17/253
f 542/17/253 544/14/255 543/14/254
f 535/14/246 532/14/243 543/14/254
f 543/14/254 537/14/248 535/14/246
f 537/14/248 543/14/254 544/14/255
f 544/14/255 539/14/250 537/14/248
f 546/14/112 545/14/256 539/14/250
f 539/14/250 544/14/255 546/14/112
f 547/17/257 546/14/112 544/14/255
f 544/14/255 542/17/253 547/17/257
f 546/14/112 547/17/257 548/17/258
f 548/17/258 549/14/259 546/14/112
f 384/17/97 548/17/258 547/17/257
f 547/17/257 383/17/96 384/17/97
f 383/17/96 547/17/257 542/17/253
f 542/17/253 386/17/99 383/17/96
f 540/14/251 539/14/250 545/14/256
f 545/14/256 550/14/260 540/14/251
f 366/14/79 540/14/251 550/14/260
f 550/14/260 365/14/78 366/14/79
f 365/14/78 550/14/260 551/14/261
f 551/14/261 364/14/77 365/14/78
f 552/14/262 551/14/261 550/14/260
f 550/14/260 545/14/256 552/14/262
f 549/14/259 552/14/262 545/14/256
f 545/14/256 546/14/112 549/14/259
f 548/17/258 384/17/97 553/17/263
f 553/17/263 554/17/264 548/17/258
f 549/14/259 548/17/258 554/17/264
f 554/17/264 555/14/148 549/14/259
f 552/14/262 549/14/259 555/14/148
f 555/14/148 556/14/265 552/14/262
f 555/14/148 554/17/264 557/17/266
f 557/17/266 558/14/267 555/14/148
f 551/14/261 552/14/262 556/14/265
f 556/14/265 559/14/268 551/14/261
f 364/14/77 551/14/261 559/14/268
f 559/14/268 363/14/76 364/14/77
f 363/14/76 559/14/268 378/14/91
f 378/14/91 362/14/75 363/14/76
f 560/14/269 378/14/91 559/14/268
f 559/14/268 556/14/265 560/14/269
f 558/14/267 560/14/269 556/14/265
f 556/14/265 555/14/148 558/14/267
f 384/17/97 382/17/95 379/17/92
f 379/17/92 553/17/263 384/17/97
f 553/17/263 379/17/92 380/17/93
f 380/17/93 561/17/270 553/17/263
f 554/17/264 553/17/263 561/17/270
f 561/17/270 557/17/266 554/17/264
f 561/18/270 380/18/93 396/18/109
f 396/18/109 562/18/271 561/18/270
f 557/18/266 561/18/270 562/18/271
f 562/18/271 563/18/272 557/18/266
f 562/18/271 396/18/109 395/18/108
f 395/18/108 526/18/238 562/18/271
f 563/18/272 562/18/271 526/18/238
f 526/18/238 524/18/236 563/18/272
f 526/18/238 395/18/108 394/18/107
f 394/18/107 525/18/237 526/18/238
f 564/15/273 377/15/90 378/15/91
f 378/15/91 560/15/269 564/15/273
f 558/15/267 557/18/266 563/18/272
f 563/18/272 565/15/274 558/15/267
f 560/15/269 558/15/267 565/15/274
f 565/15/274 564/15/273 560/15/269
f 565/15/274 563/18/272 524/18/236
f 524/18/236 522/15/234 565/15/274
f 564/15/273 565/15/274 522/15/234
f 522/15/234 519/15/232 564/15/273
f 377/15/90 564/15/273 519/15/232
f 519/15/232 375/15/88 377/15/90
f 611/14/320 610/14/319 609/14/318
f 609/14/318 612/14/4 611/14/320
f 613/14/321 611/14/320 612/14/4
f 612/14/4 614/14/322 613/14/321
f 611/14/320 613/14/321 615/14/323
f 615/14/323 616/14/7 611/14/320
f 616/14/7 617/14/324 610/14/319
f 610/14/319 611/14/320 616/14/7
f 619/14/326 618/14/325 616/14/7
f 616/14/7 615/14/323 619/14/326
f 618/14/325 620/14/327 617/14/324
f 617/14/324 616/14/7 618/14/325
f 621/14/328 617/14/324 620/14/327
f 620/14/327 622/14/329 621/14/328
f 621/14/328 622/14/329 623/14/330
f 623/14/330 624/14/331 621/14/328
f 625/14/332 610/14/319 617/14/324
f 617/14/324 621/14/328 625/14/332
f 625/14/332 621/14/328 624/14/331
f 624/14/331 626/14/333 625/14/332
f 626/14/333 628/14/335 627/14/334
f 627/14/334 625/14/332 626/14/333
f 610/14/319 625/14/332 627/14/334
f 627/14/334 609/14/318 610/14/319
f 628/14/335 623/14/330 622/14/329
f 622/14/329 627/14/334 628/14/335
f 609/14/318 627/14/334 622/14/329
f 622/14/329 620/14/327 609/14/318
f 612/14/4 609/14/318 620/14/327
f 620/14/327 618/14/325 612/14/4
f 614/14/322 612/14/4 618/14/325
f 618/14/325 619/14/326 614/14/322
f 629/14/336 614/14/322 619/14/326
f 619/14/326 630/14/337 629/14/336
f 629/14/336 630/14/337 631/14/338
f 631/14/338 632/14/339 629/14/336
f 630/14/337 619/14/326 615/14/323
f 615/14/323 633/14/340 630/14/337
f 630/14/337 633/14/340 634/14/341
f 634/14/341 631/14/338 630/14/337
f 632/14/339 636/14/343 635/14/342
f 635/14/342 629/14/336 632/14/339
f 614/14/322 629/14/336 635/14/342
f 635/14/342 613/14/321 614/14/322
f 636/14/343 634/14/341 633/14/340
f 633/14/340 635/14/342 636/14/343
f 613/14/321 635/14/342 633/14/340
f 633/14/340 615/14/323 613/14/321

