# ProBuilder 6.1.2
# https://unity3d.com/unity/features/worldbuilding/probuilder
# 24.09.2026 12:15:16

mtllib ./drone_003.mtl
o drone_003

g drone_003
v 1.461361 0.3625738 -0.07625759
v 1.461247 0.9878351 -0.07559375
v 1.360866 0.9878351 -0.1335488
v 1.360866 0.3625738 -0.133547
v 1.260485 0.9878351 -0.07559374
v 1.260371 0.3625738 -0.07625759
v 1.260371 0.3625738 0.04098716
v 1.260485 0.9878351 0.04031628
v 1.360866 0.9878351 0.09827132
v 1.360866 0.3625738 0.09827308
v 1.461247 0.9878351 0.04031628
v 1.461361 0.3625738 0.04098716
v -1.360867 0.3625738 -0.133547
v -1.360867 0.9878351 -0.1335488
v -1.461248 0.9878351 -0.07559374
v -1.461362 0.3625738 -0.07625759
v -1.461362 0.3625738 0.04098716
v -1.461248 0.9878351 0.04031628
v -1.360867 0.9878351 0.09827132
v -1.360867 0.3625738 0.09827308
v -1.260372 0.3625738 -0.07625759
v -1.260486 0.9878351 -0.07559375
v -1.260486 0.9878351 0.04031628
v -1.260372 0.3625738 0.04098716
v 1.244367 0.4899632 -0.07625862
v -1.245409 0.4898494 -0.07559513
v -1.245409 0.3894685 -0.1335502
v 1.244367 0.3894678 -0.133548
v -1.245409 0.2890874 -0.07559511
v 1.244367 0.2889727 -0.07625863
v 1.244367 0.2889727 0.04098612
v -1.245409 0.2890874 0.04031491
v -1.245409 0.3894685 0.09826995
v 1.244367 0.3894678 0.09827206
v -1.245409 0.4898494 0.04031491
v 1.244367 0.4899632 0.04098612
v 1.097299 0.3894682 0.2459294
v 0.9505649 0.6256008 -0.01763861
v 1.07074 0.6256008 0.2724883
v 0.9881254 0.3894682 -0.01763869
v 1.153726 0.1533355 0.1895021
v 1.07074 0.6256008 -0.3077656
v 1.360867 0.3894682 0.3551028
v 1.360867 0.6256008 0.3926629
v 1.360867 0.1533355 0.2753026
v 1.624435 0.3894682 0.2459293
v 1.650993 0.6256008 0.2724883
v 1.568007 0.1533355 0.1895021
v 1.733608 0.3894682 -0.0176387
v 1.771168 0.6256008 -0.01763864
v 1.653808 0.1533355 -0.01763876
v 1.360867 0.08602376 0.1815321
v 1.220031 0.08602376 0.1231963
v 1.002263 0.6975415 -0.01763862
v 1.107295 0.6975415 -0.2712089
v 1.107295 0.6975415 0.2359316
v 1.360865 0.6975415 0.3409639
v 1.614436 0.6975415 0.2359316
v 1.719468 0.6975415 -0.01763865
v -1.624434 0.3894682 0.2459294
v -1.771168 0.6256008 -0.01763861
v -1.650993 0.6256008 0.2724883
v -1.733608 0.3894682 -0.01763869
v -1.568007 0.1533355 0.1895021
v -1.650993 0.6256008 -0.3077656
v -1.653808 0.1533355 -0.01763877
v -1.624434 0.3894682 -0.2812068
v -1.568007 0.1533355 -0.2247796
v -1.360866 0.3894682 0.3551028
v -1.360867 0.6256008 0.3926629
v -1.360867 0.1533355 0.2753026
v -1.097298 0.3894682 0.2459293
v -1.153726 0.1533355 0.1895021
v -1.067925 0.1533355 -0.01763876
v -0.9881246 0.3894682 -0.0176387
v -1.501702 0.08602376 -0.1584738
v -1.560037 0.08602376 -0.01763877
v -1.161696 0.08602376 -0.01763877
v -1.220032 0.08602376 0.1231963
v -1.501702 0.08602376 0.1231963
v -1.360867 0.08602376 0.1815321
v -0.1093955 -0.6943098 0.5976866
v 7.149999E-06 -0.7236243 0.5976862
v -1.097E-05 -0.8520116 0.450461
v -0.1736073 -0.8054966 0.450461
v -0.1894834 -0.6142216 0.5976868
v -0.3006885 -0.6784154 0.4504611
v -0.2187974 -0.5048192 0.5976868
v -0.3472033 -0.5048192 0.4504611
v 0.1894984 -0.614222 0.5976858
v 0.2188125 -0.5048192 0.5976857
v 0.3471813 -0.5048192 0.4504611
v 0.3006663 -0.6784154 0.4504611
v 0.1094098 -0.6943102 0.5976861
v 0.1735852 -0.8054966 0.450461
v 0.3006663 -0.331223 0.4504611
v 0.1894984 -0.3954164 0.5976858
v 0.1735852 -0.2041418 0.4504611
v 0.1094098 -0.3153282 0.5976861
v -1.097E-05 -0.1576268 0.4504611
v 7.149999E-06 -0.2860141 0.5976864
v -0.1736073 -0.2041418 0.4504611
v -0.1093953 -0.3153286 0.5976866
v -0.3006885 -0.331223 0.4504611
v -0.1894834 -0.3954169 0.5976868
v 0.08108976 -0.6452534 0.6121497
v 9.609999E-06 -0.3426596 0.6121497
v 0.08108976 -0.3643849 0.6121497
v 9.609999E-06 -0.6669787 0.6121497
v -0.08107023 -0.3643848 0.6121497
v -0.08107023 -0.6452537 0.6121497
v -0.1404247 -0.4237396 0.6121497
v -0.1404247 -0.5858988 0.6121497
v -0.1621497 -0.5048192 0.6121497
v -0.215689 -0.1952677 -0.3912165
v -3.76E-06 0.6675892 -0.4490092
v -0.215689 0.6675892 -0.3912165
v -3.76E-06 -0.1952677 -0.4490092
v 0.2156815 0.6675892 -0.3912165
v 0.2156815 -0.1952677 -0.3912165
v 0.373574 -0.1952677 -0.233324
v 0.4313668 0.6675892 -0.0176387
v 0.373574 0.6675892 -0.233324
v 0.4313668 -0.1952677 -0.0176387
v -0.3735816 -0.1952677 0.1980466
v -0.4313743 -0.1952677 -0.0176387
v -0.4313743 0.6675892 -0.0176387
v -0.3735816 0.6675892 -0.233324
v -0.3735816 -0.1952677 -0.233324
v 0.2986882 0.7498558 -0.1900886
v 0.1724461 0.7498558 -0.3163307
v -3.76E-06 0.7498558 -0.3625385
v -0.1724536 0.7498558 -0.3163307
v 0.344896 0.7498558 -0.0176387
v -0.3449035 0.7498558 -0.0176387
v -0.2986957 0.7498558 0.1548112
v -0.2986957 0.7498558 -0.1900886
v -0.4222932 -1.002411 -0.5843011
v -0.5056469 -1.085765 -0.5232819
v -0.4222932 -1.104498 -0.5420152
v -0.5243802 -1.002411 -0.5420152
v -0.4222932 -0.00722654 -0.5843011
v 0.4222856 -1.104498 -0.5420152
v 0.4222856 -1.002411 -0.5843011
v 0.5056393 -1.085765 -0.5232819
v 0.5243726 -1.002411 -0.5420152
v 0.5243726 -0.00722654 -0.5420152
v 0.4222856 -0.00722654 -0.5843011
v 0.5666585 -0.00722654 -0.439928
v 0.5666585 -1.002411 -0.439928
v 0.5666585 -0.00722654 0.4046506
v 0.5243726 -1.104498 -0.439928
v 0.5243726 -1.104498 0.4046506
v 0.5243726 -0.00722654 0.5067378
v 0.5666585 -1.002411 0.4046506
v 0.5056393 -1.085765 0.4880045
v 0.5243726 -1.002411 0.5067378
v 0.4222856 -1.146784 -0.439928
v 0.4222856 -1.146784 0.4046506
v 0.4222856 -1.104498 0.5067378
v -0.4222932 -1.146784 -0.439928
v -0.5243802 -1.104498 -0.439928
v -0.4222932 -1.146784 0.4046506
v 0.4222856 -1.002411 0.5490237
v 0.4222856 -0.00722654 0.5490237
v 0.4222856 0.09486075 0.5067378
v 0.5056393 0.07612737 0.4880045
v 0.3430717 -0.5046737 0.5490236
v 0.2970359 -0.333157 0.5490236
v 0.2971814 -0.6762293 0.5490236
v 0.1714094 -0.2076372 0.5490236
v 0.1716616 -0.8018557 0.5490236
v -0.00014615 -0.1617469 0.5490236
v 0.00014496 -0.8478914 0.5490236
v -0.4222932 -1.002411 0.5490237
v -0.1714108 -0.8020012 0.5490236
v -0.3430729 -0.5049647 0.5490236
v -0.2970371 -0.6764814 0.5490236
v -0.4222932 -1.104498 0.5067378
v -7.2E-07 -0.5048192 0.206206
v -0.1716628 -0.2077827 0.5490236
v -0.2971826 -0.3334091 0.5490236
v 1.360867 0.1533355 -0.3105802
v 1.624435 0.3894682 -0.2812068
v 1.360867 0.3894682 -0.3903803
v 1.568007 0.1533355 -0.2247796
v 1.067925 0.1533355 -0.01763877
v 1.097299 0.3894682 -0.2812068
v 1.153726 0.1533355 -0.2247796
v 1.501701 0.08602376 -0.1584738
v 1.360867 0.08602376 -0.2168096
v 1.220031 0.08602376 -0.1584738
v 1.560037 0.08602376 -0.01763877
v 1.161696 0.08602376 -0.01763877
v 1.501701 0.08602376 0.1231963
v 1.360867 0.6256008 -0.4279402
v -1.360866 0.3894682 -0.3903803
v -1.07074 0.6256008 -0.3077656
v -1.360867 0.6256008 -0.4279402
v -1.097298 0.3894682 -0.2812068
v -1.07074 0.6256008 0.2724883
v -0.9505653 0.6256008 -0.01763864
v -1.614438 0.6975415 -0.2712089
v -1.360867 0.6975415 -0.3762413
v -1.71947 0.6975415 -0.01763862
v -1.614438 0.6975415 0.2359316
v -1.360867 0.6975415 0.3409639
v -1.107297 0.6975415 0.2359316
v -1.002265 0.6975415 -0.01763865
v -1.107297 0.6975415 -0.2712089
v -1.360867 0.1533355 -0.3105802
v -1.153726 0.1533355 -0.2247796
v -1.220032 0.08602376 -0.1584738
v -1.360867 0.08602376 -0.2168096
v 1.650993 0.6256008 -0.3077656
v 1.360865 0.6975415 -0.3762413
v 1.614436 0.6975415 -0.2712089
v 0.1404442 -0.4237396 0.6121497
v 0.1621689 -0.5048192 0.6121497
v 0.1404442 -0.5858988 0.6121497
v -0.5243802 -0.00722654 -0.5420152
v 0.373574 0.6675892 0.1980466
v 0.373574 -0.1952677 0.1980466
v 0.2156815 -0.1952677 0.3559391
v 0.2156815 0.6675892 0.3559391
v -3.76E-06 0.6675892 0.4137318
v -3.76E-06 -0.1952677 0.4137318
v -0.215689 0.6675892 0.3559391
v -0.215689 -0.1952677 0.3559391
v -0.3735816 0.6675892 0.1980466
v 0.2986882 0.7498558 0.1548112
v 0.1724461 0.7498558 0.2810533
v -3.76E-06 0.7498558 0.3272611
v -0.1724536 0.7498558 0.2810533
v -0.5666661 -0.00722654 -0.439928
v -0.5666661 -1.002411 -0.439928
v -0.5666661 -1.002411 0.4046506
v -0.5056469 0.07612737 -0.5232819
v -0.4222932 0.09486075 -0.5420152
v 0.4222856 0.1371466 -0.439928
v 0.4222856 0.09486075 -0.5420152
v 0.5056393 0.07612737 -0.5232819
v 0.5243726 0.09486075 -0.439928
v 0.5243726 0.09486075 0.4046506
v 0.4222856 0.1371466 0.4046506
v -0.4222932 0.09486075 0.5067378
v -0.4222932 0.1371466 0.4046506
v -0.5243802 0.09486075 0.4046506
v -0.5243802 0.09486075 -0.439928
v -0.4222932 0.1371466 -0.439928
v -0.5056469 -1.085765 0.4880045
v -0.5243802 -1.002411 0.5067378
v -0.4222932 -0.00722654 0.5490234
v -0.5243802 -0.00722654 0.5067378
v -0.5056469 0.07612737 0.4880045
v -0.5243802 -1.104498 0.4046506
v -0.5666661 -0.00722654 0.4046506
v -0.2411654 -2.389272 -0.0316242
v -0.2596598 -2.435797 -0.03163126
v -0.2411654 -2.482323 -0.0316242
v -0.2054082 -2.519587 -0.03161985
v -0.1607758 -2.538858 -0.03162907
v -0.1161332 -2.519587 -0.03162688
v 0.08907195 -2.045063 -0.03162596
v 0.3391364 -2.045063 -0.03163135
v 0.3565829 -2.001172 -0.03163373
v 0.1065184 -2.001172 -0.03162834
v 0.3391364 -1.957282 -0.03163135
v 0.08907195 -1.957282 -0.03162596
v -0.1161332 -1.482759 -0.03162688
v -0.2411654 -1.613073 -0.0316242
v -0.1607758 -1.463487 -0.03162907
v -0.2054082 -1.482759 -0.03161985
v -0.2411654 -1.520022 -0.0316242
v -0.2596598 -1.566547 -0.03163126
v -0.2411738 -2.482323 -0.003650039
v -0.2596582 -2.435797 -0.003645688
v -0.2411738 -2.389272 -0.003650039
v -0.2054167 -2.519587 -0.003645688
v -0.1607741 -2.538858 -0.003643513
v -0.1161315 -2.519587 -0.003641322
v 0.08908503 -2.045063 -0.003650516
v 0.339138 -2.045063 -0.003645778
v 0.3565845 -2.001172 -0.003648162
v 0.1065201 -2.001172 -0.003642768
v 0.339138 -1.957282 -0.003645778
v 0.08908503 -1.957282 -0.003650516
v -0.1161315 -1.482759 -0.003641322
v -0.2411738 -1.613073 -0.003650039
v -0.1607741 -1.463487 -0.003643513
v -0.2054167 -1.482759 -0.003645688
v -0.2411738 -1.520022 -0.003650039
v -0.2596582 -1.566547 -0.003645688
v 0.777136 -3.312125 0.03753567
v -0.2952403 -0.5226126 0.03753346
v 0.3221048 -0.5226126 0.03753293
v -0.7502931 -3.312125 0.03752947
v 0.7771405 -3.312125 -0.07280618
v -0.2952358 -0.5226126 -0.07280838
v -0.7503 -3.312125 -0.07280231
v 0.3221093 -0.5226126 -0.07280889

vt 0.875618 0.266945
vt 0.875618 0.320813
vt 0.349698 0.093134
vt 0.349698 0.104931
vt 0.349698 0.081336
vt 0.349738 0.204071
vt 0.349738 0.203718
vt 0.349738 0.207153
vt 0.349738 0.206552
vt 0.349738 0.096418
vt 0.349698 0.077973
vt 0.877204 0.007588
vt 0.877254 0.007342
vt 0.876752 0.007588
vt 0.876803 0.007342
vt 0.361552 0.214297
vt 0.361731 0.269405
vt 0.361587 0.102451
vt 0.361587 0.207062
vt 0.361587 0.206052
vt 0.361587 0.211556
vt 0.361587 0.182094
vt 0.361587 0.265213
vt 0.361587 0.090897
vt 0.361587 0.270717
vt 0.361587 0.269707
vt 0.361587 0.142284
vt 0.361587 0.15601
vt 0.361587 0.128555
vt 0.361587 0.166055
vt 0.361587 0.118501
vt 0.361587 0.169728
vt 0.361587 0.114817
vt 0.361587 0.11849
vt 0.873892 0.065999
vt 0.871528 0.066072
vt 0.361587 0.193647
vt 0.361587 0.15599
vt 0.690624 0.197313
vt 0.690676 0.197518
vt 0.691025 0.197313
vt 0.364532 0.247404
vt 0.364532 0.244474
vt 0.364532 0.241544
vt 0.364532 0.239197
vt 0.364532 0.237983
vt 0.364532 0.269082
vt 0.364532 0.271846
vt 0.364532 0.274611
vt 0.364532 0.304496
vt 0.364532 0.296289
vt 0.364532 0.30571
vt 0.364532 0.302149
vt 0.364532 0.299219
vt 0.75648 0.025069
vt 0.389432 0.979851
vt 0.600735 0.979851
vt 0.233677 0.025069

vn 0.8653405 0.0003967519 -0.5011843
vn 0.8660254 0.0006890205 -0.4999995
vn -0.001370303 0.0002894926 -0.999999
vn -0.8653406 0.0003975097 -0.501184
vn -0.8646531 0.0006912973 -0.5023689
vn -0.8653374 0.0004011626 0.5011897
vn -0.8660252 0.0006946541 0.4999999
vn 0.001377038 0.0002964037 0.999999
vn 0.8653372 0.000401593 0.5011899
vn 0.864646 0.0006969571 0.5023811
vn -0.866025 0.0006941592 0.5000004
vn -9.94217E-05 0.8653406 -0.5011843
vn -0.000172812 0.8660256 -0.4999997
vn -7.256163E-05 -0.001370132 -0.999999
vn -9.991839E-05 -0.8653406 -0.5011843
vn -0.0001737061 -0.8646531 -0.5023693
vn -0.00010097 -0.8653374 0.5011899
vn -0.0001746828 -0.8660253 0.5000001
vn -7.458169E-05 0.00137709 0.999999
vn -0.0001007725 0.8653374 0.5011899
vn -0.0001749403 0.8646463 0.5023811
vn -0.6864915 -0.2397043 0.686492
vn -0.9719114 0.235347 -3.440558E-08
vn -0.687245 0.2353482 0.6872449
vn -0.9708458 -0.2397046 -1.852688E-07
vn -0.5654727 -0.6004012 0.5654725
vn -0.6872451 0.2353484 -0.6872447
vn 2.335999E-07 -0.2397045 0.9708459
vn -3.010491E-07 0.2353523 0.9719101
vn 1.192682E-07 -0.6004017 0.7996986
vn 0.6864918 -0.2397043 0.6864916
vn 0.6872433 0.2353565 0.6872436
vn 0.5654723 -0.6004022 0.5654718
vn 0.9708459 -0.2397043 6.444135E-08
vn 0.9719086 0.2353585 -1.720282E-08
vn 0.7996982 -0.6004023 1.398316E-07
vn 1.163547E-07 -0.9154734 0.4023784
vn -0.2845243 -0.9154735 0.2845244
vn -0.4440414 0.8960063 -1.203528E-07
vn -0.3139846 0.8960065 -0.313984
vn -0.3139842 0.8960068 0.3139838
vn -5.483378E-07 0.8073558 0.590065
vn 0.31398 0.8960094 0.3139803
vn 0.4440337 0.8960101 5.157947E-08
vn -0.7996995 -0.6004004 -4.277201E-07
vn -0.6864918 -0.2397041 -0.6864917
vn -0.5654734 -0.6004007 -0.5654722
vn -0.1699267 -0.9706956 -0.1699265
vn -0.3019501 -0.9533237 -1.150956E-07
vn 0.3019487 -0.9533242 1.230332E-07
vn 0.2135101 -0.9533241 0.2135099
vn -0.3768257 -0.6526865 0.6572691
vn 3.656076E-06 -0.7536789 0.6572428
vn -0.6526702 -0.3768203 0.6572884
vn -0.7536329 -6.080776E-08 0.6572955
vn 0.6527404 -0.3768577 0.6571972
vn 0.7537246 8.817166E-07 0.6571904
vn 0.3768532 -0.6527239 0.6572163
vn 0.6527408 0.3768573 0.6571971
vn 0.3768535 0.6527235 0.6572164
vn 3.238022E-06 0.7536787 0.657243
vn -0.3768255 0.6526861 0.6572696
vn -0.6526698 0.3768203 0.6572887
vn 2.084054E-07 -9.189197E-08 1
vn -0.5000001 0 -0.8660254
vn -2.07943E-08 0.3976846 -0.9175222
vn -0.4587611 0.3976847 -0.7945974
vn -1.542682E-08 0 -1
vn 0.4587611 0.3976847 -0.7945974
vn 0.5000001 0 -0.8660254
vn 0.8660254 0 -0.5
vn 0.9175222 0.3976847 1.247658E-08
vn 0.7945974 0.3976847 -0.4587611
vn 1 0 0
vn -0.8660254 0 0.5000001
vn -1 0 0
vn -0.9175221 0.3976847 -1.247658E-08
vn -0.7945974 0.3976847 -0.4587611
vn -0.8660254 0 -0.5000001
vn 0.2536796 0.9561357 -0.146462
vn 0.1840164 0.9298128 -0.3187257
vn -3.218273E-08 0.872862 -0.4879672
vn -0.2439836 0.872862 -0.422592
vn 0.3680327 0.9298128 1.213637E-08
vn -0.3680327 0.9298128 -1.618183E-08
vn -0.3187257 0.9298128 0.1840164
vn -0.2536797 0.9561357 -0.146462
vn -0.182924 -0.1829236 -0.9659595
vn -0.5773508 -0.5773499 -0.5773501
vn -0.153782 -0.6986955 -0.6986956
vn -0.6986959 -0.1537813 -0.6986954
vn -0.182924 0.1829235 -0.9659595
vn 0.153782 -0.6986955 -0.6986956
vn 0.182924 -0.1829236 -0.9659595
vn 0.5773508 -0.5773499 -0.5773501
vn 0.6986959 -0.1537813 -0.6986954
vn 0.6986959 0.1537812 -0.6986954
vn 0.182924 0.1829235 -0.9659595
vn 0.9659596 0.1829235 -0.1829236
vn 0.9659595 -0.1829235 -0.1829236
vn 0.9659596 0.1829235 0.1829236
vn 0.698696 -0.6986954 -0.1537815
vn 0.698696 -0.6986954 0.1537815
vn 0.6986959 0.1537813 0.6986954
vn 0.9659595 -0.1829236 0.1829236
vn 0.5773509 -0.5773499 0.57735
vn 0.6986959 -0.1537814 0.6986954
vn 0.182924 -0.9659595 -0.1829237
vn 0.1829241 -0.9659595 0.1829237
vn 0.1537821 -0.6986955 0.6986956
vn -0.182924 -0.9659595 -0.1829237
vn -0.698696 -0.6986954 -0.1537815
vn -0.1829241 -0.9659595 0.1829237
vn 0.103869 -0.1038689 0.9891524
vn 0.103869 0.103869 0.9891524
vn 0.1537821 0.6986954 0.6986958
vn 0.5773508 0.57735 0.57735
vn -0.1214872 -0.1214867 0.9851304
vn -0.1537821 -0.6986955 0.6986956
vn -0.3531624 -0.6122949 0.7073692
vn 4.421986E-05 -0.1039352 0.994584
vn 0.0002997043 -0.7068442 0.7073693
vn -0.6119948 -0.353682 0.7073693
vn -0.706844 -0.0002997195 0.7073694
vn -0.6122949 0.3531624 0.7073693
vn -0.3536818 0.611995 0.7073693
vn -0.0002998181 0.7068442 0.7073692
vn 0.7068443 0.0002996437 0.7073691
vn 0.6119952 0.3536818 0.7073691
vn 0.3531625 0.612295 0.7073692
vn 0.3536819 -0.611995 0.7073692
vn 0.612295 -0.3531626 0.707369
vn 1.809586E-07 -0.6004016 -0.7996987
vn 0.6864919 -0.2397039 -0.6864917
vn 2.335999E-07 -0.2397041 -0.9708459
vn 0.5654722 -0.6004021 -0.565472
vn 0.2135103 -0.953324 -0.2135103
vn 1.269324E-07 -0.9154734 -0.4023784
vn -3.526575E-07 0.2353526 -0.97191
vn 0.6872435 0.2353565 -0.6872435
vn -3.427111E-07 0.8073556 -0.5900651
vn 0.3139802 0.8960094 -0.3139803
vn -0.6986959 0.1537812 -0.6986954
vn 0.7945974 0.3976847 0.4587612
vn 0.8660254 0 0.5000001
vn 0.5000001 0 0.8660254
vn 0.4587611 0.3976847 0.7945974
vn 1.663544E-08 0.3976846 0.9175222
vn -0.4587612 0.3976847 0.7945974
vn -0.5000001 0 0.8660254
vn -0.7945974 0.3976847 0.4587612
vn 0.3187257 0.9298128 0.1840164
vn 0.2439836 0.872862 0.4225919
vn 3.754652E-08 0.872862 0.4879672
vn -0.1840165 0.9298128 0.3187257
vn -0.9659596 0.1829235 -0.1829236
vn -0.9659595 -0.1829236 -0.1829236
vn -0.9659595 -0.1829236 0.1829236
vn -0.5773508 0.5773499 -0.5773501
vn -0.153782 0.6986957 -0.6986955
vn 0.1829238 0.9659595 -0.1829235
vn 0.153782 0.6986957 -0.6986955
vn 0.5773508 0.5773499 -0.5773501
vn 0.6986958 0.6986955 -0.1537815
vn 0.6986958 0.6986955 0.1537815
vn 0.1829238 0.9659595 0.1829235
vn -0.1537821 0.6986946 0.6986966
vn -0.1829238 0.9659595 0.1829235
vn -0.6986958 0.6986955 0.1537815
vn -0.6986958 0.6986955 -0.1537815
vn -0.1829238 0.9659595 -0.1829235
vn -0.5773508 -0.57735 0.5773501
vn -0.6986957 -0.1537814 0.6986957
vn -0.1038693 0.1038689 0.9891524
vn -0.6986949 0.1537813 0.6986964
vn -0.5773504 0.5773497 0.5773507
vn -0.698696 -0.6986954 0.1537815
vn -0.9659596 0.1829235 0.1829236
vn 2.464087E-06 -0.2473951 0.9689147
vn 0.1237021 -0.2142556 0.968913
vn 0.2142629 -0.1237027 0.9689113
vn 0.2474118 -2.426754E-07 0.9689105
vn 0.2142638 0.1237037 0.968911
vn 0.1237028 0.2142562 0.9689127
vn 1.078972E-06 0.2473946 0.9689148
vn -0.1236917 0.214243 0.9689171
vn -0.2142374 0.12369 0.9689186
vn -0.2473772 1.381382E-07 0.9689192
vn -0.214236 -0.123689 0.968919
vn -0.1236911 -0.2142418 0.9689174
vn 0.0003819076 0 -0.9999999
vn 0.7215948 -0.6923157 -4.274442E-05
vn -0.7215436 -0.692369 -0.000218118
vn -0.7215436 0.692369 -0.000218118
vn 0.3963301 -0.9181081 -2.337152E-05
vn -0.9293066 -0.369309 -0.0001131168
vn -0.9293053 0.3693123 -0.0001131291
vn 0.9292741 0.369391 -5.4428E-05
vn 0.7215948 0.6923157 -4.264836E-05
vn 0.3963384 0.9181045 -2.337201E-05
vn 0.9292768 -0.3693841 -5.442817E-05
vn -0.396368 -0.9180917 -4.824244E-05
vn -0.3963763 0.9180881 -4.825714E-05
vn 0.9869553 0.1609943 4.025171E-05
vn 0 -1 0
vn -0.9869539 0.1610036 1.066552E-05

usemtl Metall
f 4/1/3 3/2/3 2/2/2 1/1/1
f 6/1/5 5/2/4 3/2/3 4/1/3
f 10/1/8 9/2/8 8/2/7 7/1/6
f 6/1/5 7/1/6 8/2/7 5/2/4
f 12/1/10 11/2/9 9/2/8 10/1/8
f 1/1/1 2/2/2 11/2/9 12/1/10
f 16/1/5 15/2/4 14/2/3 13/1/3
f 20/1/8 19/2/8 18/2/11 17/1/6
f 16/1/5 17/1/6 18/2/11 15/2/4
f 13/1/3 14/2/3 22/2/2 21/1/1
f 24/1/10 23/2/9 19/2/8 20/1/8
f 21/1/1 22/2/2 23/2/9 24/1/10
f 28/1/14 27/2/14 26/2/13 25/1/12
f 30/1/16 29/2/15 27/2/14 28/1/14
f 34/1/19 33/2/19 32/2/18 31/1/17
f 30/1/16 31/1/17 32/2/18 29/2/15
f 36/1/21 35/2/20 33/2/19 34/1/19
f 25/1/12 26/2/13 35/2/20 36/1/21

usemtl Color
f 58/10/43 56/10/41 57/10/42
f 111/14/64 112/14/64 113/14/64
f 113/14/64 112/14/64 114/14/64
f 131/16/81 137/16/87 130/16/80
f 130/16/80 137/16/87 135/16/85
f 169/28/64 165/22/115 171/30/64
f 171/30/64 165/22/115 173/32/64
f 164/18/114 172/31/64 174/33/64
f 175/18/118 176/34/64 178/29/64
f 171/35/120 180/36/121 169/35/123
f 182/35/132 180/36/121 181/35/131
f 192/11/48 191/11/138 190/11/137
f 190/11/137 193/11/50 192/11/48
f 210/10/142 204/10/141 203/10/40
f 208/10/43 206/10/41 207/10/42
f 76/11/48 214/11/138 213/11/137
f 213/11/137 78/11/50 76/11/48
f 217/10/142 216/10/141 55/10/40
f 181/30/64 253/22/174 182/38/64
f 182/38/64 253/22/174 177/27/64
f 37/3/22 39/4/24 38/4/23
f 38/4/23 40/3/25 37/3/22
f 41/5/26 37/3/22 40/3/25
f 40/3/25 187/5/45 41/5/26
f 40/3/25 38/4/23 42/4/27
f 42/4/27 188/3/46 40/3/25
f 43/3/28 44/4/29 39/4/24
f 39/4/24 37/3/22 43/3/28
f 45/5/30 43/3/28 37/3/22
f 37/3/22 41/5/26 45/5/30
f 46/3/31 47/4/32 44/4/29
f 44/4/29 43/3/28 46/3/31
f 48/5/33 46/3/31 43/3/28
f 43/3/28 45/5/30 48/5/33
f 49/3/34 50/4/35 47/4/32
f 47/4/32 46/3/31 49/3/34
f 51/5/36 49/3/34 46/3/31
f 46/3/31 48/5/33 51/5/36
f 48/6/33 45/6/30 52/7/37
f 52/7/37 195/7/51 48/6/33
f 53/7/38 52/7/37 45/6/30
f 45/6/30 41/6/26 53/7/38
f 42/9/27 38/9/23 54/8/39
f 54/8/39 55/8/40 42/9/27
f 56/8/41 54/8/39 38/9/23
f 38/9/23 39/9/24 56/8/41
f 57/8/42 56/8/41 39/9/24
f 39/9/24 44/9/29 57/8/42
f 58/8/43 57/8/42 44/9/29
f 44/9/29 47/9/32 58/8/43
f 59/8/44 58/8/43 47/9/32
f 47/9/32 50/9/35 59/8/44
f 56/10/41 58/10/43 59/10/44
f 59/10/44 54/10/39 56/10/41
f 60/3/22 62/4/24 61/4/23
f 61/4/23 63/3/25 60/3/22
f 64/5/26 60/3/22 63/3/25
f 63/3/25 66/5/45 64/5/26
f 63/3/25 61/4/23 65/4/27
f 65/4/27 67/3/46 63/3/25
f 68/5/47 66/5/45 63/3/25
f 63/3/25 67/3/46 68/5/47
f 69/3/28 70/4/29 62/4/24
f 62/4/24 60/3/22 69/3/28
f 71/5/30 69/3/28 60/3/22
f 60/3/22 64/5/26 71/5/30
f 70/4/29 69/3/28 72/3/31
f 72/3/31 201/4/32 70/4/29
f 73/5/33 72/3/31 69/3/28
f 69/3/28 71/5/30 73/5/33
f 74/5/36 75/3/34 72/3/31
f 72/3/31 73/5/33 74/5/36
f 79/11/51 77/11/49 76/11/48
f 76/11/48 78/11/50 79/11/51
f 80/11/38 77/11/49 79/11/51
f 79/11/51 81/11/37 80/11/38
f 66/6/45 68/6/47 76/7/48
f 76/7/48 77/7/49 66/6/45
f 64/6/26 66/6/45 77/7/49
f 77/7/49 80/7/38 64/6/26
f 79/7/51 78/7/50 74/6/36
f 74/6/36 73/6/33 79/7/51
f 81/7/37 79/7/51 73/6/33
f 73/6/33 71/6/30 81/7/37
f 80/7/38 81/7/37 71/6/30
f 71/6/30 64/6/26 80/7/38
f 84/13/53 83/12/53 82/12/52
f 82/12/52 85/13/52 84/13/53
f 85/13/52 82/12/52 86/12/54
f 86/12/54 87/13/54 85/13/52
f 87/13/54 86/12/54 88/12/55
f 88/12/55 89/13/55 87/13/54
f 92/15/57 91/14/57 90/14/56
f 90/14/56 93/15/56 92/15/57
f 93/15/56 90/14/56 94/14/58
f 94/14/58 95/15/58 93/15/56
f 95/15/58 94/14/58 83/14/53
f 83/14/53 84/15/53 95/15/58
f 91/14/57 92/15/57 96/15/59
f 96/15/59 97/14/59 91/14/57
f 97/14/59 96/15/59 98/15/60
f 98/15/60 99/14/60 97/14/59
f 99/14/60 98/15/60 100/15/61
f 100/15/61 101/14/61 99/14/60
f 101/14/61 100/15/61 102/13/62
f 102/13/62 103/12/62 101/14/61
f 103/12/62 102/13/62 104/13/63
f 104/13/63 105/12/63 103/12/62
f 105/12/63 104/13/63 89/13/55
f 89/13/55 88/12/55 105/12/63
f 108/14/64 107/14/64 106/14/64
f 106/14/64 220/14/64 108/14/64
f 109/14/64 106/14/64 107/14/64
f 107/14/64 110/14/64 109/14/64
f 111/14/64 109/14/64 110/14/64
f 110/14/64 112/14/64 111/14/64
f 115/16/65 117/16/67 116/16/66
f 116/16/66 118/16/68 115/16/65
f 118/16/68 116/16/66 119/16/69
f 119/16/69 120/16/70 118/16/68
f 121/16/71 123/16/73 122/16/72
f 122/16/72 124/16/74 121/16/71
f 127/16/77 126/16/76 125/16/75
f 125/16/75 230/16/151 127/16/77
f 126/16/76 127/16/77 128/16/78
f 128/16/78 129/16/79 126/16/76
f 117/16/67 115/16/65 129/16/79
f 129/16/79 128/16/78 117/16/67
f 123/16/73 121/16/71 120/16/70
f 120/16/70 119/16/69 123/16/73
f 131/17/81 130/17/80 123/17/73
f 123/17/73 119/17/69 131/17/81
f 132/17/82 131/17/81 119/17/69
f 119/17/69 116/17/66 132/17/82
f 133/17/83 132/17/82 116/17/66
f 116/17/66 117/17/67 133/17/83
f 130/17/80 134/17/84 122/17/72
f 122/17/72 123/17/73 130/17/80
f 136/17/86 135/17/85 127/17/77
f 127/17/77 230/17/151 136/17/86
f 128/17/78 127/17/77 135/17/85
f 135/17/85 137/17/87 128/17/78
f 117/17/67 128/17/78 137/17/87
f 137/17/87 133/17/83 117/17/67
f 131/16/81 132/16/82 133/16/83
f 133/16/83 137/16/87 131/16/81
f 134/16/84 130/16/80 135/16/85
f 135/16/85 136/16/86 134/16/84
f 138/18/88 140/20/90 139/19/89
f 139/19/89 141/21/91 138/18/88
f 142/22/92 138/18/88 141/21/91
f 141/21/91 221/23/143 142/22/92
f 143/20/93 140/20/90 138/18/88
f 138/18/88 144/18/94 143/20/93
f 145/19/95 143/20/93 144/18/94
f 144/18/94 146/21/96 145/19/95
f 147/23/97 146/21/96 144/18/94
f 144/18/94 148/22/98 147/23/97
f 148/22/98 144/18/94 138/18/88
f 138/18/88 142/22/92 148/22/98
f 146/21/96 147/23/97 149/22/99
f 149/22/99 150/18/100 146/21/96
f 150/18/100 149/22/99 151/22/101
f 151/22/101 155/18/105 150/18/100
f 145/19/95 146/21/96 150/18/100
f 150/18/100 152/20/102 145/19/95
f 153/20/103 152/20/102 150/18/100
f 150/18/100 155/18/105 153/20/103
f 155/18/105 151/22/101 154/23/104
f 154/23/104 157/21/107 155/18/105
f 156/19/106 153/20/103 155/18/105
f 155/18/105 157/21/107 156/19/106
f 145/19/95 152/20/102 158/24/108
f 158/24/108 143/20/93 145/19/95
f 161/24/111 140/20/90 143/20/93
f 143/20/93 158/24/108 161/24/111
f 159/24/109 158/24/108 152/20/102
f 152/20/102 153/20/103 159/24/109
f 159/24/109 153/20/103 156/19/106
f 156/19/106 160/20/110 159/24/109
f 161/24/111 158/24/108 159/24/109
f 159/24/109 163/24/113 161/24/111
f 139/19/89 140/20/90 161/24/111
f 161/24/111 162/20/112 139/19/89
f 156/19/106 157/21/107 164/18/114
f 164/18/114 160/20/110 156/19/106
f 167/26/117 166/25/116 165/22/115
f 165/22/115 154/23/104 167/26/117
f 157/21/107 154/23/104 165/22/115
f 165/22/115 164/18/114 157/21/107
f 169/28/64 168/27/64 164/18/114
f 164/18/114 165/22/115 169/28/64
f 164/18/114 168/27/64 170/29/64
f 170/29/64 172/31/64 164/18/114
f 175/18/118 164/18/114 174/33/64
f 174/33/64 176/34/64 175/18/118
f 175/18/118 178/29/64 177/27/64
f 177/27/64 253/22/174 175/18/118
f 164/18/114 175/18/118 179/20/119
f 179/20/119 160/20/110 164/18/114
f 181/35/131 180/36/121 171/35/120
f 171/35/120 173/35/122 181/35/131
f 168/35/124 169/35/123 180/36/121
f 180/36/121 170/35/125 168/35/124
f 172/35/126 170/35/125 180/36/121
f 180/36/121 174/35/127 172/35/126
f 177/35/128 178/35/129 180/36/121
f 180/36/121 182/35/132 177/35/128
f 174/35/127 180/36/121 178/35/129
f 178/35/129 176/35/130 174/35/127
f 183/5/133 185/3/135 184/3/134
f 184/3/134 186/5/136 183/5/133
f 187/5/45 40/3/25 188/3/46
f 188/3/46 189/5/47 187/5/45
f 186/5/136 184/3/134 49/3/34
f 49/3/34 51/5/36 186/5/136
f 194/11/49 192/11/48 193/11/50
f 193/11/50 195/11/51 194/11/49
f 53/11/38 194/11/49 195/11/51
f 195/11/51 52/11/37 53/11/38
f 186/6/136 51/6/36 193/7/50
f 193/7/50 190/7/137 186/6/136
f 183/6/133 186/6/136 190/7/137
f 190/7/137 191/7/138 183/6/133
f 189/6/47 183/6/133 191/7/138
f 191/7/138 192/7/48 189/6/47
f 187/6/45 189/6/47 192/7/48
f 192/7/48 194/7/49 187/6/45
f 41/6/26 187/6/45 194/7/49
f 194/7/49 53/7/38 41/6/26
f 195/7/51 193/7/50 51/6/36
f 51/6/36 48/6/33 195/7/51
f 188/3/46 42/4/27 196/4/139
f 196/4/139 185/3/135 188/3/46
f 189/5/47 188/3/46 185/3/135
f 185/3/135 183/5/133 189/5/47
f 197/3/135 199/4/139 198/4/140
f 198/4/140 200/3/134 197/3/135
f 200/3/134 198/4/140 202/4/35
f 202/4/35 75/3/34 200/3/134
f 75/3/34 202/4/35 201/4/32
f 201/4/32 72/3/31 75/3/34
f 199/9/139 65/9/27 203/8/40
f 203/8/40 204/8/141 199/9/139
f 65/9/27 61/9/23 205/8/39
f 205/8/39 203/8/40 65/9/27
f 206/8/41 205/8/39 61/9/23
f 61/9/23 62/9/24 206/8/41
f 207/8/42 206/8/41 62/9/24
f 62/9/24 70/9/29 207/8/42
f 208/8/43 207/8/42 70/9/29
f 70/9/29 201/9/32 208/8/43
f 209/8/44 208/8/43 201/9/32
f 201/9/32 202/9/35 209/8/44
f 210/8/142 209/8/44 202/9/35
f 202/9/35 198/9/140 210/8/142
f 204/8/141 210/8/142 198/9/140
f 198/9/140 199/9/139 204/8/141
f 67/3/46 65/4/27 199/4/139
f 199/4/139 197/3/135 67/3/46
f 210/10/142 203/10/40 205/10/39
f 205/10/39 209/10/44 210/10/142
f 208/10/43 209/10/44 205/10/39
f 205/10/39 206/10/41 208/10/43
f 211/5/133 197/3/135 200/3/134
f 200/3/134 212/5/136 211/5/133
f 212/5/136 200/3/134 75/3/34
f 75/3/34 74/5/36 212/5/136
f 212/6/136 74/6/36 78/7/50
f 78/7/50 213/7/137 212/6/136
f 211/6/133 212/6/136 213/7/137
f 213/7/137 214/7/138 211/6/133
f 68/6/47 211/6/133 214/7/138
f 214/7/138 76/7/48 68/6/47
f 68/5/47 67/3/46 197/3/135
f 197/3/135 211/5/133 68/5/47
f 185/3/135 196/4/139 215/4/140
f 215/4/140 184/3/134 185/3/135
f 184/3/134 215/4/140 50/4/35
f 50/4/35 49/3/34 184/3/134
f 196/9/139 42/9/27 55/8/40
f 55/8/40 216/8/141 196/9/139
f 217/8/142 59/8/44 50/9/35
f 50/9/35 215/9/140 217/8/142
f 216/8/141 217/8/142 215/9/140
f 215/9/140 196/9/139 216/8/141
f 217/10/142 55/10/40 54/10/39
f 54/10/39 59/10/44 217/10/142
f 220/14/64 219/14/64 218/14/64
f 218/14/64 108/14/64 220/14/64
f 124/16/74 122/16/72 222/16/144
f 222/16/144 223/16/145 124/16/74
f 225/16/147 224/16/146 223/16/145
f 223/16/145 222/16/144 225/16/147
f 224/16/146 225/16/147 226/16/148
f 226/16/148 227/16/64 224/16/146
f 227/16/64 226/16/148 228/16/149
f 228/16/149 229/16/150 227/16/64
f 230/16/151 125/16/75 229/16/150
f 229/16/150 228/16/149 230/16/151
f 222/17/144 122/17/72 134/17/84
f 134/17/84 231/17/152 222/17/144
f 225/17/147 222/17/144 231/17/152
f 231/17/152 232/17/153 225/17/147
f 226/17/148 225/17/147 232/17/153
f 232/17/153 233/17/154 226/17/148
f 228/17/149 226/17/148 233/17/154
f 233/17/154 234/17/155 228/17/149
f 230/17/151 228/17/149 234/17/155
f 234/17/155 136/17/86 230/17/151
f 234/16/155 231/16/152 134/16/84
f 134/16/84 136/16/86 234/16/155
f 232/16/153 231/16/152 234/16/155
f 234/16/155 233/16/154 232/16/153
f 236/18/157 235/22/156 221/23/143
f 221/23/143 141/21/91 236/18/157
f 236/18/157 141/21/91 139/19/89
f 139/19/89 162/20/112 236/18/157
f 237/18/158 236/18/157 162/20/112
f 162/20/112 256/20/177 237/18/158
f 142/22/92 221/23/143 238/26/159
f 238/26/159 239/25/160 142/22/92
f 242/26/163 241/25/162 240/37/161
f 240/37/161 243/25/164 242/26/163
f 242/26/163 147/23/97 148/22/98
f 148/22/98 241/25/162 242/26/163
f 148/22/98 142/22/92 239/25/160
f 239/25/160 241/25/162 148/22/98
f 245/37/166 244/25/165 243/25/164
f 243/25/164 240/37/161 245/37/166
f 167/26/117 244/25/165 245/37/166
f 245/37/166 166/25/116 167/26/117
f 247/37/168 246/25/167 166/25/116
f 166/25/116 245/37/166 247/37/168
f 247/37/168 245/37/166 240/37/161
f 240/37/161 250/37/171 247/37/168
f 250/37/171 249/25/170 248/25/169
f 248/25/169 247/37/168 250/37/171
f 239/25/160 250/37/171 240/37/161
f 240/37/161 241/25/162 239/25/160
f 238/26/159 249/25/170 250/37/171
f 250/37/171 239/25/160 238/26/159
f 242/26/163 243/25/164 149/22/99
f 149/22/99 147/23/97 242/26/163
f 151/22/101 149/22/99 243/25/164
f 243/25/164 244/25/165 151/22/101
f 151/22/101 244/25/165 167/26/117
f 167/26/117 154/23/104 151/22/101
f 235/22/156 249/25/170 238/26/159
f 238/26/159 221/23/143 235/22/156
f 251/19/172 179/20/119 175/18/118
f 175/18/118 252/21/173 251/19/172
f 255/26/176 254/23/175 253/22/174
f 253/22/174 246/25/167 255/26/176
f 255/26/176 246/25/167 247/37/168
f 247/37/168 248/25/169 255/26/176
f 181/30/64 173/32/64 165/22/115
f 165/22/115 253/22/174 181/30/64
f 253/22/174 165/22/115 166/25/116
f 166/25/116 246/25/167 253/22/174
f 252/21/173 175/18/118 253/22/174
f 253/22/174 254/23/175 252/21/173
f 257/22/178 248/25/169 249/25/170
f 249/25/170 235/22/156 257/22/178
f 235/22/156 236/18/157 237/18/158
f 237/18/158 257/22/178 235/22/156
f 252/21/173 237/18/158 256/20/177
f 256/20/177 251/19/172 252/21/173
f 257/22/178 237/18/158 252/21/173
f 252/21/173 254/23/175 257/22/178
f 255/26/176 248/25/169 257/22/178
f 257/22/178 254/23/175 255/26/176
f 256/20/177 162/20/112 161/24/111
f 161/24/111 163/24/113 256/20/177
f 163/24/113 159/24/109 160/20/110
f 160/20/110 179/20/119 163/24/113
f 251/19/172 256/20/177 163/24/113
f 163/24/113 179/20/119 251/19/172

usemtl Emission
f 94/39/180 106/39/180 109/39/179 83/39/179
f 90/39/181 220/39/181 106/39/180 94/39/180
f 91/39/182 219/40/182 220/39/181 90/39/181
f 97/39/183 218/40/183 219/40/182 91/39/182
f 99/39/184 108/40/184 218/40/183 97/39/183
f 101/39/185 107/40/185 108/40/184 99/39/184
f 103/39/186 110/40/186 107/40/185 101/39/185
f 105/41/187 112/40/187 110/40/186 103/39/186
f 88/41/188 114/40/188 112/40/187 105/41/187
f 86/41/189 113/39/189 114/40/188 88/41/188
f 82/41/190 111/39/190 113/39/189 86/41/189
f 83/41/179 109/39/179 111/39/190 82/41/190

usemtl Emission_Propeller_Arrow
f 262/46/68 261/45/68 258/42/68
f 263/45/68 262/46/68 258/42/68
f 278/42/64 279/45/64 280/46/64
f 278/42/64 280/46/64 281/45/64
f 260/44/68 259/43/191 258/42/68
f 258/42/68 261/45/68 260/44/68
f 263/45/68 258/42/68 264/47/68
f 264/47/68 265/47/68 263/45/68
f 266/48/68 265/47/68 264/47/68
f 264/47/68 267/48/68 266/48/68
f 268/49/68 266/48/68 267/48/68
f 267/48/68 269/49/68 268/49/68
f 270/50/68 268/49/68 269/49/68
f 269/49/68 271/51/68 270/50/68
f 273/50/68 272/52/68 270/50/68
f 270/50/68 271/51/68 273/50/68
f 275/54/191 274/53/68 273/50/68
f 273/50/68 271/51/68 275/54/191
f 278/42/64 277/43/64 276/44/64
f 276/44/64 279/45/64 278/42/64
f 282/47/64 278/42/64 281/45/64
f 281/45/64 283/47/64 282/47/64
f 282/47/64 283/47/64 284/48/64
f 284/48/64 285/48/64 282/47/64
f 285/48/64 284/48/64 286/49/64
f 286/49/64 287/49/64 285/48/64
f 287/49/64 286/49/64 288/50/64
f 288/50/64 289/51/64 287/49/64
f 289/51/64 288/50/64 290/52/64
f 290/52/64 291/50/64 289/51/64
f 289/51/64 291/50/64 292/53/64
f 292/53/64 293/54/64 289/51/64
f 283/47/192 281/45/192 263/45/192
f 263/45/192 265/47/192 283/47/192
f 279/45/193 276/44/193 260/44/193
f 260/44/193 261/45/193 279/45/193
f 292/53/194 291/50/194 273/50/194
f 273/50/194 274/53/194 292/53/194
f 281/45/195 280/46/195 262/46/195
f 262/46/195 263/45/195 281/45/195
f 276/44/196 277/43/196 259/43/196
f 259/43/196 260/44/196 276/44/196
f 293/54/197 292/53/197 274/53/197
f 274/53/197 275/54/197 293/54/197
f 277/43/197 278/42/197 258/42/197
f 258/42/197 259/43/197 277/43/197
f 289/51/196 293/54/196 275/54/196
f 275/54/196 271/51/196 289/51/196
f 286/49/198 284/48/198 266/48/198
f 266/48/198 268/49/198 286/49/198
f 278/42/194 282/47/194 264/47/194
f 264/47/194 258/42/194 278/42/194
f 287/49/193 289/51/193 271/51/193
f 271/51/193 269/49/193 287/49/193
f 282/47/197 285/48/197 267/48/197
f 267/48/197 264/47/197 282/47/197
f 285/48/196 287/49/196 269/49/196
f 269/49/196 267/48/196 285/48/196
f 288/50/199 286/49/199 268/49/199
f 268/49/199 270/50/199 288/50/199
f 290/52/200 288/50/200 270/50/200
f 270/50/200 272/52/200 290/52/200
f 284/48/201 283/47/201 265/47/201
f 265/47/201 266/48/201 284/48/201
f 280/46/202 279/45/202 261/45/202
f 261/45/202 262/46/202 280/46/202
f 291/50/203 290/52/203 272/52/203
f 272/52/203 273/50/203 291/50/203

usemtl Plasma
f 297/58/64 294/55/64 296/57/64 295/56/64
f 301/57/68 298/55/68 300/58/68 299/56/68
f 296/57/204 294/55/204 298/55/204 301/57/204
f 294/55/205 297/58/205 300/58/205 298/55/205
f 297/58/206 295/56/206 299/56/206 300/58/206

