# ProBuilder 6.1.2
# https://unity3d.com/unity/features/worldbuilding/probuilder
# 29.09.2026 13:29:38

mtllib ./Trampoline.mtl
o Trampoline

g trampoline_2_001
v -1.001468 0.596838 -0.3254002
v -0.8973441 0.6762303 -0.2915683
v -0.9435233 0.6762303 -3.97E-06
v -0.8857317 0.4683784 -0.6435244
v -1.04124 0.4683784 -0.3383228
v -1.053006 0.596838 -3.98E-06
v -1.094824 0.4683784 -3.98E-06
v -0.8973441 0.6762303 0.2915601
v -1.001468 0.596838 0.3253919
v -0.7686398 0.6762303 -0.2497498
v -0.6987134 0.596838 -3.95E-06
v -0.8081957 0.6762303 -3.96E-06
v -0.6645162 0.596838 0.2159098
v -0.76864 0.6762303 0.2497416
v -0.8518999 0.339919 -0.618944
v -1.001468 0.339919 -0.3254002
v -1.053006 0.339919 -3.98E-06
v -1.04124 0.4683784 0.3383145
v -0.8518999 0.596838 0.6189364
v -1.001468 0.339919 0.3253919
v -0.8857317 0.4683784 0.6435167
v -0.7633268 0.6762303 0.5545843
v -0.5545897 0.6762303 0.7633215
v -0.5652714 0.596838 0.4106887
v -0.6538444 0.6762303 0.4750407
v -0.4106941 0.596838 0.5652661
v -0.4750462 0.6762303 0.6538392
v -0.2159152 0.596838 0.664511
v 1.041237 0.4683784 -0.3383227
v 1.001466 0.596838 -0.3254001
v 0.8518974 0.596838 -0.6189444
v 1.053003 0.339919 -3.89E-06
v 1.001466 0.339919 -0.3254001
v 0.8857292 0.4683784 -0.6435246
v 0.8518974 0.339919 -0.6189444
v 0.6189392 0.596838 -0.8519024
v 0.6435195 0.4683784 -0.8857344
v 0.7633243 0.6762303 -0.5545923
v 0.4750436 0.6762303 -0.6538471
v 0.4106916 0.596838 -0.565274
v 0.215913 0.596838 -0.6645187
v 0.2497449 0.6762303 -0.7686425
v -1.1E-06 0.596838 -0.6987161
v -1.09E-06 0.6762303 -0.8081985
v -0.2159152 0.596838 -0.6645187
v -0.249747 0.6762303 -0.7686425
v -0.4106941 0.596838 -0.5652739
v 0.5545872 0.6762303 -0.7633294
v 0.2915634 0.6762303 -0.8973468
v 0.3253953 0.596838 -1.001471
v -1.08E-06 0.6762303 -0.943526
v 0.3383179 0.4683784 -1.041242
v -1.07E-06 0.596838 -1.053008
v -0.2915656 0.6762303 -0.8973468
v 0.6189392 0.339919 -0.8519024
v 0.3253953 0.339919 -1.001471
v 0.6538418 0.6762303 0.4750413
v 0.6645137 0.596838 0.2159103
v 0.7686375 0.6762303 0.2497422
v 0.5652688 0.596838 0.4106891
v 0.4750433 0.6762303 0.6538395
v 0.4106913 0.596838 0.5652665
v 0.2497449 0.6762303 0.7686348
v 0.215913 0.596838 0.664511
v 0.6189389 0.596838 0.851895
v 0.763324 0.6762303 0.5545849
v 0.851897 0.596838 0.6189371
v 0.5545869 0.6762303 0.7633219
v -1.07E-06 0.596838 1.053001
v -1.08E-06 0.6762303 0.9435183
v 0.2915634 0.6762303 0.897339
v 0.3253953 0.596838 1.001463
v -0.249747 0.6762303 0.7686348
v -1.1E-06 0.596838 0.6987084
v -1.09E-06 0.6762303 0.8081906
v -1.07E-06 0.4683784 1.094819
v 0.3383179 0.4683784 1.041234
v -1.07E-06 0.339919 1.053001
v 0.3253953 0.339919 1.001463
v 0.6435191 0.4683784 0.8857269
v 0.6189389 0.339919 0.851895
v -0.2915656 0.6762303 0.897339
v -0.4750462 0.6762303 -0.6538469
v -1.07E-06 0.4683784 -1.094827
v -0.3253975 0.596838 -1.001471
v -1.07E-06 0.339919 -1.053008
v -0.3383201 0.4683784 -1.041242
v -0.6189417 0.596838 -0.8519023
v -0.3253975 0.339919 -1.001471
v -0.6435221 0.4683784 -0.8857341
v -0.6189417 0.339919 -0.8519023
v -0.8518999 0.596838 -0.618944
v -0.5545897 0.6762303 -0.7633292
v -0.7633268 0.6762303 -0.5545921
v -0.5652714 0.596838 -0.4106965
v -0.6538444 0.6762303 -0.4750485
v -0.664516 0.596838 -0.2159179
v 1.094822 0.4683784 -3.89E-06
v 1.053003 0.596838 -3.89E-06
v 0.8081934 0.6762303 -3.89E-06
v 0.6645138 0.596838 -0.2159178
v 0.7686376 0.6762303 -0.2497497
v 0.6987112 0.596838 -3.89E-06
v 0.8973417 0.6762303 -0.2915682
v 0.943521 0.6762303 -3.89E-06
v 1.001465 0.596838 0.3253927
v 0.8973417 0.6762303 0.2915608
v 1.041237 0.4683784 0.3383153
v 0.885729 0.4683784 0.6435174
v 0.5652689 0.596838 -0.4106967
v 0.653842 0.6762303 -0.4750488
v 0.851897 0.339919 0.6189371
v 1.001465 0.339919 0.3253927
v -0.8518999 0.339919 0.6189364
v -0.6189417 0.596838 0.8518945
v -0.6435221 0.4683784 0.8857264
v -0.3253975 0.596838 1.001463
v -0.3383201 0.4683784 1.041234
v -0.6189417 0.339919 0.8518945
v -0.3253975 0.339919 1.001463
v 0.1690114 -0.4527212 -0.5201662
v 6.2E-07 -0.4527212 -0.546935
v -0.1690101 -0.4527212 -0.5201662
v 0.321478 -0.4527212 -0.4424807
v -0.321477 -0.4527212 -0.4424805
v 0.4424764 -0.4527212 -0.3214822
v -0.4424753 -0.4527212 -0.3214821
v 0.5201622 -0.4527212 -0.1690154
v -0.5201609 -0.4527212 -0.1690155
v -0.5469296 -0.4527212 -4.8E-06
v 0.5469308 -0.4527212 -4.76E-06
v -0.520161 -0.4527212 0.1690058
v 0.520162 -0.4527212 0.1690062
v -0.4424753 -0.4527212 0.3214726
v 0.4424763 -0.4527212 0.321473
v -0.321477 -0.4527212 0.442471
v 0.3214778 -0.4527212 0.4424713
v -0.1690101 -0.4527212 0.5201567
v 0.1690114 -0.4527212 0.5201567
v 6.2E-07 -0.4527212 0.5469254
v 0.3551201 0.3225235 -1.092955
v 0.3751278 0.01986877 -1.154531
v 0.7135358 0.01986877 -0.9821035
v 0.6754792 0.3225235 -0.9297233
v -1.14E-06 0.3225235 -1.1492
v -9.9E-07 0.01986877 -1.213946
v -0.3551224 0.3225235 -1.092955
v -1.14E-06 0.371343 -1.121933
v -0.3289137 0.4273065 -1.012293
v -0.3466963 0.371343 -1.067021
v -1.05E-06 0.4273065 -1.064387
v 0.3466939 0.371343 -1.067021
v 0.3289116 0.4273065 -1.012293
v 0.6594517 0.3713431 -0.9076633
v 0.6256276 0.4273065 -0.8611083
v 0.907658 0.371343 -0.6594571
v 0.8611029 0.4273065 -0.6256328
v 1.067016 0.3713431 -0.3466989
v 1.012288 0.4273065 -0.3289165
v 1.092949 0.3225235 -0.3551251
v 1.213941 0.01986877 -3.95E-06
v 1.149195 0.3225235 -4.04E-06
v 1.154526 0.01986877 -0.3751325
v 0.929718 0.3225235 -0.6754846
v 0.9820985 0.01986877 -0.7135411
v -1.149197 0.3225235 -4.14E-06
v -1.213943 0.01986877 -4.05E-06
v -1.154528 0.01986877 -0.3751327
v -1.092952 0.3225235 0.3551166
v -1.154529 0.01986877 0.3751242
v -0.9297206 0.3225235 0.6754762
v -0.9821009 0.01986877 0.7135329
v -0.6754819 0.3225235 0.929715
v -0.7135383 0.01986877 0.9820955
v -0.3551224 0.3225235 1.092946
v -0.3751298 0.01986877 1.154523
v -1.14E-06 0.3225235 1.149192
v -1.12193 0.371343 -4.13E-06
v -1.01229 0.4273065 0.3289081
v -1.067019 0.371343 0.3466905
v -0.8611055 0.4273065 0.6256245
v -0.9076607 0.371343 0.6594487
v -0.6256301 0.4273065 0.8611001
v -0.6594543 0.3713431 0.907655
v -0.3289137 0.4273065 1.012285
v -0.3466963 0.371343 1.067013
v -1.05E-06 0.4273065 1.064379
v -1.14E-06 0.371343 1.121925
v 0.3289116 0.4273065 1.012285
v 0.3466939 0.371343 1.067013
v 1.252095 -0.1880297 -4.59E-06
v 0.9576948 -0.6220364 0.3111696
v 1.190813 -0.1880297 0.3869146
v 0.8146636 -0.6220364 0.5918841
v 1.012966 -0.1880297 0.7359594
v 0.5918873 -0.6220364 0.81466
v 0.7359623 -0.1880297 1.012962
v 0.3111738 -0.6220364 0.9576905
v 0.3869187 -0.1880297 1.190809
v 0.3641608 -0.6190927 0.5012197
v 0.1914511 -0.6190927 0.5892196
v 4.6E-07 -0.6190927 0.6195424
v 0.5012245 -0.6190927 0.3641562
v 0.3864667 -0.6437509 0.5319215
v 0.2031781 -0.6437509 0.6253117
v 3.7E-07 -0.6437509 0.6574919
v 0.5319261 -0.6437509 0.3864624
v 0.7797308 -0.6437509 0.5665038
v 0.9166288 -0.6437509 0.2978264
v 0.5665072 -0.6437509 0.779727
v 0.2978307 -0.6437509 0.9166245
v -3.4E-07 -0.6437509 0.9637962
v 0.5012247 -0.6190927 -0.3641655
v 0.5892248 -0.6190927 -0.1914553
v -0.3869192 -0.1880297 -1.190818
v -0.3111746 -0.6220364 -0.9577
v -4.1E-07 -0.6220364 -1.006985
v -2.5E-07 -0.1880297 -1.2521
v 0.3111738 -0.6220364 -0.9577
v 0.3869187 -0.1880297 -1.190818
v 0.5918877 -0.6220364 -0.8146692
v 0.7359629 -0.1880297 -1.012971
v 0.8146639 -0.6220364 -0.591893
v 0.364161 -0.6190927 -0.501229
v 0.1914511 -0.6190927 -0.5892291
v 0.5319263 -0.6437509 -0.3864715
v 0.386467 -0.6437509 -0.5319307
v 0.2031781 -0.6437509 -0.6253211
v 3.7E-07 -0.6437509 -0.6575013
v 0.779731 -0.6437509 -0.5665128
v 0.5665075 -0.6437509 -0.7797362
v 0.2978307 -0.6437509 -0.916634
v -3.4E-07 -0.6437509 -0.9638059
v -1.190814 -0.1880297 0.3869137
v -0.957696 -0.6220364 0.3111689
v -1.006981 -0.6220364 -4.83E-06
v -1.252096 -0.1880297 -4.7E-06
v -0.9576957 -0.6220364 -0.3111789
v -1.190814 -0.1880297 -0.3869234
v -1.012967 -0.1880297 0.7359585
v -0.814665 -0.6220364 0.5918834
v -0.5012239 -0.6190927 -0.3641653
v -0.5892239 -0.6190927 -0.1914554
v -0.6195468 -0.6190927 -4.81E-06
v -0.589224 -0.6190927 0.1914456
v -0.6574962 -0.6437509 -4.81E-06
v -0.6253162 -0.6437509 0.2031726
v -0.5319257 -0.6437509 -0.3864714
v -0.6253161 -0.6437509 -0.2031824
v -0.9166298 -0.6437509 0.2978258
v -0.779732 -0.6437509 0.5665032
v -0.9638016 -0.6437509 -4.83E-06
v -0.9166296 -0.6437509 -0.2978357
v -0.779732 -0.6437509 -0.5665125
v -0.3751298 0.01986877 -1.154531
v -0.6754819 0.3225235 -0.9297231
v -0.7135383 0.01986877 -0.9821034
v -0.9297206 0.3225235 -0.6754843
v -0.9821009 0.01986877 -0.7135407
v -1.092952 0.3225235 -0.3551252
v -1.064384 0.4273065 -4.12E-06
v -1.067019 0.371343 -0.3466991
v -1.01229 0.4273065 -0.3289166
v -0.9076607 0.371343 -0.6594568
v -0.8611055 0.4273065 -0.6256326
v -0.6594544 0.371343 -0.9076631
v -0.6256301 0.4273065 -0.861108
v -0.3869192 -0.1880297 1.190809
v -0.3111746 -0.6220364 0.9576905
v -0.591889 -0.6220364 0.8146595
v -0.7359639 -0.1880297 1.012962
v -0.5665087 -0.6437509 0.7797267
v 1.154526 0.01986877 0.3751251
v 1.092949 0.3225235 0.3551174
v 0.9820982 0.01986877 0.7135336
v 0.9297177 0.3225235 0.675477
v 0.7135354 0.01986877 0.9820961
v 0.6754788 0.3225235 0.9297156
v 0.3751278 0.01986877 1.154523
v 0.3551201 0.3225235 1.092946
v -9.9E-07 0.01986877 1.213938
v 1.121927 0.3713431 -4.04E-06
v 1.064382 0.4273065 -4.02E-06
v 1.067016 0.3713431 0.3466913
v 1.012287 0.4273065 0.3289088
v 0.9076577 0.371343 0.6594495
v 0.8611028 0.4273065 0.6256253
v 0.6594512 0.371343 0.9076555
v 0.6256272 0.4273065 0.8611006
v -4.1E-07 -0.6220364 1.006976
v -2.5E-07 -0.1880297 1.252091
v -0.5012239 -0.6190927 0.3641558
v -0.3641604 -0.6190927 0.5012195
v -0.1914502 -0.6190927 0.5892196
v -0.5319257 -0.6437509 0.3864619
v -0.3864666 -0.6437509 0.5319211
v -0.2031773 -0.6437509 0.6253116
v -0.2978314 -0.6437509 0.9166245
v 1.190813 -0.1880297 -0.3869233
v 0.957695 -0.6220364 -0.3111787
v 1.00698 -0.6220364 -4.74E-06
v 0.6195477 -0.6190927 -4.75E-06
v 1.012966 -0.1880297 -0.7359678
v 0.5892248 -0.6190927 0.1914461
v 0.657497 -0.6437509 -4.75E-06
v 0.6253169 -0.6437509 -0.2031823
v 0.6253167 -0.6437509 0.2031731
v 0.9638006 -0.6437509 -4.75E-06
v 0.916629 -0.6437509 -0.2978356
v -0.7359639 -0.1880297 -1.012971
v -0.591889 -0.6220364 -0.814669
v -0.814665 -0.6220364 -0.5918928
v -1.012967 -0.1880297 -0.7359675
v -0.1914502 -0.6190927 -0.5892291
v 4.6E-07 -0.6190927 -0.619552
v -0.3641604 -0.6190927 -0.5012289
v -0.3864666 -0.6437509 -0.5319306
v -0.2031773 -0.6437509 -0.6253211
v -0.2978314 -0.6437509 -0.916634
v -0.5665087 -0.6437509 -0.7797361
v -2.4E-07 -0.171192 1.32578
v -2.4E-07 0.09324849 1.328883
v 0.4106487 0.09324849 1.263842
v 0.4096899 -0.171192 1.260891
v -1.298918 -0.1973396 -4.81E-06
v -1.235345 -0.1973396 0.4013825
v 1.298917 -0.1973396 -4.71E-06
v 1.235344 -0.1973396 0.4013834
v -1.050847 -0.1973396 0.7634797
v 1.050846 -0.1973396 0.7634804
v -0.7634852 -0.1973396 1.050842
v -1.260897 -0.171192 0.4096847
v -1.263848 0.09324849 0.4106435
v -1.075093 0.09324849 0.7810954
v -1.072583 -0.171192 0.7792717
v -0.7811009 0.09324849 1.075088
v -0.7792771 -0.171192 1.072577
v -0.4106492 0.09324849 1.263842
v -0.4096904 -0.171192 1.260891
v 0.4026654 0.1229903 1.239272
v 0.7659144 0.1229903 1.054188
v -1.054192 0.1229903 0.7659103
v -0.7659156 0.1229903 1.054187
v -0.4026657 0.1229903 1.239272
v -1.9E-07 0.1229903 1.303048
v -0.4013881 -0.1973396 1.235339
v -2.4E-07 -0.1973396 1.298913
v 0.64676 0.1507736 0.890185
v 0.3400224 0.1507736 1.046475
v 2.2E-07 0.1507736 1.10033
v -0.3400219 0.1507736 1.046475
v -0.6467602 0.1507736 0.8901845
v -0.8901892 0.1507736 0.6467553
v 1.072582 -0.171192 -0.7792812
v 0.7811 0.09324849 -1.075097
v 0.7792762 -0.171192 -1.072587
v 1.075092 0.09324849 -0.7811051
v 1.260896 -0.171192 -0.4096946
v 1.263847 0.09324849 -0.4106533
v 0.4106487 0.09324849 -1.263852
v 0.4096899 -0.171192 -1.260901
v -2.4E-07 0.09324849 -1.328892
v -2.4E-07 -0.171192 -1.325789
v 0.4013876 -0.1973396 -1.235349
v -2.4E-07 -0.1973396 -1.298922
v -0.4013881 -0.1973396 -1.235349
v 0.7634842 -0.1973396 -1.050851
v -0.4106492 0.09324849 -1.263852
v -0.4096904 -0.171192 -1.260901
v -0.7811009 0.09324849 -1.075097
v -0.7792771 -0.171192 -1.072587
v -0.4026658 0.1229903 -1.239282
v -0.7659156 0.1229903 -1.054196
v 1.054191 0.1229903 -0.7659199
v 0.7659147 0.1229903 -1.054197
v 0.4026654 0.1229903 -1.239282
v -1.9E-07 0.1229903 -1.303058
v 1.050846 -0.1973396 -0.7634892
v 0.8901894 0.1507736 -0.646765
v 0.6467602 0.1507736 -0.8901938
v 0.3400224 0.1507736 -1.046485
v 2.2E-07 0.1507736 -1.100339
v -0.3400219 0.1507736 -1.046485
v -0.6467602 0.1507736 -0.8901938
v -0.8901892 0.1507736 -0.6467646
v 0.7810994 0.09324849 1.075088
v 0.7792757 -0.171192 1.072578
v 1.075092 0.09324849 0.7810964
v 1.072582 -0.171192 0.7792725
v 1.325784 -0.171192 -4.7E-06
v 1.328887 0.09324849 -4.7E-06
v 1.263847 0.09324849 0.4106445
v 1.260895 -0.171192 0.4096857
v 0.7634836 -0.1973396 1.050842
v 0.4013876 -0.1973396 1.235339
v 1.239277 0.1229903 -0.40267
v 1.303053 0.1229903 -4.7E-06
v 1.239276 0.1229903 0.4026612
v 1.054191 0.1229903 0.7659112
v 1.04648 0.1507736 0.3400176
v 1.100335 0.1507736 -4.7E-06
v 1.04648 0.1507736 -0.3400266
v 0.8901889 0.1507736 0.6467561
v -0.7634852 -0.1973396 -1.050851
v -1.050847 -0.1973396 -0.7634889
v 1.235344 -0.1973396 -0.4013923
v -1.235344 -0.1973396 -0.4013925
v -1.075093 0.09324849 -0.7811047
v -1.072583 -0.171192 -0.7792809
v -1.263847 0.09324849 -0.4106535
v -1.260896 -0.171192 -0.4096947
v -1.328888 0.09324849 -4.81E-06
v -1.325785 -0.171192 -4.81E-06
v -1.054192 0.1229903 -0.7659195
v -1.239277 0.1229903 -0.4026702
v -1.303053 0.1229903 -4.81E-06
v -1.239277 0.1229903 0.4026602
v -1.04648 0.1507736 0.3400168
v -1.04648 0.1507736 -0.3400268
v -1.100334 0.1507736 -4.8E-06
v -0.4737456 0.605999 -0.6520481
v -0.2490664 0.605999 -0.7665272
v -0.206196 0.7135334 -0.6345844
v -0.3922015 0.7135334 -0.5398045
v -0.652052 0.605999 -0.4737339
v -7.27E-06 0.7135334 -0.6672382
v -7.5E-06 0.605999 -0.8059711
v -0.5398163 0.7135334 -0.3921909
v -0.7665318 0.605999 -0.2490559
v -0.07306933 0.7840414 -0.461298
v 0.2061813 0.7135334 -0.6345844
v 0.2490512 0.605999 -0.7665195
v 0.2120262 0.7840414 -0.4161396
v 0.3921867 0.7135334 -0.5398045
v 0.4737303 0.605999 -0.6520405
v -7.5E-06 0.8350191 -1.907349E-06
v -0.3302577 0.7840414 -0.3302479
v 0.416132 0.7840414 -0.2120304
v 0.5398015 0.7135334 -0.3921909
v 0.6520367 0.605999 -0.4737339
v 0.634576 0.7135334 -0.2061863
v 0.7665164 0.605999 -0.2490559
v 0.6672332 0.7135334 -1.907349E-06
v 0.8059635 0.605999 -1.907349E-06
v -0.4613018 0.7840414 -0.07306099
v 0.4612867 0.7840414 0.0730648
v 0.6345761 0.7135334 0.2061901
v 0.7665165 0.605999 0.2490597
v 0.3302427 0.7840414 0.3302517
v 0.5398015 0.7135334 0.3921947
v 0.6520368 0.605999 0.4737377
v 0.3921868 0.7135334 0.5398083
v 0.4737304 0.605999 0.6520443
v 0.2061813 0.7135334 0.6345806
v 0.2490513 0.605999 0.7665234
v 0.07305429 0.7840414 0.4612942
v -7.34E-06 0.7135334 0.6672421
v -7.5E-06 0.605999 0.805975
v -0.2120413 0.7840414 0.4161434
v -0.206196 0.7135334 0.6345806
v -0.2490662 0.605999 0.7665234
v -0.3922015 0.7135334 0.5398083
v -0.4737454 0.605999 0.6520443
v -0.5398162 0.7135334 0.3921947
v -0.6520519 0.605999 0.4737377
v -0.4161471 0.7840414 0.2120342
v -0.6345908 0.7135334 0.2061901
v -0.7665318 0.605999 0.2490597
v -0.6672478 0.7135334 -1.907349E-06
v -0.8059788 0.605999 -1.907349E-06
v -0.6345908 0.7135334 -0.2061863
v 0.3562579 -1.94136 -0.1475697
v 0.3856108 -1.94136 -9.536743E-06
v 0.550756 -0.6744528 -9.536743E-06
v 0.5088323 -0.6744528 -0.2107716
v 0.2726682 -1.94136 -0.2726765
v 0.3894438 -0.6744528 -0.3894444
v 0.1475673 -1.94136 -0.3562641
v 0.2107664 -0.6744528 -0.5088367
v 6.5E-07 -1.94136 -0.3856144
v 1.91E-06 -0.6744528 -0.5507603
v -0.147566 -1.94136 -0.3562641
v -0.2107626 -0.6744528 -0.5088367
v -0.2726669 -1.94136 -0.2726765
v -0.38944 -0.6744528 -0.3894444
v -0.3562567 -1.94136 -0.1475697
v -0.5088285 -0.6744528 -0.2107716
v -0.3856095 -1.94136 -9.536743E-06
v -0.5507521 -0.6744528 -9.536743E-06
v 0.5088323 -0.6744528 0.2107601
v 0.3562579 -1.94136 0.1475582
v 0.3894438 -0.6744528 0.3894329
v 0.2726682 -1.94136 0.272665
v 0.2107664 -0.6744528 0.5088253
v 0.1475673 -1.94136 0.3562527
v 1.91E-06 -0.6744528 0.5507488
v 6.5E-07 -1.94136 0.385603
v -0.2107626 -0.6744528 0.5088253
v -0.147566 -1.94136 0.3562527
v -0.38944 -0.6744528 0.3894329
v -0.2726669 -1.94136 0.272665
v -0.5088285 -0.6744528 0.2107601
v -0.3562567 -1.94136 0.1475582

vt 0.302109 0.237779
vt 0.302109 0.24651
vt 0.302109 0.223651
vt 0.302109 0.179324
vt 0.302109 0.150928
vt 0.302109 0.209523
vt 0.354167 0.206436
vt 0.700547 0.208586
vt 0.700547 0.179492
vt 0.700547 0.214028
vt 0.700547 0.236947
vt 0.700547 0.282805
vt 0.700547 0.288247
vt 0.245653 0.15838
vt 0.8687 0.080255
vt 0.245653 0.246968
vt 0.880535 0.172199
vt 0.880535 0.23455
vt 0.880535 0.164351
vt 0.880535 0.278844
vt 0.880535 0.286692
vt 0.880535 0.216493
vt 0.880535 0.208645
vt 0.880535 0.242398
vt 0.023789 0.083556
vt 0.023789 0.140101
vt 0.023789 0.218794
vt 0.023789 0.271455
vt 0.771337 0.005241
vt 0.793685 0.005241
vt 0.919467 0.982456
vt 0.887544 0.982456
vt 0.707679 0.005241
vt 0.796617 0.982456
vt 0.612393 0.005241
vt 0.660527 0.982456
vt 0.500003 0.005241
vt 0.500003 0.982456
vt 0.387613 0.005241
vt 0.33947 0.982456
vt 0.292336 0.005241
vt 0.203399 0.982456
vt 0.22866 0.005241
vt 0.112453 0.982456
vt 0.206311 0.005241
vt 0.080529 0.982456

vn -0.7683825 0.589285 -0.2496627
vn -0.2928517 0.9514114 -0.09515329
vn -0.3079224 0.9514114 -2.551155E-08
vn -0.8090171 -2.614852E-07 -0.5877851
vn -0.9510565 -1.90171E-07 -0.3090171
vn -0.807925 0.5892853 -2.447579E-07
vn -1 -2.218662E-07 -2.69409E-07
vn -0.2928515 0.9514115 0.09515309
vn -0.7683824 0.5892853 0.2496624
vn 0.2928519 0.9514114 0.09515335
vn 0.5870532 0.8095484 1.795852E-07
vn 0.3079226 0.9514114 1.000838E-07
vn 0.5583208 0.8095484 -0.1814092
vn 0.2928519 0.9514114 -0.09515325
vn -0.769281 -0.3095492 -0.5589151
vn -0.904344 -0.3095489 -0.2938393
vn -0.9508834 -0.3095491 -2.109689E-07
vn -0.9510566 -2.456375E-07 0.3090168
vn -0.6536252 0.5892851 0.4748865
vn -0.9043441 -0.3095487 0.2938389
vn -0.8090171 -7.923791E-08 0.5877851
vn -0.2491146 0.9514114 0.1809922
vn -0.1809924 0.9514114 0.2491146
vn 0.4749361 0.8095483 -0.3450612
vn 0.2491147 0.9514114 -0.1809923
vn 0.3450613 0.8095486 -0.4749357
vn 0.1809924 0.9514114 -0.2491145
vn 0.1814094 0.8095483 -0.5583208
vn 0.9510565 -3.248755E-07 -0.309017
vn 0.7683824 0.5892853 -0.2496625
vn 0.6536253 0.589285 -0.4748866
vn 0.9508834 -0.3095493 1.054845E-07
vn 0.9043438 -0.3095492 -0.2938392
vn 0.809017 -1.822472E-07 -0.5877852
vn 0.7692811 -0.3095486 -0.5589153
vn 0.4748866 0.5892851 -0.6536251
vn 0.5877853 -1.743234E-07 -0.8090169
vn -0.3450612 0.8095484 0.4749359
vn -0.1814094 0.8095484 0.5583207
vn -0.09515335 0.9514114 0.2928518
vn -5.612038E-08 0.8095484 0.5870531
vn -1.766184E-08 0.9514114 0.3079225
vn 0.1814094 0.8095484 0.5583207
vn 0.09515336 0.9514114 0.2928518
vn 0.3450613 0.8095484 0.4749359
vn 0.09515335 0.9514114 -0.2928517
vn 0.2496627 0.5892852 -0.7683824
vn 2.354912E-08 0.9514114 -0.3079224
vn 0.3090172 -2.694089E-07 -0.9510565
vn 5.132021E-08 0.5892853 -0.807925
vn -0.0951533 0.9514114 -0.2928516
vn 0.5589152 -0.3095494 -0.7692808
vn 0.2938395 -0.3095489 -0.9043438
vn -0.2491145 0.9514114 -0.1809925
vn -0.5583208 0.8095483 -0.1814096
vn -0.4749358 0.8095484 -0.3450615
vn -0.1809923 0.9514114 -0.2491147
vn -0.3450611 0.8095483 -0.4749361
vn -0.1814094 0.8095482 -0.5583209
vn 0.4748862 0.5892851 0.6536253
vn 0.2491145 0.9514114 0.1809924
vn 0.6536249 0.5892853 0.4748867
vn 0.1809923 0.9514114 0.2491146
vn -1.579083E-08 0.5892851 0.8079252
vn 0.2496625 0.589285 0.7683826
vn 1.496543E-08 0.8095482 -0.5870534
vn 0 -1.90171E-07 1
vn 0.3090169 -2.060186E-07 0.9510566
vn 7.534604E-08 -0.3095491 0.9508835
vn 0.293839 -0.3095488 0.9043441
vn 0.5877848 -7.923793E-08 0.8090173
vn 0.5589149 -0.3095492 0.7692811
vn 1.188569E-08 -2.060186E-07 -1
vn -0.2496628 0.5892851 -0.7683825
vn -5.274223E-08 -0.3095491 -0.9508835
vn -0.3090172 -1.980948E-07 -0.9510565
vn -0.4748867 0.5892851 -0.6536251
vn -0.2938393 -0.3095488 -0.904344
vn -0.5877854 -1.426283E-07 -0.8090169
vn -0.5589154 -0.3095493 -0.7692807
vn -0.6536252 0.5892853 -0.4748864
vn 0.4749361 0.8095483 0.3450611
vn 0.5583209 0.8095483 0.1814094
vn 1 -9.508551E-08 2.020567E-07
vn 0.8079252 0.5892851 9.4745E-08
vn -0.5583209 0.8095483 0.1814095
vn -0.5870532 0.8095484 -1.421716E-07
vn 0.7683825 0.589285 0.2496628
vn 0.9510565 -2.694089E-07 0.3090173
vn 0.8090169 -2.69409E-07 0.5877855
vn -0.4749359 0.8095484 0.3450613
vn 0.7692806 -0.3095494 0.5589154
vn 0.9043438 -0.3095489 0.2938395
vn -0.7692809 -0.3095492 0.5589152
vn -0.4748865 0.5892852 0.6536251
vn -0.5877853 -2.377138E-07 0.8090169
vn -0.2496627 0.589285 0.7683826
vn -0.3090171 -2.377137E-07 0.9510565
vn -0.5589152 -0.3095494 0.7692809
vn -0.2938393 -0.3095488 0.904344
vn 0 -1 0
vn 0.2891818 0.3525012 -0.8900095
vn 0.30218 0.2091925 -0.9300138
vn 0.5747802 0.2091926 -0.791117
vn 0.5500563 0.3525003 -0.7570876
vn -1.523033E-08 0.3525009 -0.9358115
vn -2.261824E-08 0.2091923 -0.9778745
vn -0.2891818 0.3525008 -0.8900096
vn 7.588254E-09 0.6088444 -0.7932897
vn -0.2154426 0.7168901 -0.6630634
vn -0.24514 0.6088447 -0.7544631
vn 7.495867E-09 0.7168897 -0.6971866
vn 0.2451401 0.6088442 -0.7544634
vn 0.2154424 0.71689 -0.6630636
vn 0.4662842 0.6088439 -0.6417852
vn 0.4097956 0.7168906 -0.5640349
vn 0.6417848 0.6088447 -0.4662836
vn 0.5640354 0.7168903 -0.4097956
vn 0.7544637 0.6088439 -0.24514
vn 0.6630644 0.7168891 -0.2154428
vn 0.8900096 0.352501 -0.2891814
vn 0.9778744 0.2091927 -6.785471E-08
vn 0.9358115 0.3525008 -1.903791E-08
vn 0.930014 0.209193 -0.3021794
vn 0.7570875 0.3525008 -0.5500562
vn 0.791117 0.2091929 -0.5747801
vn -0.9358114 0.352501 -3.236444E-07
vn -0.9778745 0.2091922 -1.960247E-07
vn -0.9300138 0.2091926 -0.30218
vn -0.8900097 0.3525009 0.2891814
vn -0.930014 0.2091925 0.3021796
vn -0.7570876 0.3525005 0.5500562
vn -0.7911171 0.2091926 0.5747801
vn -0.5500563 0.3525009 0.7570873
vn -0.5747803 0.2091926 0.791117
vn -0.2891817 0.352501 0.8900096
vn -0.3021799 0.2091927 0.9300138
vn 1.142274E-08 0.3525006 0.9358116
vn -0.7932893 0.6088449 -2.731772E-07
vn -0.663063 0.7168906 0.2154421
vn -0.7544631 0.6088449 0.2451397
vn -0.5640349 0.7168909 0.4097951
vn -0.6417848 0.6088445 0.4662839
vn -0.4097956 0.7168903 0.5640353
vn -0.4662841 0.6088443 0.6417849
vn -0.2154423 0.71689 0.6630635
vn -0.24514 0.6088448 0.754463
vn -1.349256E-07 0.7168908 0.6971855
vn 6.450018E-08 0.6088445 0.7932897
vn 0.2154424 0.71689 0.6630635
vn 0.2451401 0.6088442 0.7544634
vn 0.8707286 -0.491764 1.429009E-07
vn 0.6553898 -0.7246494 0.2129492
vn 0.8281119 -0.491764 0.2690701
vn 0.5575076 -0.7246496 0.4050533
vn 0.7044339 -0.4917641 0.5118017
vn 0.4050527 -0.7246496 0.5575081
vn 0.5118008 -0.4917639 0.7044346
vn 0.2129491 -0.7246495 0.6553898
vn 0.26907 -0.4917641 0.8281119
vn -0.4480158 -0.6473294 -0.6166413
vn -0.5387061 -0.4000301 -0.7414659
vn -0.2832146 -0.4000302 -0.8716452
vn -0.2355358 -0.6473294 -0.7249051
vn 5.270068E-08 -0.4000303 -0.9165019
vn -3.721105E-08 -0.64733 -0.7622099
vn -0.6166411 -0.6473292 -0.4480164
vn 0.2832145 -0.4000306 -0.871645
vn -0.1667012 -0.95894 -0.2294447
vn -0.08763993 -0.9589401 -0.269728
vn 1.167791E-08 -0.9589401 -0.2836084
vn -0.2294445 -0.95894 -0.1667013
vn 0.1865473 -0.9730521 0.1355347
vn 0.2192996 -0.9730521 0.07125483
vn 0.1355343 -0.9730523 0.1865471
vn 0.07125468 -0.9730521 0.2192997
vn 9.008878E-08 -0.9730523 0.2305847
vn -0.6166413 -0.6473291 0.4480162
vn -0.8716455 -0.4000294 0.2832147
vn -0.7249053 -0.6473291 0.235536
vn -0.7414657 -0.4000297 0.5387065
vn -0.2690702 -0.4917636 -0.8281122
vn -0.2129493 -0.7246495 -0.6553896
vn 6.855122E-08 -0.7246498 -0.6891173
vn 1.203376E-07 -0.4917635 -0.8707288
vn 0.2129492 -0.7246494 -0.6553898
vn 0.26907 -0.4917638 -0.8281122
vn 0.4050531 -0.7246496 -0.5575078
vn 0.5118016 -0.4917637 -0.7044342
vn 0.5575081 -0.7246493 -0.4050533
vn -0.4480161 -0.6473292 0.6166413
vn -0.5387064 -0.4000297 0.7414658
vn -0.235536 -0.6473294 0.7249051
vn -0.2832147 -0.4000301 0.8716453
vn -0.2294446 -0.95894 0.1667013
vn -0.1667013 -0.95894 0.2294447
vn -0.08764 -0.95894 0.2697282
vn 2.724847E-08 -0.95894 0.2836089
vn 0.1865473 -0.9730521 -0.1355346
vn 0.1355344 -0.9730522 -0.1865472
vn 0.07125482 -0.9730522 -0.2192994
vn -5.175313E-08 -0.9730523 -0.2305846
vn -0.8281124 -0.4917635 0.2690698
vn -0.6553896 -0.7246498 0.2129489
vn -0.6891174 -0.7246497 -2.604946E-07
vn -0.8707289 -0.4917634 -3.309283E-07
vn -0.6553898 -0.7246494 -0.2129492
vn -0.8281124 -0.4917635 -0.26907
vn -0.7044345 -0.4917638 0.5118012
vn -0.5575079 -0.7246496 0.4050529
vn 0.6166409 -0.64733 0.4480156
vn 0.7414656 -0.4000309 0.5387059
vn 0.5387062 -0.4000306 0.7414656
vn 0.7249045 -0.6473303 0.2355356
vn 0.8716449 -0.4000309 0.2832145
vn 0.7622099 -0.64733 2.565604E-07
vn 0.9165016 -0.400031 2.03274E-07
vn 0.7249045 -0.6473303 -0.2355355
vn 0.2836088 -0.9589401 9.147701E-08
vn 0.2697276 -0.9589402 -0.08763969
vn 0.2294443 -0.9589401 0.166701
vn 0.2697275 -0.9589402 0.0876397
vn -0.2192991 -0.9730523 0.07125458
vn -0.1865473 -0.9730522 0.1355344
vn -0.2305845 -0.9730523 -3.25853E-08
vn -0.2192992 -0.9730523 -0.07125469
vn -0.1865472 -0.9730522 -0.1355343
vn -0.3021799 0.2091923 -0.930014
vn -0.5500564 0.3525005 -0.7570875
vn -0.5747803 0.2091923 -0.791117
vn -0.7570876 0.3525003 -0.5500562
vn -0.7911172 0.2091923 -0.5747802
vn -0.8900097 0.3525005 -0.2891818
vn -0.6971851 0.7168912 -3.035826E-07
vn -0.7544631 0.6088446 -0.24514
vn -0.6630624 0.7168912 -0.215442
vn -0.6417847 0.6088447 -0.4662838
vn -0.5640347 0.7168911 -0.4097951
vn -0.4662839 0.6088448 -0.6417845
vn -0.4097954 0.7168908 -0.5640348
vn -0.2690699 -0.491764 0.8281121
vn -0.212949 -0.7246494 0.6553899
vn -0.4050531 -0.7246496 0.5575078
vn -0.5118014 -0.4917639 0.7044342
vn -0.1355345 -0.9730522 0.1865472
vn 0.9300137 0.2091931 0.3021798
vn 0.8900095 0.352501 0.2891817
vn 0.7911168 0.2091932 0.5747803
vn 0.7570872 0.3525009 0.5500565
vn 0.5747797 0.2091932 0.7911172
vn 0.5500557 0.3525013 0.7570875
vn 0.3021798 0.209193 0.9300138
vn 0.2891816 0.3525014 0.8900095
vn -3.015765E-08 0.2091929 0.9778744
vn 0.7932901 0.6088438 4.552953E-08
vn 0.6971869 0.7168894 1.236818E-07
vn 0.7544637 0.6088437 0.2451402
vn 0.6630642 0.7168894 0.2154427
vn 0.6417848 0.6088442 0.4662844
vn 0.5640354 0.7168899 0.4097962
vn 0.4662837 0.6088443 0.6417851
vn 0.409796 0.7168893 0.5640363
vn -1.371024E-08 -0.7246499 0.6891172
vn -5.264769E-08 -0.491764 0.8707285
vn 0.616641 -0.64733 -0.4480155
vn 0.7414655 -0.400031 -0.5387059
vn 0.871645 -0.4000309 -0.2832142
vn 0.4480156 -0.6473301 -0.6166407
vn 0.5387061 -0.4000309 -0.7414654
vn 0.2355358 -0.6473298 -0.7249048
vn 0.2294444 -0.9589401 -0.1667009
vn 0.166701 -0.9589401 -0.2294442
vn 0.08763998 -0.95894 -0.2697281
vn -0.0712547 -0.9730522 0.2192994
vn 0.8281121 -0.4917638 -0.26907
vn 0.65539 -0.7246494 -0.2129492
vn 0.6891176 -0.7246496 1.566884E-07
vn -0.9165023 -0.4000294 -1.58102E-07
vn -0.7622107 -0.647329 -1.135916E-07
vn 0.7044344 -0.4917637 -0.5118015
vn -0.8716453 -0.4000295 -0.2832151
vn -0.7249054 -0.6473289 -0.2355363
vn -0.7414656 -0.4000296 -0.5387069
vn -0.2836093 -0.9589399 -8.953069E-08
vn -0.2697282 -0.95894 0.08763997
vn -0.2697285 -0.95894 -0.08764018
vn 0.2305851 -0.9730522 3.066852E-08
vn 0.2192998 -0.9730521 -0.07125477
vn -0.5118017 -0.4917636 -0.7044343
vn -0.4050533 -0.7246495 -0.5575078
vn -0.557508 -0.7246495 -0.405053
vn -0.7044346 -0.4917635 -0.5118012
vn 0.2355359 -0.6473297 0.7249048
vn -4.517201E-08 -0.4000303 0.9165019
vn -1.762628E-08 -0.6473294 0.7622103
vn 0.2832148 -0.4000306 0.871645
vn 0.4480158 -0.64733 0.6166407
vn 0.166701 -0.9589401 0.2294441
vn 0.08763997 -0.95894 0.2697281
vn -0.07125472 -0.9730522 -0.2192995
vn -0.1355345 -0.9730522 -0.1865471
vn 2.035561E-09 -0.3955472 0.9184456
vn 2.012344E-08 0.3454757 0.9384277
vn 0.2899902 0.3454743 0.8924983
vn 0.2838152 -0.3955474 0.8734937
vn -0.3752648 -0.9269177 -1.129298E-07
vn -0.3568985 -0.9269175 0.1159632
vn 0.3752639 -0.926918 -6.856448E-08
vn 0.3568986 -0.9269174 0.1159635
vn -0.3035963 -0.9269173 0.2205756
vn 0.303596 -0.9269174 0.2205755
vn -0.1757574 -0.954248 0.2419094
vn -0.8734941 -0.3955463 0.2838152
vn -0.8924984 0.3454741 0.28999
vn -0.7592045 0.3454744 0.551594
vn -0.7430387 -0.3955459 0.539849
vn -0.5515941 0.3454753 0.759204
vn -0.5398492 -0.3955457 0.7430388
vn -0.2899902 0.3454754 0.8924979
vn -0.2838153 -0.3955471 0.8734938
vn 0.146685 0.8801568 0.4514504
vn 0.2790123 0.8801562 0.3840277
vn -0.3840274 0.8801563 0.2790122
vn -0.2790118 0.8801567 0.3840268
vn -0.146685 0.8801569 0.4514503
vn -5.4426E-08 0.8801572 0.4746822
vn -0.115963 -0.9269179 0.3568977
vn -5.601888E-08 -0.8680937 0.4964004
vn 0.07981201 0.9907384 0.1098519
vn 0.04195961 0.9907384 0.1291385
vn 2.980921E-08 0.9907385 0.1357843
vn -0.0419596 0.9907385 0.1291384
vn -0.07981182 0.9907385 0.1098516
vn -0.1098515 0.9907385 0.07981174
vn 0.7430387 -0.395546 -0.539849
vn 0.5515943 0.3454747 -0.7592041
vn 0.5398492 -0.3955458 -0.7430385
vn 0.7592044 0.3454743 -0.5515942
vn 0.8734939 -0.3955467 -0.2838154
vn 0.8924984 0.3454741 -0.2899903
vn 0.2899905 0.3454747 -0.8924981
vn 0.2838156 -0.3955457 -0.8734943
vn 3.622218E-08 0.3454751 -0.9384279
vn 3.460454E-08 -0.3955465 -0.9184459
vn 0.1533968 -0.8680928 -0.4721062
vn -1.093702E-07 -0.8680933 -0.4964011
vn -0.1159636 -0.9269171 -0.3568993
vn 0.2205756 -0.9269173 -0.3035962
vn -0.2899905 0.345475 -0.892498
vn -0.2838157 -0.3955458 -0.8734943
vn -0.5515943 0.3454749 -0.759204
vn -0.5398494 -0.3955452 -0.7430388
vn -0.1466852 0.8801569 -0.4514501
vn -0.2790116 0.8801569 -0.3840264
vn 0.3840274 0.8801563 -0.2790123
vn 0.2790121 0.8801565 -0.3840271
vn 0.1466854 0.8801566 -0.4514507
vn 2.09715E-08 0.8801569 -0.474683
vn 0.2419093 -0.954248 -0.1757573
vn 0.1098519 0.9907384 -0.07981215
vn 0.07981206 0.9907384 -0.1098518
vn 0.0419597 0.9907384 -0.1291385
vn 1.117846E-08 0.9907385 -0.1357842
vn -0.04195965 0.9907385 -0.1291384
vn -0.07981191 0.9907385 -0.1098516
vn -0.1098515 0.9907385 -0.0798118
vn 0.551594 0.3454739 0.7592047
vn 0.5398486 -0.3955463 0.7430387
vn 0.7592038 0.3454753 0.5515944
vn 0.7430383 -0.3955462 0.5398493
vn 0.9184457 -0.3955471 2.096629E-07
vn 0.9384285 0.3454734 9.860473E-08
vn 0.8924981 0.3454745 0.2899904
vn 0.8734943 -0.3955457 0.2838157
vn 0.1757571 -0.954248 0.2419093
vn 0.1533961 -0.8680937 0.4721048
vn 0.4514517 0.880156 -0.1466855
vn 0.4746844 0.880156 -2.54654E-08
vn 0.4514503 0.8801568 0.1466853
vn 0.3840266 0.8801567 0.279012
vn 0.1291388 0.9907384 0.04195977
vn 0.1357845 0.9907384 2.515152E-08
vn 0.1291387 0.9907384 -0.04195971
vn 0.1098519 0.9907384 0.07981214
vn -0.2205758 -0.9269172 -0.3035965
vn -0.3035962 -0.9269174 -0.2205754
vn 0.2843812 -0.9542481 -0.09240101
vn -0.3568983 -0.9269175 -0.1159633
vn -0.7592043 0.3454747 -0.5515941
vn -0.7430388 -0.3955458 -0.539849
vn -0.8924981 0.3454747 -0.2899902
vn -0.8734941 -0.3955463 -0.2838154
vn -0.9384283 0.3454742 -2.595921E-07
vn -0.9184459 -0.3955466 -3.623299E-07
vn -0.3840268 0.8801567 -0.2790117
vn -0.4514504 0.8801568 -0.1466852
vn -0.4746836 0.8801565 -1.153433E-07
vn -0.4514512 0.8801564 0.1466852
vn -0.1291382 0.9907385 0.04195952
vn -0.1291382 0.9907385 -0.04195955
vn -0.1357839 0.9907385 -4.19192E-08
vn -0.3600976 0.7903765 -0.4956153
vn -0.1893084 0.7903697 -0.5826474
vn -0.1454881 0.8800703 -0.4520061
vn -0.2801681 0.8800716 -0.3833794
vn -0.4956323 0.7903673 -0.3600947
vn -0.001308485 0.8800685 -0.474845
vn 4.929248E-06 0.7903661 -0.6126349
vn -0.3833885 0.8800676 -0.2801684
vn -0.5826511 0.7903651 -0.1893165
vn -0.03640378 0.9725453 -0.2298488
vn 0.147987 0.8800657 -0.4512032
vn 0.1893262 0.7903564 -0.5826597
vn 0.1195732 0.964693 -0.2346691
vn 0.2780522 0.8800664 -0.3849287
vn 0.3600975 0.7903651 -0.4956337
vn -0.01110401 0.9999368 -0.001758844
vn -0.1645536 0.9725454 -0.1645524
vn 0.2073475 0.9725457 -0.1056489
vn 0.3849275 0.8800679 -0.2780491
vn 0.4956345 0.7903634 -0.3601001
vn 0.4512006 0.8800678 -0.1479819
vn 0.5826526 0.7903639 -0.189317
vn 0.4748461 0.8800679 0.001308015
vn 0.6126372 0.7903643 -1.702968E-06
vn -0.2601326 0.9646934 -0.04120156
vn 0.2601321 0.9646936 0.04120097
vn 0.4520103 0.8800677 0.1454904
vn 0.5826528 0.790364 0.1893154
vn 0.1645513 0.9725457 0.1645529
vn 0.3833889 0.8800673 0.2801686
vn 0.4956335 0.7903641 0.3601001
vn 0.2801646 0.8800678 0.3833908
vn 0.3600963 0.7903664 0.4956325
vn 0.1454934 0.8800687 0.4520074
vn 0.1893185 0.7903687 0.5826455
vn 0.04120396 0.9646932 0.2601328
vn 0.001310377 0.8800697 0.4748427
vn -3.518223E-07 0.7903702 0.6126297
vn -0.1056494 0.9725453 0.2073497
vn -0.1479832 0.8800672 0.4512013
vn -0.1893174 0.7903684 0.5826463
vn -0.2780467 0.8800674 0.3849305
vn -0.3600971 0.7903656 0.4956332
vn -0.3849278 0.8800678 0.278049
vn -0.4956334 0.7903644 0.3600996
vn -0.2073476 0.9725458 0.1056483
vn -0.4512004 0.8800681 0.1479805
vn -0.5826513 0.7903653 0.189315
vn -0.4748455 0.8800682 -0.001310508
vn -0.6126355 0.7903656 -1.482143E-06
vn -0.4520094 0.8800681 -0.1454914
vn 0.9161319 -0.1292604 -0.3794655
vn 0.9916108 -0.1292597 -5.695601E-06
vn 0.7011726 -0.1292571 -0.7011773
vn 0.3794664 -0.1292575 -0.916132
vn 3.979314E-06 -0.1292594 -0.9916108
vn -0.3794638 -0.1292585 -0.9161329
vn -0.7011834 -0.1292555 -0.7011669
vn -0.9161285 -0.1292574 -0.3794747
vn -0.9916111 -0.1292578 -3.364201E-06
vn 0.9161271 -0.1292606 0.3794771
vn 0.7011819 -0.1292567 0.701168
vn 0.3794737 -0.1292578 0.9161289
vn -3.948944E-06 -0.1292596 0.9916108
vn -0.3794761 -0.1292583 0.9161278
vn -0.7011716 -0.1292551 0.7011787
vn -0.916131 -0.1292578 0.3794687

usemtl Simple_Emission
f 125/7/101 126/7/101 127/7/101
f 129/7/101 128/7/101 130/7/101
f 136/7/101 135/7/101 137/7/101
f 136/7/101 137/7/101 138/7/101
f 3/2/3 2/2/2 1/1/1
f 1/1/1 6/1/6 3/2/3
f 4/3/4 5/3/5 1/1/1
f 1/1/1 92/1/81 4/3/4
f 6/1/6 1/1/1 5/3/5
f 5/3/5 7/3/7 6/1/6
f 8/2/8 3/2/3 6/1/6
f 6/1/6 9/1/9 8/2/8
f 10/4/10 12/4/12 11/5/11
f 11/5/11 97/5/83 10/4/10
f 13/5/13 11/5/11 12/4/12
f 12/4/12 14/4/14 13/5/13
f 5/3/5 4/3/4 15/6/15
f 15/6/15 16/6/16 5/3/5
f 7/3/7 5/3/5 16/6/16
f 16/6/16 17/6/17 7/3/7
f 9/1/9 6/1/6 7/3/7
f 7/3/7 18/3/18 9/1/9
f 18/3/18 7/3/7 17/6/17
f 17/6/17 20/6/20 18/3/18
f 19/1/19 9/1/9 18/3/18
f 18/3/18 21/3/21 19/1/19
f 21/3/21 18/3/18 20/6/20
f 20/6/20 114/6/94 21/3/21
f 22/2/22 8/2/8 9/1/9
f 9/1/9 19/1/19 22/2/22
f 23/2/23 22/2/22 19/1/19
f 19/1/19 115/1/95 23/2/23
f 24/5/24 13/5/13 14/4/14
f 14/4/14 25/4/25 24/5/24
f 26/5/26 24/5/24 25/4/25
f 25/4/25 27/4/27 26/5/26
f 28/5/28 26/5/26 27/4/27
f 27/4/27 73/4/46 28/5/28
f 22/2/22 23/2/23 27/4/27
f 27/4/27 25/4/25 22/2/22
f 8/2/8 22/2/22 25/4/25
f 25/4/25 14/4/14 8/2/8
f 3/2/3 8/2/8 14/4/14
f 14/4/14 12/4/12 3/2/3
f 2/2/2 3/2/3 12/4/12
f 12/4/12 10/4/10 2/2/2
f 31/1/31 30/1/30 29/3/29
f 29/3/29 34/3/34 31/1/31
f 32/6/32 33/6/33 29/3/29
f 29/3/29 98/3/84 32/6/32
f 34/3/34 29/3/29 33/6/33
f 33/6/33 35/6/35 34/3/34
f 36/1/36 31/1/31 34/3/34
f 34/3/34 37/3/37 36/1/36
f 30/1/30 31/1/31 38/2/25
f 38/2/25 104/2/14 30/1/30
f 41/5/39 40/5/38 39/4/23
f 39/4/23 42/4/40 41/5/39
f 43/5/41 41/5/39 42/4/40
f 42/4/40 44/4/42 43/5/41
f 45/5/43 43/5/41 44/4/42
f 44/4/42 46/4/44 45/5/43
f 47/5/45 45/5/43 46/4/44
f 46/4/44 83/4/63 47/5/45
f 48/2/27 38/2/25 31/1/31
f 31/1/31 36/1/36 48/2/27
f 49/2/46 48/2/27 36/1/36
f 36/1/36 50/1/47 49/2/46
f 50/1/47 36/1/36 37/3/37
f 37/3/37 52/3/49 50/1/47
f 51/2/48 49/2/46 50/1/47
f 50/1/47 53/1/50 51/2/48
f 53/1/50 50/1/47 52/3/49
f 52/3/49 84/3/73 53/1/50
f 54/2/51 51/2/48 53/1/50
f 53/1/50 85/1/74 54/2/51
f 37/3/37 34/3/34 35/6/35
f 35/6/35 55/6/52 37/3/37
f 52/3/49 37/3/37 55/6/52
f 55/6/52 56/6/53 52/3/49
f 38/2/25 48/2/27 39/4/23
f 39/4/23 111/4/22 38/2/25
f 42/4/40 39/4/23 48/2/27
f 48/2/27 49/2/46 42/4/40
f 44/4/42 42/4/40 49/2/46
f 49/2/46 51/2/48 44/4/42
f 46/4/44 44/4/42 51/2/48
f 51/2/48 54/2/51 46/4/44
f 57/4/54 59/4/2 58/5/55
f 58/5/55 60/5/56 57/4/54
f 61/4/57 57/4/54 60/5/56
f 60/5/56 62/5/58 61/4/57
f 63/4/51 61/4/57 62/5/58
f 62/5/58 64/5/59 63/4/51
f 65/1/60 67/1/62 66/2/61
f 66/2/61 68/2/63 65/1/60
f 71/2/44 70/2/42 69/1/64
f 69/1/64 72/1/65 71/2/44
f 68/2/63 71/2/44 72/1/65
f 72/1/65 65/1/60 68/2/63
f 74/5/66 28/5/28 73/4/46
f 73/4/46 75/4/48 74/5/66
f 64/5/59 74/5/66 75/4/48
f 75/4/48 63/4/51 64/5/59
f 72/1/65 69/1/64 76/3/67
f 76/3/67 77/3/68 72/1/65
f 77/3/68 76/3/67 78/6/69
f 78/6/69 79/6/70 77/3/68
f 65/1/60 72/1/65 77/3/68
f 77/3/68 80/3/71 65/1/60
f 80/3/71 77/3/68 79/6/70
f 79/6/70 81/6/72 80/3/71
f 67/1/62 65/1/60 80/3/71
f 80/3/71 109/3/90 67/1/62
f 59/4/2 57/4/54 66/2/61
f 66/2/61 107/2/10 59/4/2
f 68/2/63 66/2/61 57/4/54
f 57/4/54 61/4/57 68/2/63
f 71/2/44 68/2/63 61/4/57
f 61/4/57 63/4/51 71/2/44
f 70/2/42 71/2/44 63/4/51
f 63/4/51 75/4/48 70/2/42
f 82/2/40 70/2/42 75/4/48
f 75/4/48 73/4/46 82/2/40
f 23/2/23 82/2/40 73/4/46
f 73/4/46 27/4/27 23/2/23
f 84/3/73 52/3/49 56/6/53
f 56/6/53 86/6/75 84/3/73
f 85/1/74 53/1/50 84/3/73
f 84/3/73 87/3/76 85/1/74
f 87/3/76 84/3/73 86/6/75
f 86/6/75 89/6/78 87/3/76
f 88/1/77 85/1/74 87/3/76
f 87/3/76 90/3/79 88/1/77
f 90/3/79 87/3/76 89/6/78
f 89/6/78 91/6/80 90/3/79
f 92/1/81 88/1/77 90/3/79
f 90/3/79 4/3/4 92/1/81
f 93/2/57 54/2/51 85/1/74
f 85/1/74 88/1/77 93/2/57
f 94/2/54 93/2/57 88/1/77
f 88/1/77 92/1/81 94/2/54
f 2/2/2 94/2/54 92/1/81
f 92/1/81 1/1/1 2/2/2
f 95/5/82 47/5/45 83/4/63
f 83/4/63 96/4/61 95/5/82
f 97/5/83 95/5/82 96/4/61
f 96/4/61 10/4/10 97/5/83
f 4/3/4 90/3/79 91/6/80
f 91/6/80 15/6/15 4/3/4
f 83/4/63 46/4/44 54/2/51
f 54/2/51 93/2/57 83/4/63
f 96/4/61 83/4/63 93/2/57
f 93/2/57 94/2/54 96/4/61
f 10/4/10 96/4/61 94/2/54
f 94/2/54 2/2/2 10/4/10
f 30/1/30 99/1/85 98/3/84
f 98/3/84 29/3/29 30/1/30
f 100/4/3 102/4/8 101/5/86
f 101/5/86 103/5/87 100/4/3
f 59/4/2 100/4/3 103/5/87
f 103/5/87 58/5/55 59/4/2
f 99/1/85 30/1/30 104/2/14
f 104/2/14 105/2/12 99/1/85
f 107/2/10 106/1/88 99/1/85
f 99/1/85 105/2/12 107/2/10
f 99/1/85 106/1/88 108/3/89
f 108/3/89 98/3/84 99/1/85
f 109/3/90 108/3/89 106/1/88
f 106/1/88 67/1/62 109/3/90
f 66/2/61 67/1/62 106/1/88
f 106/1/88 107/2/10 66/2/61
f 110/5/91 101/5/86 102/4/8
f 102/4/8 111/4/22 110/5/91
f 40/5/38 110/5/91 111/4/22
f 111/4/22 39/4/23 40/5/38
f 109/3/90 80/3/71 81/6/72
f 81/6/72 112/6/92 109/3/90
f 108/3/89 109/3/90 112/6/92
f 112/6/92 113/6/93 108/3/89
f 98/3/84 108/3/89 113/6/93
f 113/6/93 32/6/32 98/3/84
f 100/4/3 59/4/2 107/2/10
f 107/2/10 105/2/12 100/4/3
f 102/4/8 100/4/3 105/2/12
f 105/2/12 104/2/14 102/4/8
f 111/4/22 102/4/8 104/2/14
f 104/2/14 38/2/25 111/4/22
f 115/1/95 19/1/19 21/3/21
f 21/3/21 116/3/96 115/1/95
f 82/2/40 23/2/23 115/1/95
f 115/1/95 117/1/97 82/2/40
f 117/1/97 115/1/95 116/3/96
f 116/3/96 118/3/98 117/1/97
f 70/2/42 82/2/40 117/1/97
f 117/1/97 69/1/64 70/2/42
f 69/1/64 117/1/97 118/3/98
f 118/3/98 76/3/67 69/1/64
f 116/3/96 21/3/21 114/6/94
f 114/6/94 119/6/99 116/3/96
f 118/3/98 116/3/96 119/6/99
f 119/6/99 120/6/100 118/3/98
f 76/3/67 118/3/98 120/6/100
f 120/6/100 78/6/69 76/3/67
f 123/7/101 122/7/101 121/7/101
f 121/7/101 124/7/101 123/7/101
f 125/7/101 123/7/101 124/7/101
f 124/7/101 126/7/101 125/7/101
f 127/7/101 126/7/101 128/7/101
f 128/7/101 129/7/101 127/7/101
f 130/7/101 128/7/101 131/7/101
f 131/7/101 132/7/101 130/7/101
f 132/7/101 131/7/101 133/7/101
f 133/7/101 134/7/101 132/7/101
f 134/7/101 133/7/101 135/7/101
f 135/7/101 136/7/101 134/7/101
f 138/7/101 137/7/101 139/7/101
f 139/7/101 140/7/101 138/7/101

usemtl Color
f 426/26/407 423/26/404 430/27/411
f 434/26/415 431/26/412 433/27/414
f 436/28/417 430/27/411 437/27/418
f 437/27/418 424/26/405 428/26/409
f 438/27/419 441/26/422 439/26/420
f 447/26/428 443/26/424 446/27/427
f 449/27/430 452/26/433 450/26/431
f 456/27/437 457/26/438 454/26/435
f 462/26/443 460/26/441 459/27/440
f 436/28/417 466/27/447 459/27/440
f 466/27/447 467/26/448 464/26/445
f 471/26/452 469/26/450 445/27/426
f 143/9/104 142/9/103 141/8/102
f 141/8/102 144/8/105 143/9/104
f 145/8/106 141/8/102 142/9/103
f 142/9/103 146/9/107 145/8/106
f 147/8/108 145/8/106 146/9/107
f 146/9/107 255/9/228 147/8/108
f 148/10/109 150/10/111 149/11/110
f 149/11/110 151/11/112 148/10/109
f 152/10/113 148/10/109 151/11/112
f 151/11/112 153/11/114 152/10/113
f 154/10/115 152/10/113 153/11/114
f 153/11/114 155/11/116 154/10/115
f 156/10/117 154/10/115 155/11/116
f 155/11/116 157/11/118 156/10/117
f 158/10/119 156/10/117 157/11/118
f 157/11/118 159/11/120 158/10/119
f 160/8/121 162/8/123 161/9/122
f 161/9/122 163/9/124 160/8/121
f 164/8/125 160/8/121 163/9/124
f 163/9/124 165/9/126 164/8/125
f 144/8/105 164/8/125 165/9/126
f 165/9/126 143/9/104 144/8/105
f 162/12/123 160/12/121 158/13/119
f 158/13/119 282/13/255 162/12/123
f 154/13/115 156/13/117 164/12/125
f 164/12/125 144/12/105 154/13/115
f 152/13/113 154/13/115 144/12/105
f 144/12/105 141/12/102 152/13/113
f 148/13/109 152/13/113 141/12/102
f 141/12/102 145/12/106 148/13/109
f 150/13/111 148/13/109 145/12/106
f 145/12/106 147/12/108 150/13/111
f 156/13/117 158/13/119 160/12/121
f 160/12/121 164/12/125 156/13/117
f 168/9/129 167/9/128 166/8/127
f 166/8/127 260/8/233 168/9/129
f 169/8/130 166/8/127 167/9/128
f 167/9/128 170/9/131 169/8/130
f 171/8/132 169/8/130 170/9/131
f 170/9/131 172/9/133 171/8/132
f 173/8/134 171/8/132 172/9/133
f 172/9/133 174/9/135 173/8/134
f 174/9/135 176/9/137 175/8/136
f 175/8/136 173/8/134 174/9/135
f 177/8/138 175/8/136 176/9/137
f 176/9/137 281/9/254 177/8/138
f 178/10/139 180/10/141 179/11/140
f 179/11/140 261/11/234 178/10/139
f 181/11/142 179/11/140 180/10/141
f 180/10/141 182/10/143 181/11/142
f 183/11/144 181/11/142 182/10/143
f 182/10/143 184/10/145 183/11/144
f 185/11/146 183/11/144 184/10/145
f 184/10/145 186/10/147 185/11/146
f 187/11/148 185/11/146 186/10/147
f 186/10/147 188/10/149 187/11/148
f 189/11/150 187/11/148 188/10/149
f 188/10/149 190/10/151 189/11/150
f 180/13/141 178/13/139 166/12/127
f 166/12/127 169/12/130 180/13/141
f 182/13/143 180/13/141 169/12/130
f 169/12/130 171/12/132 182/13/143
f 184/13/145 182/13/143 171/12/132
f 171/12/132 173/12/134 184/13/145
f 186/13/147 184/13/145 173/12/134
f 173/12/134 175/12/136 186/13/147
f 188/13/149 186/13/147 175/12/136
f 175/12/136 177/12/138 188/13/149
f 191/14/152 193/14/154 192/14/153
f 192/14/153 301/14/277 191/14/152
f 194/14/155 192/14/153 193/14/154
f 193/14/154 195/14/156 194/14/155
f 196/14/157 194/14/155 195/14/156
f 195/14/156 197/14/158 196/14/157
f 198/14/159 196/14/157 197/14/158
f 197/14/158 199/14/160 198/14/159
f 139/15/163 137/15/162 200/15/161
f 200/15/161 201/15/164 139/15/163
f 140/15/165 139/15/163 201/15/164
f 201/15/164 202/15/166 140/15/165
f 203/15/167 200/15/161 137/15/162
f 137/15/162 135/15/283 203/15/167
f 138/15/168 140/15/165 202/15/166
f 202/15/166 294/15/270 138/15/168
f 201/16/164 200/16/161 204/16/169
f 204/16/169 205/16/170 201/16/164
f 202/16/166 201/16/164 205/16/170
f 205/16/170 206/16/171 202/16/166
f 200/16/161 203/16/167 207/16/172
f 207/16/172 204/16/169 200/16/161
f 208/16/173 209/16/174 192/16/153
f 192/16/153 194/16/155 208/16/173
f 210/16/175 208/16/173 194/16/155
f 194/16/155 196/16/157 210/16/175
f 211/16/176 210/16/175 196/16/157
f 196/16/157 198/16/159 211/16/176
f 212/16/177 211/16/176 198/16/159
f 198/16/159 290/16/263 212/16/177
f 209/14/174 208/14/173 207/14/172
f 207/14/172 307/14/286 209/14/174
f 204/14/169 207/14/172 208/14/173
f 208/14/173 210/14/175 204/14/169
f 205/14/170 204/14/169 210/14/175
f 210/14/175 211/14/176 205/14/170
f 206/14/171 205/14/170 211/14/176
f 211/14/176 212/14/177 206/14/171
f 213/15/178 214/15/180 128/15/179
f 128/15/179 126/15/181 213/15/178
f 217/14/184 216/14/183 215/14/182
f 215/14/182 218/14/185 217/14/184
f 219/14/186 217/14/184 218/14/185
f 218/14/185 220/14/187 219/14/186
f 221/14/188 219/14/186 220/14/187
f 220/14/187 222/14/189 221/14/188
f 223/14/190 221/14/188 222/14/189
f 222/14/189 303/14/280 223/14/190
f 224/15/191 213/15/178 126/15/181
f 126/15/181 124/15/192 224/15/191
f 225/15/193 224/15/191 124/15/192
f 124/15/192 121/15/194 225/15/193
f 214/16/180 213/16/178 226/16/195
f 226/16/195 306/16/285 214/16/180
f 227/16/196 226/16/195 213/16/178
f 213/16/178 224/16/191 227/16/196
f 228/16/197 227/16/196 224/16/191
f 224/16/191 225/16/193 228/16/197
f 229/16/198 228/16/197 225/16/193
f 225/16/193 315/16/295 229/16/198
f 221/16/188 223/16/190 230/16/199
f 230/16/199 231/16/200 221/16/188
f 219/16/186 221/16/188 231/16/200
f 231/16/200 232/16/201 219/16/186
f 217/16/184 219/16/186 232/16/201
f 232/16/201 233/16/202 217/16/184
f 216/16/183 217/16/184 233/16/202
f 233/16/202 319/16/300 216/16/183
f 231/14/200 230/14/199 226/14/195
f 226/14/195 227/14/196 231/14/200
f 232/14/201 231/14/200 227/14/196
f 227/14/196 228/14/197 232/14/201
f 233/14/202 232/14/201 228/14/197
f 228/14/197 229/14/198 233/14/202
f 236/14/205 235/14/204 234/14/203
f 234/14/203 237/14/206 236/14/205
f 238/14/207 236/14/205 237/14/206
f 237/14/206 239/14/208 238/14/207
f 235/14/204 241/14/210 240/14/209
f 240/14/209 234/14/203 235/14/204
f 125/15/213 127/15/212 242/15/211
f 242/15/211 316/15/297 125/15/213
f 243/15/214 242/15/211 127/15/212
f 127/15/212 129/15/215 243/15/214
f 244/15/216 243/15/214 129/15/215
f 129/15/215 130/15/217 244/15/216
f 245/15/218 244/15/216 130/15/217
f 130/15/217 132/15/267 245/15/218
f 247/16/220 246/16/219 244/16/216
f 244/16/216 245/16/218 247/16/220
f 249/16/222 248/16/221 242/16/211
f 242/16/211 243/16/214 249/16/222
f 246/16/219 249/16/222 243/16/214
f 243/16/214 244/16/216 246/16/219
f 250/16/223 251/16/224 241/16/210
f 241/16/210 235/16/204 250/16/223
f 252/16/225 250/16/223 235/16/204
f 235/16/204 236/16/205 252/16/225
f 253/16/226 252/16/225 236/16/205
f 236/16/205 238/16/207 253/16/226
f 254/16/227 253/16/226 238/16/207
f 238/16/207 312/16/291 254/16/227
f 251/14/224 250/14/223 247/14/220
f 247/14/220 295/14/271 251/14/224
f 246/14/219 247/14/220 250/14/223
f 250/14/223 252/14/225 246/14/219
f 249/14/222 246/14/219 252/14/225
f 252/14/225 253/14/226 249/14/222
f 253/14/226 254/14/227 248/14/221
f 248/14/221 249/14/222 253/14/226
f 256/8/229 147/8/108 255/9/228
f 255/9/228 257/9/230 256/8/229
f 258/8/231 256/8/229 257/9/230
f 257/9/230 259/9/232 258/8/231
f 259/9/232 168/9/129 260/8/233
f 260/8/233 258/8/231 259/9/232
f 262/10/235 178/10/139 261/11/234
f 261/11/234 263/11/236 262/10/235
f 264/10/237 262/10/235 263/11/236
f 263/11/236 265/11/238 264/10/237
f 266/10/239 264/10/237 265/11/238
f 265/11/238 267/11/240 266/10/239
f 150/10/111 266/10/239 267/11/240
f 267/11/240 149/11/110 150/10/111
f 147/12/108 256/12/229 266/13/239
f 266/13/239 150/13/111 147/12/108
f 264/13/237 266/13/239 256/12/229
f 256/12/229 258/12/231 264/13/237
f 262/13/235 264/13/237 258/12/231
f 258/12/231 260/12/233 262/13/235
f 178/13/139 262/13/235 260/12/233
f 260/12/233 166/12/127 178/13/139
f 270/14/243 269/14/242 268/14/241
f 268/14/241 271/14/244 270/14/243
f 241/14/210 270/14/243 271/14/244
f 271/14/244 240/14/209 241/14/210
f 251/16/224 272/16/245 270/16/243
f 270/16/243 241/16/210 251/16/224
f 273/9/246 161/9/122 162/8/123
f 162/8/123 274/8/247 273/9/246
f 275/9/248 273/9/246 274/8/247
f 274/8/247 276/8/249 275/9/248
f 277/9/250 275/9/248 276/8/249
f 276/8/249 278/8/251 277/9/250
f 279/9/252 277/9/250 278/8/251
f 278/8/251 280/8/253 279/9/252
f 281/9/254 279/9/252 280/8/253
f 280/8/253 177/8/138 281/9/254
f 282/10/255 158/10/119 159/11/120
f 159/11/120 283/11/256 282/10/255
f 284/10/257 282/10/255 283/11/256
f 283/11/256 285/11/258 284/10/257
f 286/10/259 284/10/257 285/11/258
f 285/11/258 287/11/260 286/10/259
f 288/10/261 286/10/259 287/11/260
f 287/11/260 289/11/262 288/10/261
f 289/11/262 189/11/150 190/10/151
f 190/10/151 288/10/261 289/11/262
f 274/12/247 162/12/123 282/13/255
f 282/13/255 284/13/257 274/12/247
f 276/12/249 274/12/247 284/13/257
f 284/13/257 286/13/259 276/12/249
f 190/13/151 188/13/149 177/12/138
f 177/12/138 280/12/253 190/13/151
f 288/13/261 190/13/151 280/12/253
f 280/12/253 278/12/251 288/13/261
f 286/13/259 288/13/261 278/12/251
f 278/12/251 276/12/249 286/13/259
f 290/14/263 198/14/159 199/14/160
f 199/14/160 291/14/264 290/14/263
f 269/14/242 290/14/263 291/14/264
f 291/14/264 268/14/241 269/14/242
f 132/15/267 134/15/266 292/15/265
f 292/15/265 245/15/218 132/15/267
f 293/15/268 292/15/265 134/15/266
f 134/15/266 136/15/269 293/15/268
f 294/15/270 293/15/268 136/15/269
f 136/15/269 138/15/168 294/15/270
f 295/16/271 247/16/220 245/16/218
f 245/16/218 292/16/265 295/16/271
f 296/16/272 295/16/271 292/16/265
f 292/16/265 293/16/268 296/16/272
f 297/16/273 296/16/272 293/16/268
f 293/16/268 294/16/270 297/16/273
f 206/16/171 297/16/273 294/16/270
f 294/16/270 202/16/166 206/16/171
f 298/16/274 212/16/177 290/16/263
f 290/16/263 269/16/242 298/16/274
f 272/16/245 298/16/274 269/16/242
f 269/16/242 270/16/243 272/16/245
f 297/14/273 206/14/171 212/14/177
f 212/14/177 298/14/274 297/14/273
f 296/14/272 297/14/273 298/14/274
f 298/14/274 272/14/245 296/14/272
f 295/14/271 296/14/272 272/14/245
f 272/14/245 251/14/224 295/14/271
f 301/14/277 300/14/276 299/14/275
f 299/14/275 191/14/152 301/14/277
f 214/15/180 302/15/279 131/15/278
f 131/15/278 128/15/179 214/15/180
f 300/14/276 223/14/190 303/14/280
f 303/14/280 299/14/275 300/14/276
f 133/15/281 131/15/278 302/15/279
f 302/15/279 304/15/282 133/15/281
f 135/15/283 133/15/281 304/15/282
f 304/15/282 203/15/167 135/15/283
f 306/16/285 305/16/284 302/16/279
f 302/16/279 214/16/180 306/16/285
f 304/16/282 302/16/279 305/16/284
f 305/16/284 307/16/286 304/16/282
f 203/16/167 304/16/282 307/16/286
f 307/16/286 207/16/172 203/16/167
f 301/16/277 192/16/153 209/16/174
f 209/16/174 308/16/287 301/16/277
f 300/16/276 301/16/277 308/16/287
f 308/16/287 309/16/288 300/16/276
f 223/16/190 300/16/276 309/16/288
f 309/16/288 230/16/199 223/16/190
f 308/14/287 209/14/174 307/14/286
f 307/14/286 305/14/284 308/14/287
f 309/14/288 308/14/287 305/14/284
f 305/14/284 306/14/285 309/14/288
f 230/14/199 309/14/288 306/14/285
f 306/14/285 226/14/195 230/14/199
f 216/14/183 311/14/290 310/14/289
f 310/14/289 215/14/182 216/14/183
f 312/14/291 238/14/207 239/14/208
f 239/14/208 313/14/292 312/14/291
f 311/14/290 312/14/291 313/14/292
f 313/14/292 310/14/289 311/14/290
f 314/15/293 315/15/295 122/15/294
f 122/15/294 123/15/296 314/15/293
f 316/15/297 314/15/293 123/15/296
f 123/15/296 125/15/213 316/15/297
f 315/15/295 225/15/193 121/15/194
f 121/15/194 122/15/294 315/15/295
f 314/16/293 316/16/297 317/16/298
f 317/16/298 318/16/299 314/16/293
f 315/16/295 314/16/293 318/16/299
f 318/16/299 229/16/198 315/16/295
f 248/16/221 317/16/298 316/16/297
f 316/16/297 242/16/211 248/16/221
f 311/16/290 216/16/183 319/16/300
f 319/16/300 320/16/301 311/16/290
f 312/16/291 311/16/290 320/16/301
f 320/16/301 254/16/227 312/16/291
f 319/14/300 233/14/202 229/14/198
f 229/14/198 318/14/299 319/14/300
f 320/14/301 319/14/300 318/14/299
f 318/14/299 317/14/298 320/14/301
f 254/14/227 320/14/301 317/14/298
f 317/14/298 248/14/221 254/14/227
f 423/26/404 422/25/403 421/25/402
f 421/25/402 424/26/405 423/26/404
f 424/26/405 421/25/402 425/25/406
f 425/25/406 428/26/409 424/26/405
f 422/25/403 423/26/404 426/26/407
f 426/26/407 427/25/408 422/25/403
f 428/26/409 425/25/406 429/25/410
f 429/25/410 471/26/452 428/26/409
f 430/27/411 423/26/404 424/26/405
f 424/26/405 437/27/418 430/27/411
f 427/25/408 426/26/407 431/26/412
f 431/26/412 432/25/413 427/25/408
f 433/27/414 431/26/412 426/26/407
f 426/26/407 430/27/411 433/27/414
f 432/25/413 431/26/412 434/26/415
f 434/26/415 435/25/416 432/25/413
f 438/27/419 433/27/414 430/27/411
f 430/27/411 436/28/417 438/27/419
f 434/26/415 433/27/414 438/27/419
f 438/27/419 439/26/420 434/26/415
f 435/25/416 434/26/415 439/26/420
f 439/26/420 440/25/421 435/25/416
f 440/25/421 439/26/420 441/26/422
f 441/26/422 442/25/423 440/25/421
f 442/25/423 441/26/422 443/26/424
f 443/26/424 444/25/425 442/25/423
f 443/26/424 441/26/422 438/27/419
f 438/27/419 446/27/427 443/26/424
f 445/27/426 437/27/418 428/26/409
f 428/26/409 471/26/452 445/27/426
f 436/28/417 437/27/418 445/27/426
f 445/27/426 466/27/447 436/28/417
f 449/27/430 446/27/427 438/27/419
f 438/27/419 436/28/417 449/27/430
f 444/25/425 443/26/424 447/26/428
f 447/26/428 448/25/429 444/25/425
f 447/26/428 446/27/427 449/27/430
f 449/27/430 450/26/431 447/26/428
f 448/25/429 447/26/428 450/26/431
f 450/26/431 451/25/432 448/25/429
f 451/25/432 450/26/431 452/26/433
f 452/26/433 453/25/434 451/25/432
f 453/25/434 452/26/433 454/26/435
f 454/26/435 455/25/436 453/25/434
f 454/26/435 452/26/433 449/27/430
f 449/27/430 456/27/437 454/26/435
f 459/27/440 456/27/437 449/27/430
f 449/27/430 436/28/417 459/27/440
f 455/25/436 454/26/435 457/26/438
f 457/26/438 458/25/439 455/25/436
f 457/26/438 456/27/437 459/27/440
f 459/27/440 460/26/441 457/26/438
f 458/25/439 457/26/438 460/26/441
f 460/26/441 461/25/442 458/25/439
f 461/25/442 460/26/441 462/26/443
f 462/26/443 463/25/444 461/25/442
f 463/25/444 462/26/443 464/26/445
f 464/26/445 465/25/446 463/25/444
f 464/26/445 462/26/443 459/27/440
f 459/27/440 466/27/447 464/26/445
f 465/25/446 464/26/445 467/26/448
f 467/26/448 468/25/449 465/25/446
f 467/26/448 466/27/447 445/27/426
f 445/27/426 469/26/450 467/26/448
f 468/25/449 467/26/448 469/26/450
f 469/26/450 470/25/451 468/25/449
f 470/25/451 469/26/450 471/26/452
f 471/26/452 429/25/410 470/25/451

usemtl Metall
f 330/19/311 394/19/375 331/19/312
f 331/19/312 394/19/375 346/19/327
f 404/19/385 378/19/359 405/19/386
f 407/19/388 406/19/387 325/19/306
f 323/18/304 322/18/303 321/17/302
f 321/17/302 324/17/305 323/18/304
f 327/19/308 326/19/307 325/19/306
f 325/19/306 406/19/387 327/19/308
f 326/19/307 327/19/308 328/19/309
f 328/19/309 329/19/310 326/19/307
f 329/19/310 328/19/309 330/19/311
f 330/19/311 331/19/312 329/19/310
f 334/18/315 333/18/314 332/17/313
f 332/17/313 335/17/316 334/18/315
f 336/18/317 334/18/315 335/17/316
f 335/17/316 337/17/318 336/18/317
f 338/18/319 336/18/317 337/17/318
f 337/17/318 339/17/320 338/18/319
f 322/18/303 338/18/319 339/17/320
f 339/17/320 321/17/302 322/18/303
f 341/21/322 340/21/321 323/20/304
f 323/20/304 386/20/367 341/21/322
f 333/20/314 334/20/315 342/21/323
f 342/21/323 417/21/398 333/20/314
f 343/21/324 342/21/323 334/20/315
f 334/20/315 336/20/317 343/21/324
f 344/21/325 343/21/324 336/20/317
f 336/20/317 338/20/319 344/21/325
f 345/21/326 344/21/325 338/20/319
f 338/20/319 322/20/303 345/21/326
f 340/21/321 345/21/326 322/20/303
f 322/20/303 323/20/304 340/21/321
f 325/23/306 326/23/307 332/22/313
f 332/22/313 413/22/394 325/23/306
f 335/22/316 332/22/313 326/23/307
f 326/23/307 329/23/310 335/22/316
f 337/22/318 335/22/316 329/23/310
f 329/23/310 331/23/312 337/22/318
f 339/22/320 337/22/318 331/23/312
f 331/23/312 346/23/327 339/22/320
f 321/22/302 339/22/320 346/23/327
f 346/23/327 347/23/328 321/22/302
f 324/22/305 321/22/302 347/23/328
f 347/23/328 395/23/376 324/22/305
f 340/24/321 341/24/322 348/24/329
f 348/24/329 349/24/330 340/24/321
f 345/24/326 340/24/321 349/24/330
f 349/24/330 350/24/331 345/24/326
f 344/24/325 345/24/326 350/24/331
f 350/24/331 351/24/332 344/24/325
f 343/24/324 344/24/325 351/24/332
f 351/24/332 352/24/333 343/24/324
f 342/24/323 343/24/324 352/24/333
f 352/24/333 353/24/334 342/24/323
f 354/17/335 356/17/337 355/18/336
f 355/18/336 357/18/338 354/17/335
f 358/17/339 354/17/335 357/18/338
f 357/18/338 359/18/340 358/17/339
f 360/18/341 355/18/336 356/17/337
f 356/17/337 361/17/342 360/18/341
f 362/18/343 360/18/341 361/17/342
f 361/17/342 363/17/344 362/18/343
f 366/19/347 365/19/346 364/19/345
f 364/19/345 367/19/348 366/19/347
f 368/18/349 362/18/343 363/17/344
f 363/17/344 369/17/350 368/18/349
f 370/18/351 368/18/349 369/17/350
f 369/17/350 371/17/352 370/18/351
f 373/21/354 372/21/353 368/20/349
f 368/20/349 370/20/351 373/21/354
f 359/20/340 357/20/338 374/21/355
f 374/21/355 396/21/377 359/20/340
f 375/21/356 374/21/355 357/20/338
f 357/20/338 355/20/336 375/21/356
f 376/21/357 375/21/356 355/20/336
f 355/20/336 360/20/341 376/21/357
f 377/21/358 376/21/357 360/20/341
f 360/20/341 362/20/343 377/21/358
f 372/21/353 377/21/358 362/20/343
f 362/20/343 368/20/349 372/21/353
f 371/22/352 369/22/350 366/23/347
f 366/23/347 404/23/385 371/22/352
f 356/22/337 354/22/335 378/23/359
f 378/23/359 367/23/348 356/22/337
f 361/22/342 356/22/337 367/23/348
f 367/23/348 364/23/345 361/22/342
f 363/22/344 361/22/342 364/23/345
f 364/23/345 365/23/346 363/22/344
f 369/22/350 363/22/344 365/23/346
f 365/23/346 366/23/347 369/22/350
f 380/24/361 379/24/360 374/24/355
f 374/24/355 375/24/356 380/24/361
f 381/24/362 380/24/361 375/24/356
f 375/24/356 376/24/357 381/24/362
f 382/24/363 381/24/362 376/24/357
f 376/24/357 377/24/358 382/24/363
f 383/24/364 382/24/363 377/24/358
f 377/24/358 372/24/353 383/24/364
f 384/24/365 383/24/364 372/24/353
f 372/24/353 373/24/354 384/24/365
f 385/24/366 384/24/365 373/24/354
f 373/24/354 414/24/395 385/24/366
f 386/18/367 323/18/304 324/17/305
f 324/17/305 387/17/368 386/18/367
f 388/18/369 386/18/367 387/17/368
f 387/17/368 389/17/370 388/18/369
f 390/17/371 358/17/339 359/18/340
f 359/18/340 391/18/372 390/17/371
f 392/18/373 388/18/369 389/17/370
f 389/17/370 393/17/374 392/18/373
f 391/18/372 392/18/373 393/17/374
f 393/17/374 390/17/371 391/18/372
f 346/19/327 394/19/375 395/19/376
f 395/19/376 347/19/328 346/19/327
f 391/20/372 359/20/340 396/21/377
f 396/21/377 397/21/378 391/20/372
f 392/20/373 391/20/372 397/21/378
f 397/21/378 398/21/379 392/20/373
f 388/20/369 392/20/373 398/21/379
f 398/21/379 399/21/380 388/20/369
f 386/20/367 388/20/369 399/21/380
f 399/21/380 341/21/322 386/20/367
f 358/22/339 390/22/371 327/23/308
f 327/23/308 406/23/387 358/22/339
f 328/23/309 327/23/308 390/22/371
f 390/22/371 393/22/374 328/23/309
f 330/23/311 328/23/309 393/22/374
f 393/22/374 389/22/370 330/23/311
f 394/23/375 330/23/311 389/22/370
f 389/22/370 387/22/368 394/23/375
f 395/23/376 394/23/375 387/22/368
f 387/22/368 324/22/305 395/23/376
f 401/24/382 400/24/381 398/24/379
f 398/24/379 397/24/378 401/24/382
f 399/24/380 398/24/379 400/24/381
f 400/24/381 403/24/384 399/24/380
f 402/24/383 401/24/382 397/24/378
f 397/24/378 396/24/377 402/24/383
f 341/24/322 399/24/380 403/24/384
f 403/24/384 348/24/329 341/24/322
f 379/24/360 402/24/383 396/24/377
f 396/24/377 374/24/355 379/24/360
f 378/19/359 404/19/385 366/19/347
f 366/19/347 367/19/348 378/19/359
f 405/19/386 378/19/359 406/19/387
f 406/19/387 407/19/388 405/19/386
f 408/18/389 370/18/351 371/17/352
f 371/17/352 409/17/390 408/18/389
f 410/18/391 408/18/389 409/17/390
f 409/17/390 411/17/392 410/18/391
f 412/18/393 410/18/391 411/17/392
f 411/17/392 413/17/394 412/18/393
f 333/18/314 412/18/393 413/17/394
f 413/17/394 332/17/313 333/18/314
f 414/21/395 373/21/354 370/20/351
f 370/20/351 408/20/389 414/21/395
f 415/21/396 414/21/395 408/20/389
f 408/20/389 410/20/391 415/21/396
f 416/21/397 415/21/396 410/20/391
f 410/20/391 412/20/393 416/21/397
f 417/21/398 416/21/397 412/20/393
f 412/20/393 333/20/314 417/21/398
f 409/22/390 371/22/352 404/23/385
f 404/23/385 405/23/386 409/22/390
f 411/22/392 409/22/390 405/23/386
f 405/23/386 407/23/388 411/22/392
f 413/22/394 411/22/392 407/23/388
f 407/23/388 325/23/306 413/22/394
f 354/22/335 358/22/339 406/23/387
f 406/23/387 378/23/359 354/22/335
f 417/24/398 342/24/323 353/24/334
f 353/24/334 418/24/399 417/24/398
f 416/24/397 417/24/398 418/24/399
f 418/24/399 420/24/401 416/24/397
f 419/24/400 385/24/366 414/24/395
f 414/24/395 415/24/396 419/24/400
f 415/24/396 416/24/397 420/24/401
f 420/24/401 419/24/400 415/24/396

usemtl Plasma
f 475/32/453 474/31/454 473/30/454 472/29/453
f 477/34/455 475/32/453 472/29/453 476/33/455
f 479/36/456 477/34/455 476/33/455 478/35/456
f 481/38/457 479/36/456 478/35/456 480/37/457
f 483/40/458 481/38/457 480/37/457 482/39/458
f 485/42/459 483/40/458 482/39/458 484/41/459
f 487/44/460 485/42/459 484/41/459 486/43/460
f 489/46/461 487/44/460 486/43/460 488/45/461
f 491/29/462 473/30/454 474/31/454 490/32/462
f 493/33/463 491/29/462 490/32/462 492/34/463
f 495/35/464 493/33/463 492/34/463 494/36/464
f 497/37/465 495/35/464 494/36/464 496/38/465
f 499/39/466 497/37/465 496/38/465 498/40/466
f 501/41/467 499/39/466 498/40/466 500/42/467
f 503/43/468 501/41/467 500/42/467 502/44/468
f 488/45/461 503/43/468 502/44/468 489/46/461

